<svg width="577" height="568" viewBox="0 0 577 568" fill="none" xmlns="http://www.w3.org/2000/svg">
<g style="mix-blend-mode:screen">
<path d="M450.17 303.007C450.17 303.007 449.053 306.091 451.53 308.151C454.008 310.212 460.894 305.825 463.163 304.969C465.432 304.113 466.208 304.977 466.208 304.977C466.208 304.977 461.992 294.306 454.193 295.352C449.542 295.973 449.072 299.333 450.17 303.007Z" fill="#50BFA5"/>
<path d="M460.542 304.405C459.784 304.223 457.932 303.67 457.25 303.049C459.697 303.231 462.212 303.625 464.439 304.041C463.265 303.674 461.75 303.269 460.114 302.92C460.322 301.89 462.33 301.674 462.352 301.67C462.489 301.655 462.47 301.443 462.333 301.458C462.242 301.469 460.148 301.693 459.909 302.878C459.167 302.723 458.405 302.583 457.636 302.462C458.019 300.621 460.856 299.89 460.886 299.882C460.943 299.867 460.977 299.81 460.962 299.753C460.947 299.697 460.894 299.659 460.837 299.674C460.708 299.704 457.822 300.45 457.428 302.431C456.617 302.306 455.807 302.208 455.019 302.147C455.193 299.776 458.53 298.291 458.568 298.276C458.697 298.219 458.614 298.022 458.489 298.079C458.337 298.144 454.985 299.632 454.811 302.132C453.826 302.06 452.879 302.045 452.015 302.11C451.848 299.7 454.477 297.632 454.508 297.61C454.553 297.575 454.564 297.507 454.527 297.458C454.492 297.413 454.424 297.401 454.379 297.439C454.261 297.53 451.621 299.606 451.803 302.128C451.436 302.163 451.083 302.208 450.754 302.272C447.08 303.03 446.443 300.36 446.25 300.083C446.178 299.886 445.97 299.769 445.765 299.818C444.879 300.03 446.049 301.977 446.977 302.693C448.561 303.848 449.898 303.462 451.663 303.174C452.564 305.856 454.905 306.5 454.932 306.503C454.939 306.503 454.943 306.507 454.951 306.507C455 306.511 455.045 306.477 455.061 306.428C455.076 306.371 455.042 306.314 454.985 306.299C454.962 306.291 452.746 305.678 451.875 303.144C452.621 303.026 453.133 302.985 453.981 302.966C454.678 304.579 457.591 305.25 457.727 305.28C457.731 305.28 457.739 305.28 457.742 305.284C457.792 305.288 457.841 305.253 457.852 305.2C457.864 305.144 457.83 305.087 457.773 305.072C457.742 305.064 454.939 304.42 454.212 302.962C455.102 302.947 456.023 302.977 456.955 303.041C457.64 303.928 460.379 304.594 460.504 304.625C460.557 304.64 460.617 304.606 460.629 304.545C460.633 304.477 460.598 304.42 460.542 304.405Z" fill="#3C8F7C"/>
<path d="M243.068 42.689L234.572 40.7269L232.326 46.7762L223.875 45.1322L220.811 50.6512L214.307 50.2307L214.277 52.8443L222.973 53.405L225.879 48.1739L234.67 49.886L236.879 43.9353L244.58 45.7118L243.068 42.689Z" fill="#F7CC7F"/>
<path d="M392.523 47.7118L392.83 44.8519L390.652 42.9769C390.402 42.7648 390.508 42.3595 390.83 42.2913L393.644 41.7004L394.754 39.0489C394.879 38.7459 395.299 38.7194 395.462 39.0034L396.894 41.4959L399.758 41.7307C400.083 41.7572 400.239 42.1474 400.019 42.3898L398.091 44.5224L398.754 47.3216C398.83 47.6398 398.508 47.905 398.208 47.7724L395.583 46.5981L393.129 48.0906C392.841 48.261 392.489 48.0375 392.523 47.7118Z" fill="#96D9C9"/>
<path d="M446.924 199.678C446.182 205.526 452.273 210.17 457.693 209.806C463.682 209.401 468.765 204.488 469.64 198.602C470.587 192.231 466.761 187.136 460.837 186.666C455.072 186.212 451.383 191.344 453.049 196.522C454.242 200.234 457.633 201.621 459.341 200.594C460.67 199.795 460.591 197.784 458.981 197.428C458.337 197.284 457.67 197.644 457.326 198.14C455.917 197.579 454.572 195.011 455.485 192.242C456.648 188.7 461.125 188.5 463.905 190.151C467.443 192.253 468 196.78 466.701 200.386C465.337 204.174 461.617 207.155 457.568 207.443C452.981 207.769 448.943 204.253 448.58 199.681C448.492 198.606 447.057 198.628 446.924 199.678Z" fill="#50BFA5"/>
<path d="M83.7727 77.4617L83.7311 72.0716L79.2689 69.0527C78.7613 68.708 78.8674 67.9314 79.4508 67.7383L84.5606 66.0337L86.053 60.8557C86.2235 60.2648 86.9962 60.1284 87.3598 60.6208L90.5606 64.9542L95.947 64.7724C96.5606 64.7534 96.9318 65.4428 96.5757 65.9428L93.4432 70.3292L95.2803 75.3973C95.4886 75.9731 94.947 76.5413 94.3598 76.3557L89.2235 74.7307L84.9697 78.0375C84.4849 78.4163 83.7803 78.0754 83.7727 77.4617Z" fill="#F7CC7F"/>
<path d="M450.159 259.269C449.985 256.761 451.879 254.587 454.386 254.412C456.894 254.238 459.072 256.132 459.242 258.64C459.417 261.147 457.523 263.322 455.015 263.496C452.508 263.67 450.333 261.776 450.159 259.269Z" fill="#F7CC7F"/>
<path d="M457.879 272.125C457.606 270.803 457.443 269.39 456.992 268.117C456.606 267.022 454.898 267.356 454.985 268.534C455.091 269.973 455.542 271.435 455.841 272.844C455.962 273.416 456.72 273.681 457.22 273.503C457.83 273.287 457.996 272.7 457.879 272.125Z" fill="#F7CC7F"/>
<path d="M465.682 266.485C464.174 265.594 462.856 264.492 461.466 263.439C460.379 262.617 459.205 264.034 460.098 265.007C461.383 266.409 463.072 267.507 464.701 268.466C465.216 268.769 465.932 268.473 466.186 267.966C466.466 267.397 466.201 266.788 465.682 266.485Z" fill="#F7CC7F"/>
<path d="M462.826 258.333C462.485 258.606 462.417 259 462.625 259.382C463.136 260.307 464.432 260.261 465.352 260.231C466.311 260.197 467.273 260.003 468.178 259.693C469.519 259.235 468.792 257.151 467.447 257.613C464.814 258.515 463.818 257.538 462.826 258.333Z" fill="#F7CC7F"/>
<path d="M461.375 249.481C460.049 251.42 458.966 252.075 459.136 253.144C459.235 253.769 459.727 254.064 460.33 253.928C461.042 253.765 461.428 253.011 461.856 252.481C462.265 251.973 462.667 251.462 463.034 250.924C463.367 250.431 463.413 249.799 462.924 249.375C462.515 249.019 461.712 248.988 461.375 249.481Z" fill="#F7CC7F"/>
<path d="M456.212 249.144C455.788 247.969 455.697 247.541 455.144 246.996C454.667 246.522 453.659 246.825 453.591 247.522C453.511 248.337 453.686 248.64 454.129 249.875C454.33 250.435 454.97 250.746 455.534 250.549C456.098 250.356 456.413 249.708 456.212 249.144Z" fill="#F7CC7F"/>
<path d="M450.636 251.988C448.727 250.537 448.337 250.128 447.587 250.208C447.148 250.253 446.652 250.678 446.75 251.17C446.928 252.087 447.462 252.337 449.22 253.617C449.689 253.962 450.337 253.977 450.742 253.511C451.106 253.094 451.102 252.34 450.636 251.988Z" fill="#F7CC7F"/>
<path d="M442.962 258.64C442.208 259.038 442.511 260.341 443.326 260.447C444.106 260.549 444.409 260.424 448.201 259.731C448.788 259.625 449.269 259.197 449.224 258.557C449.186 258.011 448.636 257.428 448.045 257.534C444.11 258.242 443.716 258.238 442.962 258.64Z" fill="#F7CC7F"/>
<path d="M448.902 264.844C446.822 266.856 446.519 266.5 445.697 267.731C445.322 268.295 445.939 269.189 446.595 269.072C447.432 268.916 447.659 268.776 448.754 267.909C449.39 267.405 449.996 266.867 450.58 266.303C451.011 265.886 450.894 265.106 450.47 264.734C449.985 264.314 449.337 264.428 448.902 264.844Z" fill="#F7CC7F"/>
<path d="M267.599 18.3368L280.883 36.5716L289.678 26.9504L267.599 18.3368Z" fill="#466EB6"/>
<path d="M290.871 21.9125L289.678 26.9504L267.599 18.3368L290.871 21.9125Z" fill="#9BC1F9"/>
<path d="M289.678 28.8747L267.599 18.3368L288.121 36.5716L289.678 28.8747Z" fill="#9BC1F9"/>
<path d="M303.091 50.7269C302.928 50.7118 299.045 50.3103 294.129 47.2497C289.189 44.1739 287.341 38.8103 287.341 37.9466C287.341 37.6171 287.606 37.3519 287.936 37.3519C288.261 37.3519 288.527 37.6133 288.53 37.9353C288.583 38.511 290.163 43.3784 294.754 46.2383C299.417 49.1436 303.163 49.5375 303.201 49.5413C303.527 49.5716 303.769 49.8633 303.735 50.1928C303.708 50.5186 303.42 50.7572 303.091 50.7269ZM288.534 37.9391C288.534 37.9428 288.534 37.9428 288.534 37.9466C288.534 37.9428 288.534 37.9428 288.534 37.9391Z" fill="#F7CC7F"/>
<path d="M327.227 56.1209C320.345 54.7383 313.758 52.1967 307.655 48.5679C302.629 45.5755 298.576 41.0148 293.447 38.4845C293.152 38.3406 293.03 37.9808 293.178 37.6853C293.322 37.3899 293.682 37.2686 293.977 37.4164C299.284 40.0376 303.307 44.5944 308.269 47.5452C314.258 51.1096 320.716 53.602 327.466 54.9542C329.947 55.4505 332.886 55.6323 336.205 55.4959C336.534 55.4808 336.811 55.7383 336.826 56.0679C336.841 56.3974 336.583 56.674 336.254 56.6891C333.303 56.8065 330.133 56.7005 327.227 56.1209Z" fill="#F7CC7F"/>
<path d="M439.189 65.2989C414.235 56.1625 389.455 61.1853 383.841 76.5148C381.034 84.1815 383.553 92.9694 389.89 100.988L371.489 119.882L399.235 110.113C404.727 114.371 411.379 118.072 418.867 120.814C443.822 129.95 468.602 124.931 474.216 109.598C479.83 94.2686 464.148 74.4353 439.189 65.2989Z" fill="#FAE0B2"/>
<path d="M410.917 89.5375C410.11 98.7648 416.932 106.897 426.159 107.704C435.386 108.511 443.519 101.685 444.326 92.458C445.133 83.2307 438.311 75.0981 429.083 74.2913C419.86 73.4845 411.724 80.3103 410.917 89.5375Z" fill="#F7CC7F"/>
<path d="M436.322 94.4239C435.89 99.3557 431.542 103.007 426.61 102.575C421.678 102.144 418.03 97.7951 418.462 92.8633L436.322 94.4239Z" fill="#EFEFEF"/>
<path d="M55.9735 113.303L52.3561 113.67L51.1212 107.916L45.7652 107.799L44.1401 103.644L42.0341 104.469L44.2121 110.026L49.2879 110.136L50.572 116.121L56.0152 115.572L55.9735 113.303Z" fill="#50BFA5"/>
<path d="M439.913 153.822L434.057 146.674L429.689 151.003L427.614 148.913L434.284 142.295L440.102 149.401L445.155 144.219L450.587 150.61L456.511 146L458.322 148.325L450.17 154.67L445.008 148.594L439.913 153.822Z" fill="#F79C8D"/>
<path d="M288.902 563.113H221.826L215.996 496.663H294.731L288.902 563.113Z" fill="#F47458"/>
<path d="M255.364 502.708C275.696 502.708 292.178 500.963 292.178 498.81C292.178 496.658 275.696 494.913 255.364 494.913C235.032 494.913 218.549 496.658 218.549 498.81C218.549 500.963 235.032 502.708 255.364 502.708Z" fill="#184655"/>
<path d="M218.549 498.81C224.189 496.53 238.545 494.913 255.364 494.913C272.182 494.913 286.538 496.534 292.178 498.81C293.83 498.144 294.731 497.42 294.731 496.666C294.731 493.329 277.106 490.621 255.364 490.621C233.621 490.621 215.996 493.329 215.996 496.666C215.996 497.42 216.898 498.144 218.549 498.81Z" fill="#B75742"/>
<path d="M257.955 499.261C257.644 499.261 257.33 499.17 257.053 498.981C256.292 498.462 256.076 497.401 256.576 496.613C263.273 486.019 266.398 469.829 258.288 457.549C251.659 447.511 237.227 435.591 241.432 420.81C243.492 413.575 247.761 406.057 254.117 398.458C254.716 397.746 255.758 397.666 256.447 398.288C257.136 398.905 257.208 399.988 256.614 400.7C250.568 407.928 246.527 415.019 244.598 421.776C240.996 434.435 254.527 445.795 261.011 455.613C269.341 468.223 267.394 485.738 259.337 498.485C259.023 498.988 258.492 499.261 257.955 499.261Z" fill="#3C8F7C"/>
<path d="M266.155 434.81C266.155 434.81 257.67 443.204 259.386 455.325C259.386 455.322 267.125 451.416 266.155 434.81Z" fill="#50BFA5"/>
<path d="M273.621 432.185C273.621 432.185 260.099 440.969 259.386 455.322C259.386 455.322 274.091 447.045 273.621 432.185Z" fill="#3C8F7C"/>
<path d="M248.235 473.969C248.235 473.969 248.102 485.905 257.845 493.318C257.845 493.318 260.602 485.098 248.235 473.969Z" fill="#50BFA5"/>
<path d="M251.697 468.897C251.697 468.897 248.258 484.651 257.841 495.356C257.845 495.356 262.481 479.132 251.697 468.897Z" fill="#3C8F7C"/>
<path d="M367.013 363.902C428.032 302.883 428.032 203.952 367.013 142.933C305.994 81.9141 207.063 81.9141 146.044 142.933C85.0254 203.952 85.0254 302.883 146.044 363.902C207.063 424.92 305.994 424.92 367.013 363.902Z" fill="#9BC1F9"/>
<path d="M310.03 106.564C354.311 134.147 383.784 183.276 383.784 239.284C383.784 325.579 313.83 395.534 227.534 395.534C208.742 395.534 190.727 392.216 174.038 386.136C197.981 401.049 226.25 409.666 256.534 409.666C342.83 409.666 412.784 339.712 412.784 253.416C412.784 185.913 369.981 128.409 310.03 106.564Z" fill="#86B1F2"/>
<path d="M106.777 208.7C113.314 221.458 133.409 233.394 140.955 233.394C149.337 233.394 157.212 246.094 157.212 246.094H160.515C163.818 246.094 159.5 258.795 157.72 268.704C155.943 278.613 166.992 282.041 172.962 288.011C178.932 293.981 173.599 319.894 178.553 324.848C183.508 329.803 196.462 338.947 198.114 337.295C199.765 335.644 192.527 320.53 197.352 312.909C202.178 305.288 205.481 296.905 210.818 287.503C216.152 278.102 228.095 279.375 229.364 266.416C230.633 253.462 212.852 251.174 202.436 251.174C192.019 251.174 191.004 242.03 181.86 238.473C172.716 234.916 162.553 243.299 160.095 243.299C157.636 243.299 152.136 231.106 147.311 228.564C142.485 226.022 134.098 227.549 132.068 220.943C130.034 214.337 144.008 213.575 155.947 213.575C167.886 213.575 168.648 210.78 168.648 203.666C168.648 196.553 182.114 192.742 193.288 181.564C204.466 170.386 192.273 158.447 185.413 160.477C178.553 162.511 161.28 166.064 164.326 158.954C167.375 151.841 190.239 152.602 190.239 152.602C190.239 152.602 190.292 152.575 197.098 149.045C203.958 145.488 178.807 142.757 176.777 142.757C174.742 142.757 180.587 135.833 177.792 133.038C174.996 130.242 170.932 139.39 166.106 139.39C161.28 139.39 153.913 141.166 148.068 142.693C147.602 142.814 147.045 142.761 146.417 142.557C128.144 160.719 114.333 183.36 106.777 208.7Z" fill="#466EB6"/>
<path d="M165.852 135.079C173.22 131.269 167.121 127.204 167.121 127.204C167.121 127.204 166.114 127.166 164.496 127.136C160.466 130.079 156.583 133.208 152.86 136.511C157.33 137.344 162.102 137.019 165.852 135.079Z" fill="#466EB6"/>
<path d="M191.004 130.761C191.004 130.761 180.08 138.636 182.875 138.636C185.67 138.636 193.924 140.288 199.133 145.496C204.341 150.704 204.466 150.068 202.943 155.659C201.42 161.246 225.424 152.992 221.996 149.56C218.568 146.132 218.568 146.132 218.568 146.132C218.568 146.132 214.121 142.871 212.852 136.943C211.58 131.015 191.004 130.761 191.004 130.761Z" fill="#466EB6"/>
<path d="M230.89 118.564C230.89 118.564 210.057 119.579 210.057 124.409C210.057 129.235 210.057 129.235 210.057 129.235C210.057 129.235 220.383 129.235 222.333 134.822C224.284 140.409 224.284 140.409 224.284 140.409C224.284 140.409 230.765 147.269 229.428 156.413C228.095 165.557 228.349 170.132 235.97 170.132C243.591 170.132 251.212 151.333 260.867 148.791C270.523 146.25 272.553 141.932 274.08 130.753C275.599 119.583 230.89 118.564 230.89 118.564Z" fill="#466EB6"/>
<path d="M349.97 207.5C349.97 207.5 285.303 233.852 277.807 241.348C270.311 248.841 276.538 256.591 276.538 265.992C276.538 275.39 301.943 272.598 306.008 268.534C310.072 264.469 313.375 272.852 317.186 286.825C320.996 300.799 308.042 326.742 316.17 328.25C324.299 329.757 354.023 302.576 360.883 283.015C367.742 263.454 369.011 244.147 356.564 234.492C344.114 224.837 349.97 207.5 349.97 207.5Z" fill="#466EB6"/>
<path d="M364.788 140.742C354.451 142.045 344.061 144.132 343.432 147.272C342.17 153.575 342.163 153.625 342.163 153.625C342.163 153.625 326.667 153.625 318.03 153.625C309.394 153.625 302.788 161.5 302.788 166.325C302.788 171.151 316.886 171.28 313.458 174.708C310.03 178.136 296.311 177.628 292.883 181.06L289.455 184.488C289.455 184.488 281.197 198.333 275.864 201.382C270.53 204.431 268.75 202.651 270.53 204.431C272.307 206.208 286.534 208.496 292.379 202.655C292.379 202.655 302.731 196.049 305.716 195.541C308.701 195.034 309.083 197.257 310.989 197.89C312.894 198.526 316.705 199.666 316.705 200.75C316.705 201.829 315.879 203.799 316.451 203.799C317.023 203.799 319.182 200.306 319.182 199.735C319.182 199.163 317.341 198.466 317.341 198.466L319.818 198.719V198.212C319.818 198.212 316.39 197.64 315.564 196.814C314.739 195.988 314.42 194.719 313.659 193.958C312.898 193.197 314.928 190.019 315.754 190.019C316.58 190.019 321.405 195.481 323.629 195.481H325.852C325.852 195.481 329.727 196.371 333.03 198.53C336.307 200.674 336.333 200.689 336.333 200.689C336.333 200.689 343.701 206.594 343.701 208.947C343.701 211.295 347.341 228.216 351.746 227.291C356.114 226.375 366.144 218.238 371.902 215.193C377.659 212.144 379.523 211.636 392.224 212.992C396.519 213.45 402.193 214.587 408.155 215.447C400.913 186.503 385.617 160.761 364.788 140.742Z" fill="#466EB6"/>
<path d="M164.5 138.822C164.394 138.822 164.292 138.776 164.223 138.685C164.106 138.534 164.136 138.318 164.288 138.2C164.333 138.166 168.826 134.784 175.034 137.795C175.208 137.878 175.28 138.087 175.193 138.257C175.11 138.431 174.902 138.503 174.731 138.416C168.92 135.598 164.879 138.617 164.712 138.746C164.648 138.799 164.576 138.822 164.5 138.822Z" fill="#B75742"/>
<path d="M167.519 155.488C163.598 156.121 163.83 156.761 163.326 156.829C162.731 156.909 155.655 153.367 155.655 153.367C155.655 153.367 134.727 143.068 133.617 142.469L118.511 123.519L106.871 128.871C106.871 128.871 123.86 149.019 124.936 149.905C126.011 150.791 156.015 161.284 158.625 162.295C158.625 162.295 161.258 164.693 162.958 166.14C164.663 167.587 166.936 168.162 167.481 168.492C167.561 168.541 169.439 169.53 172.091 170.106C174.379 170.602 172.473 169.053 172.473 169.053C172.473 169.053 168.428 167.352 168.629 167.041C168.784 166.803 170.932 167.871 173.455 168.447C174.102 168.594 174.746 168.738 175.333 168.867C176.883 169.2 177.561 168.318 176.008 167.7C175.458 167.484 174.534 167.144 173.841 167C173.091 166.844 172.458 166.45 171.852 166.219C170.648 165.761 169.761 165.443 169.811 165.401C169.871 165.348 169.701 165.083 170.398 165.216C171.231 165.378 172.917 166.128 174.167 166.269C174.875 166.348 176.341 166.609 176.341 166.609C176.341 166.609 178.936 166.856 178.955 166.496C178.992 165.704 177.394 165.261 176.413 165.28C175.795 164.966 174.242 164.738 174.242 164.738C174.242 164.738 171.231 163.553 171.405 163.109C171.473 162.931 173.299 163.204 175.231 163.337C177.277 163.477 178.758 163.477 178.867 163.083C179.042 162.458 177.413 162.219 177.413 162.219C177.413 162.219 175.977 162.011 175.508 161.905C174.955 161.78 173.341 161.276 173.341 161.276C173.341 161.276 167.803 159.25 168.004 158.841C168.205 158.431 169.117 157.579 169.508 157.583C169.898 157.587 170.595 157.973 170.989 157.977C171.379 157.981 172.22 157.905 172.277 157.412C172.333 156.924 170.167 155.909 170.167 155.909C170.167 155.909 168.652 155.306 167.519 155.488Z" fill="#F8A492"/>
<path d="M129.023 135.257C129.023 135.257 125.254 138.67 123.686 139.795C122.383 140.731 116.034 143.78 116.034 143.78C116.034 143.78 109.716 134.136 106.955 129.299C103.602 123.431 101.284 114.704 102.076 114.466C104.299 113.803 107.356 113.394 110.182 114.689C119.958 119.159 129.023 135.257 129.023 135.257Z" fill="#3C8F7C"/>
<path d="M163.86 160.53C165.538 160.795 167.25 160.477 167.996 158.947C168.159 160.761 165.402 161.663 163.86 160.53Z" fill="#FE875E"/>
<path d="M67.3409 282.356C67.3409 282.356 66.9243 289.742 66.9205 289.757C66.7652 290.697 66.1629 293.011 66.1629 293.863C66.1629 297.064 80.4091 291.144 77.2159 289.727C76.928 289.598 75.4129 288.628 75.3182 287.538C75.1705 285.859 74.7992 282.462 74.7992 282.462L67.3409 282.356Z" fill="#F7A491"/>
<path d="M77.1818 289.693C77.1818 289.693 73.8371 290.67 72.125 290.916C70.4129 291.162 68.1515 289.098 66.9432 289.655C65.6099 290.268 65.6629 295.787 65.6629 295.787C65.6629 295.787 83.6023 297.359 88.644 295.734C90.6364 295.09 84.019 291.977 77.1818 289.693Z" fill="#184655"/>
<path d="M44.4432 281.909C44.4432 281.909 44.0265 289.295 44.0227 289.31C43.8674 290.25 43.2652 292.564 43.2652 293.416C43.2652 296.617 57.5114 290.697 54.3182 289.28C54.0303 289.151 52.0644 287.454 51.9697 286.363C51.822 284.685 51.9015 282.011 51.9015 282.011L44.4432 281.909Z" fill="#F7A491"/>
<path d="M54.2841 289.25C54.2841 289.25 50.9394 290.231 49.2273 290.473C47.5152 290.719 45.2538 288.655 44.0455 289.212C42.7121 289.825 42.6591 295.344 42.6591 295.344C42.6591 295.344 60.4697 296.075 65.7462 295.291C67.8182 294.981 61.1212 291.53 54.2841 289.25Z" fill="#184655"/>
<path d="M47.6705 165.424C47.6705 165.424 45.2576 177.882 46.2387 187.325C47.2235 196.772 47.2993 230.325 47.2993 230.325L43.5455 284.015L52.4546 284.223C52.4546 284.223 63.0189 230.56 62.822 231.939C62.625 233.318 66.3636 194.155 66.3636 194.155L53.7689 164.242L47.6705 165.424Z" fill="#184655"/>
<path d="M51.0492 157.378C51.0492 157.378 40.1099 168.867 44.178 181.416C45.8106 186.458 61.0568 234.606 61.2538 238.545C61.4508 242.481 66.4091 285.984 66.4091 285.984L76.7689 285.674L79.0114 237.306L76.0492 172.14L69.7614 161.151L51.0492 157.378Z" fill="#355389"/>
<path d="M117.458 119.988C113.879 116.003 106.08 110.333 106.08 110.333C106.08 110.333 101.436 106.378 99.5417 105.727C96.7538 104.769 91.9811 102.212 85.0796 112.647C80.1402 120.113 48.9659 158.772 43.8485 160.072L77.2652 176.015C78.1818 168.401 94.697 154.015 97.072 151.333C102.386 145.329 120.848 123.761 117.458 119.988Z" fill="#50BFA5"/>
<path d="M115.898 103.791L105.489 109.867C105.489 109.867 105.197 118.727 108.598 121.03C111.455 122.962 113.629 118.325 113.629 118.325C113.629 118.325 117.5 112.977 120.439 111.31C123.379 109.644 115.898 103.791 115.898 103.791Z" fill="#F7A491"/>
<path d="M114.152 107.689C114.542 109.537 115.451 112.212 116.852 114.412C118 113.174 119.288 111.962 120.436 111.31C121.792 110.541 120.928 108.882 119.606 107.314C117.739 105.375 115.894 103.787 115.894 103.787L113.894 104.954C113.769 105.716 114.023 107.075 114.152 107.689Z" fill="#F47458"/>
<path d="M121.322 88.5603C121.148 88.3444 112.591 98.9656 113.644 103.947C114.701 108.928 119.871 113.473 123.466 112.223C127.443 110.841 134.837 98.3368 132.186 92.2648C129.534 86.1966 121.322 88.5603 121.322 88.5603Z" fill="#F7A491"/>
<path d="M130.689 85.2118C126.958 83.1436 120.875 82.5489 116.33 84.9239C110.739 87.8406 109.466 95.1853 111.216 99.6625C112.966 104.14 110.962 106.674 110.962 106.674L113.928 104.947C113.928 104.947 115.659 102.25 115.886 100.102C116.114 97.9542 119.258 98.333 120.792 97.3595C121.973 96.6095 123.481 94.1701 125.394 92.9049C125.394 92.9049 130.208 92.314 132.576 93.6398C136.606 95.8974 136.034 88.1739 130.689 85.2118Z" fill="#13375B"/>
<path d="M147.216 171.132C143.129 170.64 143.133 170.969 142.61 170.89C141.992 170.799 135.636 165.344 135.636 165.344C135.636 165.344 116.799 149.394 115.814 148.496L105.481 125.662L91.8371 127.689C91.8371 127.689 104.553 154.534 105.443 155.7C106.333 156.871 134.273 173.159 136.682 174.882C136.682 174.882 138.811 177.962 140.208 179.852C141.606 181.742 143.777 182.947 144.25 183.424C144.322 183.496 145.996 184.988 148.542 186.299C150.739 187.428 149.155 185.382 149.155 185.382C149.155 185.382 145.451 182.579 145.72 182.337C145.924 182.147 147.86 183.795 150.277 185.072C150.898 185.401 151.511 185.719 152.08 186.011C153.568 186.776 154.447 186.106 153.011 185.068C152.504 184.7 151.652 184.109 150.981 183.772C150.258 183.409 149.708 182.848 149.148 182.45C148.034 181.662 147.273 181.151 147.33 181.121C147.405 181.087 147.227 180.734 147.898 181.06C148.705 181.454 150.235 182.659 151.462 183.151C152.159 183.428 153.58 184.098 153.58 184.098C153.58 184.098 155.678 184.367 155.758 184.246C156.186 183.591 154.936 183.083 153.943 182.825C153.39 182.344 151.875 181.681 151.875 181.681C151.875 181.681 149.098 179.674 149.371 179.291C149.477 179.144 151.11 180.257 153.114 181.007C155.405 181.863 156.504 181.397 156.708 181.03C157.019 180.469 155.621 180.125 155.621 180.125C155.621 180.125 153.701 179.659 153.25 179.424C152.723 179.147 146.587 174.511 146.879 174.17C147.17 173.829 148.114 173.825 148.508 173.939C148.902 174.053 149.595 174.333 149.989 174.447C150.383 174.56 151.068 174.106 151.235 173.644C151.402 173.181 149.932 172.348 149.932 172.348C149.932 172.348 148.398 171.272 147.216 171.132Z" fill="#F8A492"/>
<path d="M94.0038 138.787C94.0038 138.787 97.9281 137.541 100.447 136.394C102.133 135.625 109.489 131.973 109.489 131.973C109.489 131.973 106.318 118.636 104.174 113.841C96.3068 96.242 87.3674 108.378 86.1553 111.208C83.4432 117.534 94.0038 138.787 94.0038 138.787Z" fill="#96D9C9"/>
<path d="M188.981 75.8179C186.682 88.0262 179.345 113.697 167.375 113.295C166.792 96.5489 165.973 82.1588 164.822 77.6133C164.561 76.6701 164.239 75.7573 163.871 74.8785C171.326 75.5262 175.803 64.1626 177.519 56.1588C175.992 61.2383 172.527 69.3747 167.992 72.0944C165.417 73.6474 163.527 72.8633 162.811 72.6474C158.485 64.5906 150.311 59.2004 146.364 54.405C144.795 52.477 144.523 47.6474 144.735 42.7004H144.303C144.106 45.3217 144.053 47.8595 144.239 50.0414C144.848 56.5489 148.205 56.9618 155.898 65.7004C162.057 72.5944 164.208 76.3103 164.424 102.727C163.955 102.825 163.356 102.92 162.72 102.947C156.413 103.06 150.614 96.9391 147.405 91.5792C149.943 96.4504 154.443 101.969 159.72 103.644C160.686 103.943 161.693 104.121 162.72 104.163C163.28 104.174 163.886 104.132 164.432 104.064C164.568 106.382 165.277 151.765 164.652 181.083C166.511 181.106 166.174 180.235 168 180.382C167.928 172.439 168.333 142.742 167.489 116.682C181.447 116.113 187.307 90.2914 188.981 75.8179Z" fill="#184655"/>
<path d="M173.451 180.477H174.886V124.238C174.886 123.844 174.564 123.522 174.17 123.522C173.773 123.522 173.455 123.844 173.455 124.238V180.477H173.451Z" fill="#F7CC7F"/>
<path d="M156.758 182.496C156.758 182.496 163.352 174.568 168.663 176.825C173.97 179.083 174.841 175.007 177.617 176.348C180.394 177.693 183.867 181.083 183.867 181.083L156.758 182.496Z" fill="#355389"/>
<path d="M169.496 140.128C167.985 140.128 166.235 139.784 164.341 138.784C164.17 138.693 164.106 138.485 164.197 138.314C164.288 138.144 164.496 138.079 164.667 138.17C170.379 141.181 174.496 137.977 174.67 137.837C174.818 137.716 175.038 137.742 175.159 137.89C175.28 138.038 175.254 138.257 175.106 138.378C175.068 138.401 172.871 140.128 169.496 140.128Z" fill="#FAE0B2"/>
<path d="M164.731 138.863L164.114 138.5C163.648 138.227 159.564 135.761 159.424 133.867C159.39 133.416 159.576 133.019 159.951 132.716C160.629 132.17 161.288 132.019 161.913 132.269C163.871 133.045 164.561 137.636 164.633 138.155L164.731 138.863ZM161.322 132.848C161.034 132.848 160.727 132.985 160.386 133.257C160.186 133.416 160.102 133.594 160.117 133.818C160.197 134.92 162.424 136.594 163.818 137.5C163.511 135.928 162.792 133.363 161.655 132.913C161.549 132.867 161.436 132.848 161.322 132.848Z" fill="#FAE0B2"/>
<path d="M160.36 143.068C160.114 143.068 159.769 142.973 159.511 142.541C159.299 142.185 159.261 141.795 159.402 141.409C159.958 139.897 163.224 138.761 163.591 138.636L164.439 138.352L164.004 139.136C163.64 139.788 161.761 143.045 160.375 143.068C160.371 143.068 160.367 143.068 160.36 143.068ZM162.894 139.647C161.795 140.113 160.337 140.882 160.053 141.647C159.985 141.837 160 142.007 160.106 142.181C160.223 142.375 160.318 142.371 160.364 142.371C160.962 142.363 162.064 140.966 162.894 139.647Z" fill="#FAE0B2"/>
<path d="M165.038 138.348C165.038 138.678 164.773 138.943 164.443 138.943C164.114 138.943 163.848 138.678 163.848 138.348C163.848 138.019 164.114 137.753 164.443 137.753C164.773 137.753 165.038 138.019 165.038 138.348Z" fill="#FAE0B2"/>
<path d="M37.053 563.113H42.6515V265.738C42.6515 264.193 41.3977 262.939 39.8523 262.939C38.3068 262.939 37.053 264.193 37.053 265.738V563.113Z" fill="#F47458"/>
<path d="M74.8826 563.113H80.4811V260.704C80.4811 259.159 79.2273 257.905 77.6818 257.905C76.1364 257.905 74.8826 259.159 74.8826 260.704V563.113Z" fill="#F47458"/>
<path d="M79.5795 295.178H41.0341V298.534H79.5795V295.178Z" fill="#F47458"/>
<path d="M79.5795 340.144H41.0341V343.5H79.5795V340.144Z" fill="#F47458"/>
<path d="M79.5795 385.11H41.0341V388.466H79.5795V385.11Z" fill="#F47458"/>
<path d="M79.5795 430.079H41.0341V433.435H79.5795V430.079Z" fill="#F47458"/>
<path d="M77.8712 481.913H39.3258V485.269H77.8712V481.913Z" fill="#F47458"/>
<path d="M77.8712 522.856H39.3258V526.212H77.8712V522.856Z" fill="#F47458"/>
<path d="M206.917 23.7421L178.826 29.8595C177.163 30.2231 175.523 29.1663 175.159 27.5034L171.318 9.85571C170.955 8.19283 172.011 6.55269 173.674 6.18905L201.765 0.0716276C203.428 -0.292009 205.068 0.76481 205.432 2.42769L209.276 20.0754C209.636 21.7383 208.58 23.3784 206.917 23.7421Z" fill="#F47458"/>
<path d="M174.261 18.3368L166.439 30.9731L178.439 25.8103L174.261 18.3368Z" fill="#F47458"/>
<path d="M183.091 14.8102L186.136 14.0678C186.136 14.0678 189.337 10.3216 189.227 9.27995C189.117 8.23828 188 6.22691 188.534 5.82539C189.072 5.42009 190.288 4.92009 191.39 6.08676C192.189 6.93145 192.511 10.6057 192.924 10.7648C193.182 10.8633 194.943 10.4845 196.227 10.189C197.072 9.99207 197.951 10.2837 198.515 10.939V10.9428C198.898 11.386 198.917 12.0375 198.561 12.5034L198.008 13.2269L198.705 13.8178C199.223 14.2572 199.292 15.0337 198.852 15.5565L198.405 16.0868L198.867 16.4239C199.466 16.8557 199.553 17.7118 199.057 18.2572L198.655 18.7004L198.758 18.8178C199.182 19.3027 199.163 20.0262 198.72 20.4921L198.311 20.9201L190.205 22.9012C189.447 23.0868 188.655 23.1171 187.886 22.9845L184.92 23.208C184.602 23.2307 184.314 23.0186 184.242 22.708L182.617 15.5868C182.538 15.2383 182.75 14.8936 183.091 14.8102Z" fill="white"/>
<path d="M351.481 61.602L354.235 61.6853L355.489 59.1739L358.572 59.4845L359.08 56.3974L362.58 56.5944L363.398 53.8103L366.795 53.4504L366.936 54.7383L364.398 55.0073L363.53 57.9467L360.167 57.7535L359.648 60.8936L356.25 60.5489L355.027 62.9997L352.473 62.9239L352.004 64.7042L350.754 64.3709L351.481 61.602Z" fill="#50BFA5"/>
<path d="M347.333 84.2875C346.867 87.9466 350.682 90.8519 354.072 90.6246C357.818 90.3708 360.996 87.2988 361.545 83.617C362.14 79.6322 359.742 76.4428 356.038 76.1511C352.432 75.867 350.125 79.0753 351.167 82.3178C351.913 84.6397 354.034 85.5072 355.102 84.867C355.936 84.367 355.886 83.1094 354.875 82.886C354.47 82.7988 354.057 83.0223 353.841 83.3329C352.958 82.9844 352.121 81.3784 352.689 79.6435C353.417 77.4276 356.216 77.3026 357.958 78.3329C360.174 79.6473 360.519 82.4807 359.708 84.7344C358.856 87.1019 356.53 88.9693 353.996 89.1511C351.125 89.3557 348.602 87.1549 348.371 84.2988C348.314 83.617 347.417 83.6322 347.333 84.2875Z" fill="#86B1F2"/>
<path d="M185.587 314.886C185.11 315.022 177.356 316.716 177.356 318.825C177.356 320.935 181.47 326.704 181.47 329.026C181.47 331.348 180.731 335.428 182.068 336.765C183.405 338.102 195.242 332.962 196.136 331.276C197.03 329.591 190.58 327.337 191 322.341C191.424 317.348 193.394 312.636 185.587 314.886Z" fill="#FAE0B2"/>
<path d="M125.561 392.878C125.561 392.878 125.064 391.67 124.932 391.257C124.777 390.772 124.424 389.284 124.424 389.284C124.424 389.284 123.451 384.049 123.856 384.007C124.261 383.969 124.947 384.776 125.125 385.079C125.303 385.382 125.538 385.719 125.716 386.022C125.894 386.325 126.273 386.447 126.674 386.261C127.08 386.075 126.644 384.719 126.398 384.28C125.629 382.909 122.811 379.651 122.527 379.295C122.193 378.871 122.227 369.488 121.977 366.272C121.727 360.996 121.746 355.56 121.72 355L127.428 333.064L119.943 327.909C119.943 327.909 113.258 352.166 113.064 353.416C112.973 354.011 114.53 366.197 114.534 366.197C115.689 372.151 116.723 377.394 116.894 378.405C116.894 378.405 116.561 381.564 116.223 383.568C115.886 385.568 116.409 387.541 116.402 388.117C116.402 388.2 116.273 390.185 117.045 392.507C117.712 394.507 118.03 392.303 118.03 392.303C118.03 392.303 117.489 388.375 117.818 388.382C118.072 388.39 118.235 390.553 118.947 392.772C119.129 393.344 119.314 393.905 119.485 394.424C119.936 395.776 120.928 395.886 120.689 394.394C120.606 393.867 120.443 392.996 120.235 392.39C120.011 391.734 120.027 391.064 119.924 390.484C119.723 389.337 119.564 388.503 119.617 388.519C119.686 388.541 119.814 388.284 120.027 388.882C120.284 389.606 120.477 391.257 120.943 392.291C121.205 392.875 121.678 394.132 121.678 394.132C121.678 394.132 122.674 396.083 122.803 396.056C123.5 395.905 123.201 394.306 122.735 393.56C122.693 392.935 122.159 391.625 122.159 391.625C122.159 391.625 121.693 388.738 122.114 388.662C122.462 388.602 124.962 395.287 125.648 395.087C126.22 394.924 125.561 392.878 125.561 392.878Z" fill="#F7A491"/>
<path d="M125.758 345.488C125.758 345.488 121.705 345.515 119.477 345.125C116.511 344.606 114.519 344.049 114.519 344.049C114.519 344.049 115.223 330.86 117.602 322.507C118.587 319.057 119.894 317.246 122.045 316.492C122.061 316.488 127.28 318.655 128.428 325.863C128.701 327.557 125.758 345.488 125.758 345.488Z" fill="#B75742"/>
<path d="M153.023 484.954C152.663 482.382 152.549 478.435 152.587 473.875H143.557C144.496 480.329 145.231 485.352 145.231 485.352L145.008 487.394L145 493.416H164.758C164.758 493.416 160.564 491.541 154.701 487.841C154.265 487.568 153.265 486.693 153.023 484.954Z" fill="#F7A491"/>
<path d="M114.511 483.439L117.136 475.939H110.261C109.905 480.753 109.769 484.003 109.769 484.003L108.023 488.935L106.246 494.795C106.246 494.795 112.095 496.299 115.159 494.609L114.818 488.776L114.511 483.439Z" fill="#F7A491"/>
<path d="M150.17 320.39C147.788 317.14 137.951 307.727 136.856 307.746C133.67 307.803 123.216 307.806 121.17 308.841L121.269 326.761C121.602 328.265 128.822 351.693 128.402 356.822L128.451 356.871C134.5 362.697 144.042 362.238 149.576 355.856C149.576 355.856 149.553 348.75 150.405 342.265C151.739 332.113 156.091 328.462 150.17 320.39Z" fill="#F47458"/>
<path d="M133.652 297.659C133.652 297.659 133.928 304.269 133.333 306.776C132.739 309.284 131.943 309.473 137.057 310.234C139.064 310.534 141 310.981 141 310.981C141 310.981 140.477 307.299 140.398 305.746C140.269 303.185 140.989 295.284 140.989 295.284L133.652 297.659Z" fill="#F7A491"/>
<path d="M137.545 300.95C138.598 301.519 139.58 301.852 140.485 301.992C140.659 298.871 140.985 295.288 140.985 295.288L133.989 297.553C134.799 298.901 135.955 300.094 137.545 300.95Z" fill="#F47458"/>
<path d="M114.818 488.753C112.121 489.95 109.216 489.227 108.045 488.848L107.659 489.89L106.17 494.837C106.17 494.837 112.091 496.303 115.159 494.613L114.818 488.753Z" fill="#13375B"/>
<path d="M144.799 494.913H165.337C166.098 494.844 166.28 494.227 166.019 493.844C165.477 493.06 163.08 492.485 160.386 491.231C155.663 491.727 145.75 488.477 145.004 487.382C144.572 489.568 144.375 494.818 144.799 494.913Z" fill="#13375B"/>
<path d="M150.348 329.242L157.072 344.261C161.341 340.147 171.689 332.492 174.511 330.325C178.242 326.307 181.197 325.291 182.64 324.947C183.417 324.761 186.701 324.17 186.701 324.17C186.701 324.17 190.527 325.197 190.455 325.466C190.223 326.371 186.652 325.322 186.652 325.322C186.652 325.322 184.549 325.882 184.254 326.007C183.519 326.314 183.966 326.375 183.966 326.375C184.545 326.212 187.155 326.204 187.833 326.14C187.833 326.14 192.292 325.606 192.292 326.526C192.292 327.212 191.383 326.954 189.83 327.079C188.883 327.155 187.462 327.503 186.617 327.636C185.136 327.863 183.705 328.753 184.25 328.738C184.648 328.727 185.833 328.477 186.723 328.341C188.886 328.004 191.394 327.363 191.678 327.67C192.295 328.341 185.254 330.011 184.356 330.886C184.114 331.121 188.936 329.276 188.939 329.42C188.966 330.091 182.341 333.253 182.341 333.253L179.235 333.757L179.087 333.848V333.852C179.087 333.852 162.125 356.075 153.841 354.985C146.777 354.057 139.386 331.064 139.515 331.132L150.348 329.242Z" fill="#F8A492"/>
<path d="M132.519 316.507C131.038 322.579 138.928 336.121 138.928 336.121C138.928 336.121 150.167 330.833 152.144 328.557C152.144 328.557 144.508 315.416 144.008 314.617C141.742 311 138.667 310.996 136.659 311.231C135.049 311.42 132.519 316.507 132.519 316.507Z" fill="#B75742"/>
<path d="M132.333 318.371C137.534 313.844 139.496 303.863 136.102 297.92C138.458 294.863 139.97 295.409 139.443 291.602C138.405 284.098 148.879 279.579 141.057 277.583C133.152 276.004 126.576 280.844 122.958 285.655C121.33 287.822 119.303 289.697 116.89 291.015C112.114 293.625 109.595 299.89 112.133 306.424C108.307 308.564 104.97 314.75 107.5 319.886C108.106 321.117 109.333 322.56 109.371 322.916C109.299 322.481 105.811 333.935 118.841 337.837C132.144 341.814 134.883 329.083 132.333 318.371Z" fill="#184655"/>
<path d="M140.011 291.322C140.011 292.969 139.394 294.306 138.633 294.306C137.871 294.306 137.254 292.969 137.254 291.322C137.254 289.67 137.871 288.337 138.633 288.337C139.394 288.337 140.011 289.67 140.011 291.322Z" fill="#F7A491"/>
<path d="M128.53 285.466C126.992 291.795 135.322 296.394 141.92 296.56C146.208 296.67 148.178 296.231 148.871 291.723C149.996 284.416 146.977 279.958 142.746 278.117C137.288 275.738 129.799 280.242 128.53 285.466Z" fill="#184655"/>
<path d="M138.22 281.208C138.22 281.208 135.318 282.182 133.773 285.102C132.227 288.022 132.996 297.375 139.428 300.458C145.86 303.541 148.818 296.538 148.352 291.371C147.886 286.2 146.023 279.439 138.22 281.208Z" fill="#F7A491"/>
<path d="M131.489 292.178C130.538 287.344 130.909 283.681 134.352 281.912C137.795 280.144 140.739 278.39 143.822 281.568L144.519 281.958C144.519 281.958 138.705 283.56 138.379 286.64C138.053 289.719 134.962 293.378 135.439 294.894C135.917 296.405 136.466 299.424 136.466 299.424L135.193 298.378C135.189 298.382 132.439 297.011 131.489 292.178Z" fill="#184655"/>
<path d="M137.481 290.329C137.962 291.663 137.599 293.003 136.67 293.322C135.742 293.64 134.598 292.814 134.121 291.481C133.64 290.147 134.004 288.807 134.932 288.488C135.86 288.17 137 288.992 137.481 290.329Z" fill="#F7A491"/>
<path d="M143.242 357.166L131.205 442.545L120.242 481.913H108.318C108.318 481.913 111.087 450.197 117.019 438.962C117.019 438.962 119.61 408.856 122.201 390.443C122.587 387.689 120.67 380.545 121.17 378.7C125.015 364.507 128.402 356.825 128.402 356.825L143.242 357.166Z" fill="#355389"/>
<path d="M135.799 394.083L138.583 426.882C138.583 426.882 135.735 445.625 137.689 458.064C139.644 470.5 142.231 481.916 142.231 481.916H153.193L155.371 419.981C155.371 419.981 159.583 386.325 158.125 377.2C156.667 368.075 149.568 355.863 149.568 355.863L132.326 356.651C132.326 356.651 127.652 373.359 128.439 378.966C129.034 383.121 135.799 394.083 135.799 394.083Z" fill="#466EB6"/>
<path d="M188.402 316.257C188.402 316.549 188.167 316.784 187.875 316.784C187.583 316.784 187.348 316.549 187.348 316.257C187.348 315.966 187.583 315.731 187.875 315.731C188.163 315.731 188.402 315.966 188.402 316.257Z" fill="#F7CC7F"/>
<path d="M190.019 320.962C190.019 321.337 189.818 321.644 189.572 321.644C189.326 321.644 189.125 321.341 189.125 320.962C189.125 320.587 189.326 320.28 189.572 320.28C189.818 320.28 190.019 320.583 190.019 320.962Z" fill="#F7CC7F"/>
<path d="M181.201 318.708C181.201 318.981 180.981 319.2 180.708 319.2C180.436 319.2 180.216 318.981 180.216 318.708C180.216 318.435 180.436 318.216 180.708 318.216C180.981 318.216 181.201 318.435 181.201 318.708Z" fill="#F7CC7F"/>
<path d="M184.576 317.5C184.576 317.894 184.333 318.215 184.038 318.215C183.739 318.215 183.5 317.894 183.5 317.5C183.5 317.106 183.742 316.784 184.038 316.784C184.337 316.787 184.576 317.106 184.576 317.5Z" fill="#F7CC7F"/>
<path d="M187.545 494.913H94.1477V499.738H187.545V494.913Z" fill="#F7CC7F"/>
<path d="M156.902 522.894H95.8371V527.113H156.902V522.894Z" fill="#F7CC7F"/>
<path d="M178.379 497.322H174.439V563.113H178.379V497.322Z" fill="#F7CC7F"/>
<path d="M122.663 497.322H118.723V563.113H122.663V497.322Z" fill="#F7CC7F"/>
<path d="M146.42 563.113L167.64 497.89L164.163 496.757L142.572 563.113H146.42Z" fill="#F7CC7F"/>
<path d="M86.7197 563.113L104.871 497.746L101.349 496.769L82.9243 563.113H86.7197Z" fill="#F7CC7F"/>
<path d="M574.822 566.988H1.8144C0.810609 566.988 0 566.174 0 565.174V564.928C0 563.924 0.814397 563.113 1.8144 563.113H574.818C575.822 563.113 576.633 563.928 576.633 564.928V565.174C576.636 566.178 575.822 566.988 574.822 566.988Z" fill="#13375B"/>
<path d="M382.587 379.632C382.379 374.549 383.121 369.526 385.386 364.795C387.337 360.723 392.159 358.413 396.557 358.405C410.519 358.386 412.295 376.916 421.186 384.064C423.902 386.25 426.936 388.026 429.508 390.382C438.996 399.079 434.723 415.178 426.008 422.799C419.962 428.091 410.458 431.094 403.004 426.958C399.114 424.799 396.159 421.212 394.057 417.28C391.072 411.7 389.144 405.261 387.023 399.314C384.761 392.981 382.867 386.39 382.587 379.632Z" fill="#184655"/>
<path d="M412.534 381.731C412.534 381.731 422.792 363.348 425.284 359.439C427.78 355.53 434.28 340.004 434.511 339.39C434.742 338.776 430.034 331.428 431.087 331.178C432.14 330.924 433.299 335.053 434.42 334.56C435.542 334.068 438.818 324.136 439.455 324.629C440.652 325.549 437.689 330.791 438.326 331.121C438.962 331.451 440.894 325.356 442.144 325.538C443.394 325.716 439.765 331.125 440.114 331.602C440.462 332.079 444.235 326.985 444.917 328.072C445.288 328.663 441.451 332.519 442.186 332.879C442.924 333.238 446.337 330.75 446.697 331.469C447.057 332.189 443.542 333.17 442.489 335.106C441.436 337.041 439.644 337.879 438.902 341.462C438.159 345.045 437.045 358.019 433.235 364.488C429.424 370.958 421.042 385.284 421.042 385.284L412.534 381.731Z" fill="#F79C8D"/>
<path d="M358.265 449.379L374.212 437.216C374.212 437.216 375.818 425.867 377.966 415.799C380.655 416.56 383.083 418.67 385.777 419.405L381.723 441.958L360.826 452.738L354.924 460.326L353.583 452.538L358.265 449.379Z" fill="#F48C7F"/>
<path d="M380.307 404.254C384.667 391.023 389.545 391.587 389.545 391.587L385.773 419.405C383.08 418.67 379.572 417.03 376.883 416.269C377.773 412.083 379.231 407.511 380.307 404.254Z" fill="#355389"/>
<path d="M426.235 543.325C426.235 543.325 427.22 550.166 428.913 552.371C429.481 553.113 430.519 554.049 431.201 555.386C432.261 557.469 431.674 560.572 430.894 562.28C430.492 563.159 430.92 563.155 430.008 563.435C427.299 564.272 424.42 562.863 423.269 560.265C422.625 558.814 422.061 556.875 421.947 554.435C421.659 548.227 419.731 545.068 419.731 545.068L426.235 543.325Z" fill="#F7A491"/>
<path d="M396.625 546.45C396.625 546.45 396.019 554.163 396.511 556.67C396.777 558.011 398.246 560.776 397.572 562.038C396.898 563.303 396.125 563.617 396.125 563.617L378.648 563.897C377.697 563.913 378.326 563.299 379.091 562.735C380.349 561.806 381.36 561.197 385.375 559.25C385.636 559.125 386.591 558.515 386.936 558.303C387.807 557.769 388.682 556.932 389.436 556.091C390.689 554.689 390.799 547.897 390.799 547.897L396.625 546.45Z" fill="#F7A491"/>
<path d="M382.966 443.939C382.966 443.939 380.765 456.462 382.208 464.67C383.652 472.879 390.591 548.969 390.591 548.969L398.299 549.405C398.299 549.405 399.913 517.621 399.625 513.2C399.337 508.78 397.049 501.382 397.049 501.382L397.818 475.719L388.091 442.007L382.966 443.939Z" fill="#3C8F7C"/>
<path d="M405.621 441.306C405.621 441.306 411.689 450.462 413.136 458.041C414.58 465.617 412.076 488.905 414.856 498.837C416.36 504.212 422.064 512.515 422.932 519.458C423.799 526.405 427.201 544.598 427.201 544.598L419.496 546.128L401.591 500.689L387.545 459.617L383.947 438.466L405.621 441.306Z" fill="#50BFA5"/>
<path d="M400.708 389.212C400.708 389.212 408.742 388.701 411.924 392.174C415.102 395.648 404.871 423.121 404.295 427.542C403.716 431.962 407.242 443.716 407.242 443.716C407.242 443.716 388.364 447.523 382.97 443.943C382.97 443.943 382.39 412.159 382.97 409C383.549 405.841 388.364 393 389.523 391.739C390.674 390.473 400.708 389.212 400.708 389.212Z" fill="#466EB6"/>
<path d="M398.03 378.447C398.03 378.447 398.072 378.685 398.148 379.087C398.508 381.022 399.886 387.447 400.818 389.212C401.943 391.344 396.962 398.151 392.167 397.322C390.739 397.076 393.375 391.068 393.246 390.432C393.004 389.212 392.674 387.553 392.341 385.848C392.152 384.886 391.958 383.913 391.78 382.996C391.269 380.394 390.849 378.265 390.849 378.265L398.03 378.447Z" fill="#F7A491"/>
<path d="M398.148 379.091C398.072 378.685 398.03 378.45 398.03 378.45L390.845 378.272C390.845 378.272 391.265 380.401 391.777 383.004C391.955 383.913 392.148 384.882 392.337 385.841C393.447 385.678 394.606 385.136 395.769 384.117C397.038 383.004 397.867 381.67 398.367 380.242C398.277 379.78 398.205 379.39 398.148 379.091Z" fill="#F47458"/>
<path d="M393.197 362.075C393.197 362.075 396.583 361.681 398.708 364.435C400.833 367.189 403.121 375.7 397.845 380.325C392.568 384.95 387.36 379.716 386.587 374.163C385.814 368.61 385.511 361.875 393.197 362.075Z" fill="#F7A491"/>
<path d="M385.023 374.083C385.652 375.31 386.708 375.988 387.383 375.598C388.057 375.208 388.091 373.901 387.462 372.674C386.833 371.447 385.777 370.769 385.102 371.159C384.432 371.545 384.394 372.856 385.023 374.083Z" fill="#F7A491"/>
<path d="M392.818 361.166C392.818 361.166 397.345 369.261 400.58 369.636C403.818 370.011 404.242 374.31 404.242 374.31C404.242 374.31 403.083 364.401 399.879 362.488C396.674 360.576 392.818 361.166 392.818 361.166Z" fill="#184655"/>
<path d="M422.742 558.901C426.939 559.67 429.735 557.208 431.189 555.363C432.258 557.45 432.777 560.568 431.992 562.28C431.299 563.791 429.28 563.746 427.689 563.806C426.008 563.871 424.705 562.931 423.871 561.466C423.481 560.78 423.08 559.928 422.742 558.901Z" fill="#B75742"/>
<path d="M386.939 558.303C391.561 559.492 394.977 558.682 396.89 557.913C397.383 559.314 398.038 561.068 397.689 562.083C397.265 563.322 396.663 563.602 396.129 563.617C391.905 563.727 380.663 563.879 377.443 563.92C376.992 563.928 376.746 563.397 377.034 563.053C377.833 562.098 386.595 558.515 386.939 558.303Z" fill="#B75742"/>
<path d="M399.731 371.666C399.47 373.102 399.996 374.42 400.913 374.61C401.83 374.799 402.784 373.788 403.049 372.348C403.314 370.913 402.784 369.591 401.867 369.405C400.951 369.219 399.992 370.231 399.731 371.666Z" fill="#F7A491"/>
<path d="M415.371 375.772C415.371 375.772 404.027 388 402.341 392.928C400.655 397.856 403.985 404.905 408.583 405.212C413.182 405.519 423.421 383.511 423.421 383.511L415.371 375.772Z" fill="#466EB6"/>
<path d="M336.011 488.572L347.644 483.89C349.227 483.254 349.996 481.447 349.36 479.86L338.955 453.791C338.322 452.2 336.523 451.432 334.939 452.068L323.307 456.75C321.724 457.386 320.955 459.193 321.591 460.78L331.996 486.848C332.633 488.435 334.428 489.208 336.011 488.572Z" fill="#F7CC7F"/>
<path d="M300.746 453.825L324.098 460.045L328.97 475.735L300.545 454.89L293.636 457.291L297.379 447.56L300.746 453.825Z" fill="#F7CC7F"/>
<path d="M346.481 483.769C350.349 478.166 358.822 463.981 353.947 453.329C352.371 449.886 349.098 448.072 346.686 448.06C342.424 448.041 339.383 449.689 336.436 451.28C335.992 451.519 335.53 451.769 335.08 452.003C332.939 453.117 330.822 454.352 328.773 455.545C326.939 456.613 325.042 457.719 323.144 458.731L324.117 460.856C326.03 459.837 327.939 458.727 329.78 457.651C331.818 456.462 333.928 455.234 336.042 454.132C336.5 453.894 336.962 453.644 337.413 453.401C340.239 451.875 343.159 450.299 347.129 450.314C348.92 450.322 351.424 451.644 352.542 454.079C354.386 458.109 354.068 463.435 351.595 469.905C349.583 475.163 346.655 479.757 345.087 482.026L346.481 483.769Z" fill="#F7CC7F"/>
<path d="M350.981 453.356C351.727 452.848 352.754 453.038 353.326 453.738C353.769 454.28 354.28 455.004 354.496 455.693C354.989 457.246 354.591 459.541 353.89 460.011C353.189 460.481 351.265 455.75 350.655 454.432C350.424 453.935 350.633 453.591 350.981 453.356Z" fill="#F48C7F"/>
<path d="M293.636 450.511C292.689 450.068 291.701 449.757 290.705 449.53C289.712 449.303 288.708 449.159 287.716 449.117C286.724 449.072 285.742 449.098 284.784 449.242C283.826 449.352 282.902 449.602 282.008 449.871L281.97 449.882C280.989 450.174 279.955 449.617 279.663 448.636C279.371 447.655 279.928 446.621 280.909 446.329C281.083 446.276 281.269 446.254 281.443 446.254C282.602 446.254 283.742 446.299 284.856 446.5C285.97 446.667 287.053 446.966 288.087 447.329C289.125 447.689 290.114 448.151 291.045 448.685C291.973 449.208 292.856 449.81 293.636 450.511Z" fill="#9BC1F9"/>
<path d="M285.852 455.17C284.348 454.916 282.826 454.882 281.352 455.026C279.879 455.17 278.443 455.53 277.186 456.136C276.557 456.435 275.974 456.803 275.462 457.235C274.951 457.666 274.485 458.128 274.114 458.666C273.345 459.716 272.871 460.947 272.583 462.235C272.364 463.227 271.375 463.856 270.383 463.632C269.39 463.409 268.761 462.424 268.985 461.432C269.011 461.314 269.049 461.197 269.095 461.091L269.106 461.064C269.811 459.488 270.784 457.977 272.091 456.803C272.727 456.204 273.462 455.716 274.216 455.314C274.97 454.909 275.769 454.613 276.572 454.416C278.178 454.011 279.799 453.954 281.356 454.117C282.909 454.272 284.424 454.625 285.852 455.17Z" fill="#9BC1F9"/>
<path d="M282.462 468.284C281.769 468.773 281.148 469.345 280.617 469.958C280.087 470.572 279.655 471.246 279.386 471.928C279.125 472.613 279.03 473.288 279.133 473.898C279.148 474.049 279.197 474.201 279.227 474.345C279.28 474.492 279.314 474.632 279.386 474.773C279.496 475.049 279.667 475.322 279.83 475.579C280.386 476.451 280.129 477.61 279.258 478.166C278.386 478.723 277.227 478.466 276.67 477.595C276.545 477.401 276.462 477.193 276.417 476.981L276.394 476.867C276.174 475.818 276.121 474.682 276.398 473.621C276.652 472.557 277.208 471.64 277.856 470.924C278.515 470.212 279.269 469.674 280.045 469.246C280.826 468.822 281.636 468.496 282.462 468.284Z" fill="#9BC1F9"/>
<path d="M120.701 249.598C120.701 249.598 121.519 247.284 124.265 246.458C126.712 245.723 128.985 247.159 129.667 249.428C130.455 252.053 129.091 255.848 123.928 260.341C117.144 259.439 113.913 257.026 113.121 254.405C112.439 252.14 113.542 249.685 115.989 248.95C118.742 248.121 120.701 249.598 120.701 249.598Z" fill="#F48C7F"/>
<path d="M100.773 256.723C103.269 256.394 105.258 256.003 107.193 255.526C107.833 255.367 108.985 255.284 109.292 254.628C109.451 254.287 109.402 253.931 109.076 253.704C108.473 253.287 107.564 253.734 106.92 253.894C104.958 254.375 102.716 254.829 100.424 255.155C99.9962 255.216 99.7235 255.716 99.8144 256.113C99.9129 256.568 100.341 256.78 100.773 256.723Z" fill="#F48C7F"/>
<path d="M134.75 253.723C135.693 253.507 136.629 253.276 137.568 253.045C138.466 252.826 139.564 252.723 140.341 252.208C140.913 251.829 140.769 250.981 140.049 250.905C139.121 250.807 138.114 251.219 137.212 251.443C136.273 251.674 135.337 251.905 134.402 252.151C133.402 252.416 133.739 253.954 134.75 253.723Z" fill="#F48C7F"/>
<path d="M112.428 266.901C113.125 264.636 114.413 263.678 115.326 262.655C115.814 262.106 115.276 261.318 114.587 261.606C112.693 262.394 111.455 264.56 110.898 266.435C110.602 267.428 112.121 267.89 112.428 266.901Z" fill="#F48C7F"/>
<path d="M124.455 269.231C124.182 268.269 124.098 267.288 124.239 266.295C124.322 265.689 125.068 263.875 123.894 263.852C122.788 263.829 122.644 265.674 122.572 266.454C122.473 267.5 122.583 268.576 122.883 269.583C123.17 270.576 124.739 270.235 124.455 269.231Z" fill="#F48C7F"/>
<path d="M130.985 261.394C131.598 261.647 132.212 261.897 132.826 262.151C133.439 262.405 134.072 262.833 134.723 262.526C135.091 262.352 135.148 261.928 135.019 261.591C134.784 260.977 133.86 260.803 133.303 260.575C132.689 260.325 132.072 260.079 131.458 259.829C131.049 259.663 130.561 259.981 130.439 260.375C130.303 260.829 130.576 261.223 130.985 261.394Z" fill="#F48C7F"/>
<path d="M112.848 245.405C109.693 241.091 109.727 241.056 109.227 240.757C108.716 240.45 108.027 240.909 108.17 241.507C108.311 242.098 108.299 242 111.636 246.526C111.902 246.886 112.504 246.848 112.803 246.572C113.167 246.242 113.114 245.769 112.848 245.405Z" fill="#F48C7F"/>
<path d="M121.405 243.28C121.527 242.409 121.549 241.534 121.481 240.655C121.417 239.841 121.432 238.579 120.568 238.208C120.383 238.128 120.091 238.204 119.958 238.348C119.402 238.962 119.799 239.996 119.852 240.75C119.913 241.572 119.886 242.401 119.807 243.219C119.765 243.651 120.163 244.034 120.576 244.049C121.042 244.068 121.345 243.712 121.405 243.28Z" fill="#F48C7F"/>
<path d="M133.686 241.144C133.739 240.742 133.36 240.469 133.015 240.42C132.307 240.322 131.61 241.155 131.144 241.606C130.602 242.132 130.114 242.708 129.663 243.314C129.402 243.663 129.576 244.208 129.924 244.424C130.33 244.678 130.761 244.503 131.034 244.163C132.822 241.935 133.561 242.128 133.686 241.144Z" fill="#F48C7F"/>
<path d="M150.811 51.3216C150.811 51.3216 155.814 49.4541 155.417 43.9579C155.019 38.4579 141.758 34.1246 138.098 32.0564C134.439 29.9882 134.572 28.0299 134.572 28.0299C134.572 28.0299 126.636 45.1473 136.939 54.3064C143.083 59.7685 147.667 56.7534 150.811 51.3216Z" fill="#50BFA5"/>
<path d="M140.458 36.1284C141.117 37.3254 142.602 40.3671 142.648 41.9352C140.023 38.511 137.58 34.7648 135.5 31.3784C136.42 33.3254 137.686 35.7648 139.167 38.2989C137.686 39.1398 135.095 36.7231 135.068 36.7004C134.89 36.5337 134.659 36.7913 134.833 36.958C134.951 37.0678 137.655 39.5867 139.352 38.617C140.027 39.761 140.742 40.9239 141.485 42.0678C138.833 43.5564 134.655 40.6057 134.614 40.5754C134.53 40.5148 134.42 40.5337 134.367 40.6133C134.314 40.6928 134.337 40.8064 134.42 40.8633C134.606 40.9958 138.856 43.9996 141.689 42.3746C142.481 43.5754 143.303 44.7534 144.144 45.8633C141.095 48.2042 135.436 45.4049 135.375 45.3746C135.159 45.2648 135.019 45.5905 135.235 45.6966C135.489 45.8254 141.167 48.636 144.371 46.1587C145.428 47.5375 146.511 48.8027 147.587 49.8708C144.883 52.7004 139.348 51.4731 139.288 51.458C139.189 51.4352 139.098 51.4958 139.083 51.5943C139.068 51.6928 139.133 51.7875 139.227 51.8102C139.477 51.8671 145.034 53.1019 147.848 50.1284C148.314 50.5792 148.78 50.9883 149.242 51.3557C154.413 55.3822 151.939 59.1133 151.841 59.6701C151.689 59.9807 151.788 60.3784 152.087 60.5981C153.375 61.5375 154.352 57.886 154.136 55.8898C153.689 52.5489 151.678 51.2042 149.28 49.189C151.458 45.0981 149.515 41.3102 149.492 41.2686C149.489 41.2572 149.481 41.2496 149.473 41.242C149.42 41.1739 149.326 41.1474 149.25 41.1852C149.163 41.2269 149.133 41.3367 149.182 41.4239C149.201 41.4617 151.034 45.0489 148.996 48.9466C147.989 48.0868 147.348 47.458 146.341 46.3633C147.473 43.6966 144.898 39.1284 144.78 38.9163C144.777 38.9087 144.769 38.9011 144.765 38.8936C144.712 38.8216 144.614 38.7989 144.538 38.8405C144.455 38.886 144.428 38.9958 144.477 39.083C144.504 39.1322 146.981 43.5261 146.072 46.064C145.023 44.9049 143.992 43.6587 142.985 42.3633C143.254 40.4996 140.879 36.1625 140.773 35.9655C140.727 35.8822 140.617 35.8405 140.53 35.886C140.439 35.9314 140.409 36.0375 140.458 36.1284Z" fill="#3C8F7C"/>
<path d="M187.973 84.2307C187.973 84.2307 184.239 81.5413 185.477 77.1966C186.716 72.8519 198.167 72.4807 201.47 71.6777C204.777 70.8746 204.992 69.2572 204.992 69.2572C204.992 69.2572 208.553 84.9542 198.689 89.9163C192.814 92.8746 189.61 89.3595 187.973 84.2307Z" fill="#50BFA5"/>
<path d="M198.883 74.4049C198.148 75.2155 196.439 77.3216 196.14 78.5792C198.833 76.4315 201.436 73.9845 203.682 71.7421C202.614 73.0943 201.182 74.7648 199.561 76.4655C200.617 77.4921 203.117 76.1549 203.144 76.1398C203.314 76.0489 203.462 76.3102 203.288 76.4012C203.174 76.4618 200.568 77.8595 199.356 76.6739C198.621 77.439 197.848 78.208 197.053 78.9542C198.951 80.7837 202.818 79.386 202.86 79.3747C202.936 79.3481 203.023 79.386 203.053 79.4618C203.083 79.5375 203.045 79.6246 202.97 79.6512C202.795 79.7156 198.86 81.136 196.841 79.1549C196 79.939 195.14 80.6928 194.273 81.3936C196.348 84.0034 201.394 83.0792 201.447 83.0716C201.64 83.0337 201.701 83.3292 201.508 83.3633C201.28 83.4049 196.22 84.333 194.042 81.5792C192.955 82.4428 191.871 83.208 190.822 83.8178C192.534 86.7421 197.22 87.0565 197.269 87.0602C197.352 87.064 197.413 87.136 197.413 87.2193C197.409 87.3027 197.341 87.3633 197.258 87.3595C197.045 87.3481 192.348 87.03 190.564 83.9656C190.11 84.2193 189.667 84.4428 189.231 84.6284C184.375 86.6587 185.754 90.2572 185.742 90.7269C185.814 91.0148 185.667 91.3102 185.386 91.4163C184.189 91.8709 184.008 88.689 184.515 87.1284C185.436 84.5337 187.288 83.9277 189.561 82.8633C188.481 79.0451 190.686 76.4466 190.712 76.4163C190.72 76.4087 190.723 76.4049 190.731 76.3974C190.784 76.3557 190.867 76.3557 190.92 76.4049C190.981 76.458 190.989 76.5527 190.936 76.6171C190.913 76.6436 188.833 79.1057 189.83 82.7345C190.788 82.2762 191.409 81.9239 192.409 81.2761C191.939 78.8557 194.784 75.7724 194.917 75.6322C194.92 75.6284 194.928 75.6208 194.932 75.6171C194.989 75.5716 195.072 75.5754 195.125 75.6284C195.186 75.6853 195.189 75.7799 195.133 75.8406C195.102 75.8746 192.364 78.8368 192.678 81.1019C193.72 80.4125 194.761 79.6512 195.792 78.8443C195.886 77.2724 198.53 74.333 198.648 74.2004C198.697 74.1436 198.792 74.136 198.856 74.1928C198.932 74.2496 198.939 74.3443 198.883 74.4049Z" fill="#3C8F7C"/>
<path d="M169.386 61.7762C169.386 61.7762 164.788 61.9693 163.08 57.7875C161.371 53.6019 170.144 46.2421 172.246 43.564C174.348 40.8898 173.523 39.4845 173.523 39.4845C173.523 39.4845 186.019 49.6284 181.33 59.6247C178.53 65.583 173.841 64.7951 169.386 61.7762Z" fill="#50BFA5"/>
<path d="M171.894 47.3102C171.818 48.4012 171.777 51.1133 172.318 52.2837C173.11 48.9315 173.644 45.4012 174.027 42.2458C174.023 43.9693 173.928 46.1701 173.705 48.5072C175.17 48.6625 176.311 46.0678 176.322 46.0413C176.398 45.8633 176.674 45.9807 176.598 46.1587C176.545 46.2799 175.36 48.9845 173.678 48.8027C173.572 49.8595 173.439 50.9428 173.276 52.0186C175.898 52.2837 178.08 48.7951 178.102 48.761C178.144 48.6928 178.239 48.6701 178.307 48.7117C178.379 48.7534 178.402 48.8443 178.36 48.9125C178.261 49.0716 176.045 52.6171 173.231 52.3102C173.053 53.4466 172.845 54.5716 172.595 55.6549C175.841 56.4239 179.235 52.583 179.273 52.5413C179.402 52.3936 179.629 52.5868 179.5 52.7345C179.348 52.9087 175.943 56.7648 172.527 55.9428C172.205 57.2913 171.826 58.5678 171.375 59.6928C174.53 60.9315 178.405 58.2875 178.447 58.261C178.515 58.2155 178.606 58.2307 178.655 58.2951C178.705 58.3633 178.689 58.4542 178.621 58.4996C178.447 58.6209 174.557 61.2762 171.261 59.9655C171.061 60.4428 170.848 60.8936 170.625 61.3102C168.061 65.9049 171.367 67.8822 171.652 68.261C171.886 68.4428 171.955 68.7686 171.799 69.0224C171.136 70.1209 169.03 67.7307 168.466 66.189C167.587 63.583 168.667 61.958 169.799 59.7193C166.591 57.386 166.72 53.9769 166.72 53.939C166.72 53.9315 166.72 53.9201 166.723 53.9125C166.739 53.8443 166.803 53.7951 166.875 53.7989C166.958 53.8027 167.023 53.8746 167.019 53.9542C167.019 53.9883 166.902 57.2118 169.932 59.4466C170.402 58.4959 170.674 57.833 171.057 56.7042C169.193 55.0905 169.523 50.9125 169.542 50.7155C169.542 50.708 169.542 50.7004 169.545 50.6928C169.561 50.6246 169.629 50.5754 169.705 50.583C169.788 50.5905 169.848 50.6625 169.841 50.7421C169.837 50.7875 169.515 54.8102 171.163 56.3936C171.557 55.2117 171.905 53.9655 172.216 52.6928C171.318 51.4011 171.583 47.4542 171.595 47.2762C171.598 47.2004 171.667 47.1322 171.754 47.1398C171.837 47.1549 171.898 47.2269 171.894 47.3102Z" fill="#3C8F7C"/>
</g>
</svg>
