<svg width="500" height="388" viewBox="0 0 500 388" fill="none" xmlns="http://www.w3.org/2000/svg">
<g style="mix-blend-mode:screen">
<path d="M96.152 300.52H65.9466V380.707H96.152V300.52Z" fill="#D7EEF4"/>
<path d="M281.921 266.89H251.716V380.715H281.921V266.89Z" fill="#D7EEF4"/>
<path d="M339.279 289.456H321.111V380.715H339.279V289.456Z" fill="#D7EEF4"/>
<path d="M176.644 285.133H146.439V380.707H176.644V285.133Z" fill="#D7EEF4"/>
<path d="M219.25 242.741H175.96V380.715H219.25V242.741Z" fill="#D7EEF4"/>
<path d="M321.12 228.963H281.707V380.707H321.12V228.963Z" fill="#D7EEF4"/>
<path d="M373.833 256.132H339.485V380.707H373.833V256.132Z" fill="#D7EEF4"/>
<path d="M390.721 235.918H373.544V380.707H390.721V235.918Z" fill="#D7EEF4"/>
<path d="M251.469 212.478H219.25V380.707H251.469V212.478Z" fill="#D7EEF4"/>
<path d="M58.224 322.697H41.3187V380.707H58.224V322.697Z" fill="#D7EEF4"/>
<path d="M44.6767 350.493H29.834V380.707H44.6767V350.493Z" fill="#D7EEF4"/>
<path d="M459.927 322.697H438.74V380.707H459.927V322.697Z" fill="#D7EEF4"/>
<path d="M470.529 338.563H449.342V380.707H470.529V338.563Z" fill="#D7EEF4"/>
<path d="M414.566 305.883H390.086V380.707H414.566V305.883Z" fill="#D7EEF4"/>
<path d="M66.2766 273.326H51.4586V380.707H66.2766V273.326Z" fill="#D7EEF4"/>
<path d="M146.439 262.592H95.9955V380.707H146.439V262.592Z" fill="#D7EEF4"/>
<path d="M442.444 275.471H413.699V380.707H442.444V275.471Z" fill="#D7EEF4"/>
<path d="M364.089 380.706H386.902V321.318H364.089V380.706Z" fill="#A3CDD6"/>
<path d="M223.766 380.71H246.579V296.422H223.766V380.71Z" fill="#A3CDD6"/>
<path d="M179.942 380.712H194.158V313.132H179.942V380.712Z" fill="#A3CDD6"/>
<path d="M303.281 380.708H326.094V309.934H303.281V380.708Z" fill="#A3CDD6"/>
<path d="M271.102 380.705H303.799V278.53H271.102V380.705Z" fill="#A3CDD6"/>
<path d="M194.159 380.711H223.926V268.338H194.159V380.711Z" fill="#A3CDD6"/>
<path d="M154.338 380.71H180.286V277.265H154.338V380.71Z" fill="#A3CDD6"/>
<path d="M141.586 380.706H154.555V294.43H141.586V380.706Z" fill="#A3CDD6"/>
<path d="M246.762 380.707H271.101V256.131H246.762V380.707Z" fill="#A3CDD6"/>
<path d="M392.733 380.705H411.222V337.745H392.733V380.705Z" fill="#A3CDD6"/>
<path d="M429.495 380.706H438.744V348.001H429.495V380.706Z" fill="#A3CDD6"/>
<path d="M411.222 380.71H429.712V315.308H411.222V380.71Z" fill="#A3CDD6"/>
<path d="M86.8231 380.705H105.313V337.745H86.8231V380.705Z" fill="#A3CDD6"/>
<path d="M74.689 380.75H86.7018L86.7018 318.425H74.689V380.75Z" fill="#A3CDD6"/>
<path d="M62.65 380.744H74.6628V351.702H62.65V380.744Z" fill="#A3CDD6"/>
<path d="M123.574 380.711H142.063V325.301H123.574V380.711Z" fill="#A3CDD6"/>
<path d="M386.65 380.71H397.846V301.191H386.65V380.71Z" fill="#A3CDD6"/>
<path d="M326.099 380.707H364.2V293.243H326.099V380.707Z" fill="#A3CDD6"/>
<path d="M102.51 380.707H124.225L124.225 302.781H102.51L102.51 380.707Z" fill="#A3CDD6"/>
<path d="M297.664 149.328C297.664 149.328 296.451 148.693 294.405 147.629C293.959 147.39 293.464 147.134 292.936 146.862C292.334 146.548 291.682 146.201 290.989 145.847C279.084 139.626 254.811 126.936 248.425 123.578C239.869 119.082 210.233 102.705 210.233 102.705L208.195 104.553L207.609 105.081C207.609 105.081 222.13 119.956 224.688 121.565C229.63 124.668 272.145 142.761 289.413 149.279C290.115 149.543 290.775 149.791 291.385 150.013C291.88 150.195 292.334 150.36 292.763 150.508C295.057 151.317 296.459 151.729 296.633 151.589C296.979 151.325 297.21 151.028 297.367 150.748C297.788 149.997 297.664 149.328 297.664 149.328Z" fill="#DADEE8"/>
<path d="M297.664 149.328C297.664 149.328 256.989 128.067 248.433 123.57C239.877 119.074 210.241 102.696 210.241 102.696L208.203 104.544L297.383 150.739C297.787 149.997 297.664 149.328 297.664 149.328Z" fill="#F4F4F4"/>
<path d="M297.664 149.328C297.664 149.328 296.451 148.693 294.405 147.629L292.78 150.508C295.073 151.317 296.476 151.729 296.649 151.589C296.996 151.325 297.227 151.028 297.383 150.747C297.788 149.997 297.664 149.328 297.664 149.328Z" fill="#ED4039"/>
<path d="M292.936 146.853C292.334 146.54 291.682 146.193 290.989 145.838L289.413 149.271C290.115 149.535 290.775 149.782 291.385 150.005L292.936 146.853Z" fill="#ED4039"/>
<path d="M182.577 119.074C183.509 121.458 185.019 123.306 186.685 124.585C189.392 126.672 192.527 127.291 194.301 126.334C195.662 125.608 209.919 116.896 209.919 116.896L208.747 115.056L197.832 97.9688L184.053 108.678C183.492 109.115 183.072 109.709 182.849 110.394C182.271 112.217 181.364 115.98 182.577 119.074Z" fill="#B4B9C1"/>
<path d="M186.685 124.585C189.392 126.672 192.527 127.291 194.301 126.334C195.662 125.608 209.919 116.895 209.919 116.895L208.747 115.056L201.182 112.952L186.685 124.585Z" fill="#7C828C"/>
<path d="M198.435 110.93C201.784 116.161 207.989 118.084 210.233 116.739C213.459 114.808 213.253 108.826 209.903 103.596C206.553 98.3647 201.149 95.576 198.105 97.7871C195.613 99.594 195.093 105.699 198.435 110.93Z" fill="#656970"/>
<path d="M200.25 109.701C202.7 113.529 206.561 115.435 208.88 113.95C211.198 112.465 211.091 108.158 208.641 104.33C206.19 100.502 202.329 98.5958 200.01 100.081C197.692 101.566 197.799 105.873 200.25 109.701Z" fill="#55585E"/>
<path d="M208.863 112.945C210.937 111.672 210.995 107.995 208.993 104.733C206.991 101.471 203.686 99.8581 201.612 101.131C199.539 102.404 199.481 106.08 201.483 109.342C203.485 112.605 206.789 114.217 208.863 112.945Z" fill="#656970"/>
<path d="M173.097 0.966966C173.097 0.966966 173.534 2.3613 174.268 4.72096C174.425 5.24074 174.607 5.80177 174.797 6.41231C175.011 7.10536 175.242 7.85618 175.489 8.65649C179.755 22.3772 188.443 50.3548 190.72 57.7225C193.773 67.5984 203.715 102.416 203.715 102.416L206.652 102.564L207.493 102.606C207.493 102.606 207.815 80.3785 207.106 77.2268C205.736 71.1379 187.37 25.2648 179.277 7.25388C178.946 6.51958 178.641 5.8348 178.344 5.1995C178.113 4.69622 177.89 4.21771 177.676 3.78043C176.562 1.42902 175.811 0.0593926 175.572 0.0263904C175.11 -0.0313634 174.714 0.00991955 174.384 0.108926C173.509 0.364693 173.097 0.966966 173.097 0.966966Z" fill="#DADEE8"/>
<path d="M173.097 0.966926C173.097 0.966926 187.667 47.8383 190.72 57.7225C193.773 67.5984 203.715 102.416 203.715 102.416L206.652 102.564L174.384 0.108887C173.51 0.364654 173.097 0.966926 173.097 0.966926Z" fill="#F4F4F4"/>
<path d="M173.097 0.966965C173.097 0.966965 173.534 2.3613 174.268 4.72096L177.676 3.78043C176.562 1.42902 175.811 0.0593926 175.572 0.0263904C175.11 -0.0313634 174.714 0.00991955 174.384 0.108926C173.509 0.364693 173.097 0.966965 173.097 0.966965Z" fill="#ED4039"/>
<path d="M174.788 6.41231C175.003 7.10536 175.234 7.85618 175.481 8.65649L179.268 7.26214C178.938 6.52784 178.633 5.84306 178.336 5.20776L174.788 6.41231Z" fill="#ED4039"/>
<path d="M206.19 111.854C206.949 112.176 207.807 112.168 208.541 111.805C209.754 111.219 210.744 110.617 211.544 110.015C215.628 106.921 214.737 103.761 213.954 102.284C212.881 100.246 210.307 99.6023 207.898 99.5858C206.066 99.5693 203.525 100.906 202.403 101.558C202.023 101.78 201.735 102.119 201.586 102.531C201.421 102.977 201.306 103.406 201.215 103.818C200.217 108.612 204.102 110.955 206.19 111.854Z" fill="#B4B9C1"/>
<path d="M208.55 111.805C209.762 111.219 210.744 110.617 211.545 110.023C209.193 111.45 201.413 111.137 201.215 103.818C200.217 108.604 204.086 110.955 206.182 111.854C206.941 112.176 207.807 112.16 208.55 111.805Z" fill="#9EA2AB"/>
<path d="M194.416 102.135L184.491 109.685C184.491 109.685 183.361 111.203 183.245 112.91L194.35 104.553C194.35 104.553 194.02 103.15 194.416 102.135Z" fill="#F4F4F4"/>
<path d="M202.188 103.769C202.188 103.769 202.048 103.109 202.353 102.399C202.353 102.399 205.249 100.997 207.114 100.469C207.823 100.27 209.053 100.295 209.779 100.609C209.779 100.609 208.508 100.972 207.32 101.393C205.604 102.011 202.188 103.769 202.188 103.769Z" fill="url(#paint0_linear_5_985)"/>
<path d="M184.128 362.746H212.889L202.328 122.267L202.262 120.542C202.163 117.935 199.952 115.906 197.345 116.038L196.462 116.079C193.806 116.211 191.718 118.381 191.677 121.037L191.652 122.531L184.128 362.746Z" fill="#DADEE8"/>
<path d="M191.661 122.539C192.75 121.73 194.425 121.103 196.966 121.021C199.309 120.938 201.174 121.656 202.329 122.267L202.263 120.542C202.164 117.935 199.952 115.906 197.345 116.038L196.463 116.079C193.806 116.211 191.718 118.381 191.677 121.037L191.661 122.539Z" fill="#9EA2AB"/>
<path d="M199.21 119.717L202.881 362.746H209.985L200.654 120.617C200.645 120.254 200.439 119.924 200.117 119.759L199.597 119.486C199.416 119.396 199.201 119.528 199.21 119.717Z" fill="#F4F4F4"/>
<path d="M186.578 362.746H194.202L194.317 119.363L192.362 122.027L186.578 362.746Z" fill="#B4B9C1"/>
<path d="M128.593 181.151C128.593 181.151 129.658 180.153 131.464 178.461C131.86 178.09 132.298 177.686 132.76 177.248C133.288 176.753 133.865 176.217 134.476 175.648C144.97 165.83 166.364 145.83 172.016 140.566C179.582 133.52 206.594 109.404 206.594 109.404L205.447 106.69L205.125 105.914C205.125 105.914 184.978 115.303 182.445 117.316C177.569 121.202 144.261 157.711 131.572 172.834C131.06 173.453 130.573 174.031 130.128 174.567C129.773 174.996 129.443 175.408 129.138 175.788C127.504 177.818 126.597 179.088 126.671 179.311C126.819 179.757 127.034 180.095 127.257 180.351C127.867 181.044 128.593 181.151 128.593 181.151Z" fill="#DADEE8"/>
<path d="M128.593 181.151C128.593 181.151 164.442 147.62 172.016 140.575C179.582 133.529 206.594 109.412 206.594 109.412L205.447 106.698L127.265 180.359C127.867 181.043 128.593 181.151 128.593 181.151Z" fill="#F4F4F4"/>
<path d="M128.593 181.151C128.593 181.151 129.658 180.152 131.464 178.461L129.138 175.796C127.504 177.826 126.597 179.096 126.671 179.319C126.819 179.765 127.034 180.103 127.257 180.359C127.867 181.043 128.593 181.151 128.593 181.151Z" fill="#ED4039"/>
<path d="M132.76 177.248C133.288 176.753 133.865 176.217 134.476 175.648L131.572 172.843C131.06 173.461 130.573 174.039 130.128 174.575L132.76 177.248Z" fill="#ED4039"/>
<path d="M487.261 385.385C479.992 385.699 478.854 382.976 456.792 383.718H0C10.503 382.885 13.5474 380.014 16.5011 377.539C18.3657 375.979 20.1973 374.585 23.8523 373.958C34.7595 375.864 46.0877 374.469 60.3199 362.209C70.9548 353.051 84.1886 339.941 98.9571 337.103C115.78 333.877 127.488 345.114 143.815 349.833C156.447 353.48 170.019 353.851 183.352 354.19C200.909 354.635 219.638 354.817 234.497 346.863C253.968 336.434 275.948 312.054 282.804 305.61C298.142 291.197 318.694 296.279 332.068 308.812C342.901 318.96 349.172 332.416 361.407 342.598C373.643 352.787 382.875 370.559 417.965 356.698C423.237 354.619 430.704 370.559 451.941 367.275C455.183 366.78 466.206 383.685 487.261 385.385Z" fill="#5EB75B"/>
<path d="M392.083 229.557C392.083 229.557 391.315 229.152 390.012 228.476C389.723 228.327 389.418 228.162 389.079 227.989C388.7 227.791 388.287 227.568 387.842 227.346C380.276 223.394 364.864 215.333 360.805 213.196C355.368 210.341 336.548 199.937 336.548 199.937L335.253 201.109L334.882 201.447C334.882 201.447 344.106 210.894 345.731 211.917C348.866 213.889 375.879 225.382 386.844 229.524C387.289 229.689 387.71 229.846 388.098 229.994C388.411 230.11 388.7 230.217 388.972 230.308C390.432 230.827 391.323 231.083 391.431 230.992C391.653 230.819 391.794 230.638 391.893 230.456C392.165 229.978 392.083 229.557 392.083 229.557Z" fill="#DADEE8"/>
<path d="M392.083 229.557C392.083 229.557 366.242 216.051 360.805 213.196C355.368 210.341 336.548 199.937 336.548 199.937L335.253 201.109L391.901 230.456C392.165 229.978 392.083 229.557 392.083 229.557Z" fill="#F4F4F4"/>
<path d="M392.082 229.557C392.082 229.557 391.315 229.152 390.012 228.476L388.98 230.307C390.441 230.827 391.332 231.083 391.439 230.992C391.662 230.819 391.802 230.637 391.901 230.456C392.165 229.977 392.082 229.557 392.082 229.557Z" fill="#ED4039"/>
<path d="M389.079 227.981C388.7 227.783 388.287 227.56 387.842 227.337L386.843 229.516C387.289 229.681 387.71 229.837 388.098 229.986L389.079 227.981Z" fill="#ED4039"/>
<path d="M318.983 210.333C319.577 211.851 320.534 213.023 321.59 213.831C323.315 215.159 325.303 215.547 326.433 214.945C327.299 214.483 336.359 208.947 336.359 208.947L335.616 207.775L328.686 196.926L319.932 203.724C319.577 204.005 319.305 204.384 319.165 204.813C318.785 205.977 318.216 208.369 318.983 210.333Z" fill="#B4B9C1"/>
<path d="M321.59 213.84C323.314 215.168 325.303 215.556 326.433 214.953C327.299 214.491 336.358 208.955 336.358 208.955L335.616 207.784L330.814 206.447L321.59 213.84Z" fill="#7C828C"/>
<path d="M329.057 205.16C331.186 208.485 335.129 209.706 336.548 208.848C338.594 207.618 338.462 203.823 336.342 200.498C334.213 197.173 330.781 195.408 328.851 196.81C327.258 197.965 326.928 201.835 329.057 205.16Z" fill="#656970"/>
<path d="M330.203 204.384C331.763 206.818 334.213 208.023 335.682 207.082C337.15 206.141 337.084 203.402 335.525 200.977C333.966 198.543 331.515 197.338 330.047 198.279C328.578 199.211 328.652 201.95 330.203 204.384Z" fill="#55585E"/>
<path d="M330.955 204.153C332.225 206.224 334.321 207.247 335.641 206.439C336.961 205.63 336.994 203.295 335.723 201.224C334.453 199.153 332.357 198.13 331.037 198.939C329.717 199.747 329.684 202.082 330.955 204.153Z" fill="#656970"/>
<path d="M312.96 135.319C312.96 135.319 313.232 136.202 313.703 137.703C313.802 138.033 313.917 138.388 314.033 138.776C314.173 139.213 314.313 139.692 314.47 140.203C317.176 148.916 322.704 166.687 324.148 171.374C326.087 177.652 332.399 199.764 332.399 199.764L334.263 199.863L334.799 199.888C334.799 199.888 335.006 185.771 334.552 183.766C333.677 179.905 322.011 150.756 316.879 139.32C316.673 138.858 316.475 138.421 316.285 138.017C316.137 137.695 315.996 137.39 315.864 137.109C315.155 135.616 314.676 134.741 314.528 134.725C314.231 134.683 313.983 134.716 313.769 134.774C313.224 134.931 312.96 135.319 312.96 135.319Z" fill="#DADEE8"/>
<path d="M312.96 135.319C312.96 135.319 322.217 165.095 324.156 171.374C326.095 177.652 332.407 199.764 332.407 199.764L334.271 199.863L313.777 134.782C313.224 134.931 312.96 135.319 312.96 135.319Z" fill="#F4F4F4"/>
<path d="M312.96 135.319C312.96 135.319 313.232 136.202 313.703 137.703L315.873 137.109C315.163 135.616 314.685 134.741 314.536 134.725C314.239 134.683 313.992 134.716 313.777 134.774C313.224 134.931 312.96 135.319 312.96 135.319Z" fill="#ED4039"/>
<path d="M314.033 138.776C314.173 139.213 314.313 139.691 314.47 140.203L316.879 139.32C316.673 138.858 316.475 138.421 316.285 138.017L314.033 138.776Z" fill="#ED4039"/>
<path d="M333.983 205.754C334.461 205.96 335.006 205.952 335.476 205.721C336.252 205.349 336.878 204.97 337.382 204.582C339.981 202.619 339.411 200.605 338.916 199.673C338.232 198.378 336.598 197.974 335.072 197.957C333.908 197.941 332.291 198.799 331.582 199.211C331.342 199.351 331.153 199.566 331.062 199.83C330.963 200.11 330.88 200.383 330.831 200.647C330.187 203.691 332.654 205.185 333.983 205.754Z" fill="#B4B9C1"/>
<path d="M335.484 205.721C336.251 205.35 336.878 204.97 337.39 204.582C335.896 205.49 330.954 205.292 330.831 200.647C330.195 203.691 332.654 205.176 333.982 205.754C334.461 205.952 335.006 205.944 335.484 205.721Z" fill="#9EA2AB"/>
<path d="M326.499 199.574L320.196 204.368C320.196 204.368 319.478 205.333 319.404 206.422L326.458 201.109C326.458 201.109 326.252 200.226 326.499 199.574Z" fill="#F4F4F4"/>
<path d="M331.441 200.614C331.441 200.614 331.35 200.193 331.548 199.747C331.548 199.747 333.388 198.856 334.576 198.526C335.03 198.403 335.814 198.419 336.268 198.617C336.268 198.617 335.459 198.848 334.7 199.12C333.603 199.5 331.441 200.614 331.441 200.614Z" fill="url(#paint1_linear_5_985)"/>
<path d="M319.965 365.121H338.24L331.532 212.362L331.491 211.265C331.433 209.607 330.022 208.32 328.372 208.402L327.811 208.427C326.128 208.509 324.8 209.887 324.775 211.579L324.758 212.527L319.965 365.121Z" fill="#DADEE8"/>
<path d="M324.75 212.536C325.443 212.024 326.507 211.628 328.116 211.571C329.601 211.521 330.789 211.975 331.523 212.363L331.482 211.265C331.424 209.607 330.014 208.32 328.363 208.402L327.802 208.427C326.119 208.51 324.791 209.888 324.766 211.579L324.75 212.536Z" fill="#9EA2AB"/>
<path d="M329.543 210.745L331.87 365.121H336.383L330.459 211.323C330.451 211.092 330.319 210.886 330.113 210.778L329.783 210.605C329.675 210.539 329.543 210.622 329.543 210.745Z" fill="#F4F4F4"/>
<path d="M321.524 365.122H326.367L326.441 210.523L325.195 212.214L321.524 365.122Z" fill="#B4B9C1"/>
<path d="M284.694 249.771C284.694 249.771 285.37 249.135 286.517 248.063C286.773 247.832 287.045 247.568 287.342 247.295C287.68 246.982 288.043 246.644 288.431 246.281C295.098 240.043 308.686 227.337 312.275 223.996C317.085 219.516 334.238 204.203 334.238 204.203L333.512 202.478L333.306 201.983C333.306 201.983 320.509 207.949 318.9 209.227C315.798 211.694 294.644 234.887 286.583 244.49C286.253 244.878 285.948 245.249 285.667 245.588C285.444 245.86 285.23 246.124 285.04 246.363C284.001 247.65 283.423 248.459 283.473 248.599C283.563 248.88 283.704 249.094 283.844 249.259C284.232 249.696 284.694 249.771 284.694 249.771Z" fill="#DADEE8"/>
<path d="M284.694 249.771C284.694 249.771 307.465 228.476 312.275 223.996C317.085 219.516 334.238 204.203 334.238 204.203L333.512 202.479L283.844 249.267C284.232 249.696 284.694 249.771 284.694 249.771Z" fill="#F4F4F4"/>
<path d="M284.694 249.771C284.694 249.771 285.37 249.135 286.517 248.063L285.04 246.371C284.001 247.658 283.423 248.467 283.473 248.607C283.563 248.888 283.704 249.102 283.844 249.267C284.232 249.696 284.694 249.771 284.694 249.771Z" fill="#ED4039"/>
<path d="M287.334 247.295C287.672 246.982 288.035 246.644 288.423 246.281L286.575 244.499C286.245 244.886 285.939 245.258 285.659 245.596L287.334 247.295Z" fill="#ED4039"/>
<path d="M467.666 288.02C467.666 288.02 467.154 287.756 466.296 287.302C466.107 287.203 465.9 287.096 465.678 286.981C465.422 286.849 465.149 286.7 464.861 286.551C459.844 283.928 449.622 278.581 446.924 277.171C443.319 275.273 430.835 268.375 430.835 268.375L429.977 269.151L429.73 269.374C429.73 269.374 435.844 275.636 436.924 276.321C439.004 277.624 456.916 285.248 464.193 287.995C464.49 288.103 464.77 288.21 465.026 288.309C465.232 288.383 465.43 288.457 465.612 288.515C466.577 288.853 467.171 289.027 467.245 288.969C467.394 288.853 467.484 288.73 467.55 288.614C467.715 288.309 467.666 288.02 467.666 288.02Z" fill="#DADEE8"/>
<path d="M467.666 288.02C467.666 288.02 450.53 279.06 446.924 277.171C443.319 275.273 430.836 268.375 430.836 268.375L429.977 269.151L467.551 288.614C467.716 288.309 467.666 288.02 467.666 288.02Z" fill="#F4F4F4"/>
<path d="M467.666 288.02C467.666 288.02 467.155 287.756 466.297 287.302L465.612 288.515C466.577 288.853 467.171 289.027 467.246 288.969C467.394 288.853 467.485 288.73 467.551 288.614C467.716 288.309 467.666 288.02 467.666 288.02Z" fill="#ED4039"/>
<path d="M465.669 286.981C465.414 286.849 465.141 286.7 464.853 286.552L464.193 287.995C464.49 288.103 464.77 288.21 465.026 288.309L465.669 286.981Z" fill="#ED4039"/>
<path d="M419.177 275.281C419.573 276.288 420.208 277.063 420.91 277.608C422.048 278.491 423.368 278.747 424.119 278.342C424.688 278.037 430.703 274.366 430.703 274.366L430.208 273.59L425.613 266.396L419.812 270.909C419.573 271.09 419.4 271.346 419.309 271.635C419.053 272.385 418.666 273.978 419.177 275.281Z" fill="#B4B9C1"/>
<path d="M420.91 277.6C422.048 278.483 423.369 278.738 424.119 278.334C424.689 278.029 430.703 274.357 430.703 274.357L430.208 273.582L427.024 272.699L420.91 277.6Z" fill="#7C828C"/>
<path d="M425.86 271.849C427.271 274.052 429.886 274.861 430.827 274.299C432.188 273.483 432.097 270.966 430.687 268.763C429.276 266.56 426.999 265.389 425.72 266.313C424.672 267.072 424.449 269.638 425.86 271.849Z" fill="#656970"/>
<path d="M426.619 271.329C427.651 272.946 429.276 273.747 430.258 273.12C431.231 272.493 431.19 270.677 430.159 269.069C429.128 267.452 427.502 266.651 426.52 267.278C425.538 267.905 425.588 269.712 426.619 271.329Z" fill="#55585E"/>
<path d="M427.114 271.181C427.956 272.55 429.35 273.235 430.225 272.699C431.099 272.163 431.124 270.612 430.282 269.242C429.441 267.872 428.046 267.188 427.172 267.724C426.297 268.26 426.273 269.803 427.114 271.181Z" fill="#656970"/>
<path d="M415.184 225.522C415.184 225.522 415.366 226.108 415.679 227.106C415.745 227.321 415.819 227.56 415.902 227.816C415.993 228.105 416.092 228.427 416.191 228.757C417.989 234.54 421.652 246.322 422.609 249.432C423.897 253.591 428.08 268.26 428.08 268.26L429.317 268.326L429.672 268.343C429.672 268.343 429.804 258.978 429.507 257.65C428.929 255.084 421.191 235.761 417.783 228.171C417.643 227.866 417.511 227.577 417.387 227.304C417.288 227.09 417.197 226.892 417.106 226.702C416.636 225.712 416.323 225.135 416.224 225.118C416.026 225.093 415.861 225.11 415.72 225.151C415.357 225.267 415.184 225.522 415.184 225.522Z" fill="#DADEE8"/>
<path d="M415.184 225.522C415.184 225.522 421.322 245.274 422.609 249.432C423.897 253.591 428.08 268.26 428.08 268.26L429.317 268.326L415.72 225.159C415.357 225.266 415.184 225.522 415.184 225.522Z" fill="#F4F4F4"/>
<path d="M415.184 225.522C415.184 225.522 415.366 226.108 415.679 227.106L417.115 226.71C416.644 225.72 416.331 225.143 416.232 225.126C416.034 225.101 415.869 225.118 415.729 225.159C415.357 225.266 415.184 225.522 415.184 225.522Z" fill="#ED4039"/>
<path d="M415.893 227.816C415.984 228.105 416.083 228.427 416.182 228.757L417.775 228.171C417.634 227.865 417.502 227.577 417.379 227.304L415.893 227.816Z" fill="#ED4039"/>
<path d="M429.127 272.237C429.449 272.377 429.804 272.369 430.117 272.22C430.629 271.973 431.05 271.717 431.38 271.47C433.104 270.166 432.725 268.838 432.395 268.211C431.941 267.353 430.86 267.08 429.845 267.072C429.078 267.064 428.005 267.633 427.527 267.905C427.37 267.996 427.246 268.145 427.18 268.318C427.114 268.508 427.065 268.689 427.024 268.862C426.611 270.867 428.245 271.857 429.127 272.237Z" fill="#B4B9C1"/>
<path d="M430.118 272.212C430.629 271.965 431.042 271.717 431.38 271.461C430.39 272.064 427.115 271.932 427.032 268.846C426.611 270.867 428.245 271.849 429.119 272.229C429.441 272.369 429.804 272.369 430.118 272.212Z" fill="#9EA2AB"/>
<path d="M424.169 268.145L419.986 271.321C419.986 271.321 419.507 271.956 419.458 272.682L424.136 269.159C424.136 269.159 423.996 268.574 424.169 268.145Z" fill="#F4F4F4"/>
<path d="M427.436 268.83C427.436 268.83 427.378 268.549 427.502 268.252C427.502 268.252 428.723 267.658 429.507 267.443C429.804 267.361 430.324 267.369 430.629 267.501C430.629 267.501 430.093 267.65 429.589 267.831C428.88 268.087 427.436 268.83 427.436 268.83Z" fill="url(#paint2_linear_5_985)"/>
<path d="M419.829 377.935H431.949L427.502 276.618L427.478 275.892C427.436 274.795 426.504 273.936 425.407 273.994L425.035 274.011C423.913 274.068 423.039 274.984 423.022 276.098L423.014 276.725L419.829 377.935Z" fill="#DADEE8"/>
<path d="M423.005 276.742C423.467 276.403 424.169 276.139 425.241 276.098C426.231 276.065 427.015 276.37 427.502 276.626L427.477 275.9C427.436 274.803 426.504 273.945 425.406 274.003L425.035 274.019C423.921 274.077 423.038 274.993 423.022 276.106L423.005 276.742Z" fill="#9EA2AB"/>
<path d="M426.182 275.554L427.725 377.943H430.72L426.793 275.933C426.785 275.785 426.702 275.644 426.562 275.57L426.339 275.455C426.273 275.413 426.182 275.471 426.182 275.554Z" fill="#F4F4F4"/>
<path d="M420.861 377.935H424.07L424.119 275.397L423.303 276.519L420.861 377.935Z" fill="#B4B9C1"/>
<path d="M396.43 301.427C396.43 301.427 396.876 301.006 397.643 300.297C397.808 300.14 397.99 299.967 398.188 299.785C398.411 299.579 398.65 299.348 398.914 299.109C403.336 294.975 412.354 286.543 414.73 284.332C417.915 281.362 429.301 271.205 429.301 271.205L428.822 270.059L428.682 269.729C428.682 269.729 420.192 273.681 419.128 274.53C417.073 276.164 403.039 291.551 397.693 297.921C397.478 298.176 397.272 298.424 397.082 298.647C396.934 298.828 396.793 299.001 396.661 299.158C395.977 300.016 395.589 300.544 395.622 300.643C395.688 300.833 395.77 300.973 395.869 301.081C396.125 301.386 396.43 301.427 396.43 301.427Z" fill="#DADEE8"/>
<path d="M396.43 301.427C396.43 301.427 411.537 287.302 414.722 284.332C417.907 281.362 429.292 271.205 429.292 271.205L428.814 270.059L395.878 301.089C396.125 301.386 396.43 301.427 396.43 301.427Z" fill="#F4F4F4"/>
<path d="M396.43 301.427C396.43 301.427 396.876 301.006 397.643 300.297L396.661 299.175C395.977 300.033 395.589 300.561 395.622 300.66C395.688 300.85 395.77 300.99 395.869 301.097C396.125 301.386 396.43 301.427 396.43 301.427Z" fill="#ED4039"/>
<path d="M398.188 299.785C398.411 299.579 398.65 299.348 398.914 299.109L397.693 297.929C397.478 298.185 397.272 298.432 397.082 298.655L398.188 299.785Z" fill="#ED4039"/>
<path d="M500 387.844C492.731 388.157 463.953 385.979 441.891 386.73L0 383.727C10.503 382.893 12.0375 382.374 14.9994 379.898C18.5059 376.054 21.2534 377.547 21.6081 377.671C30.8158 380.855 37.8866 378.331 47.1107 374.305C52.2921 372.044 56.6483 369.445 62.0854 369.527C66.582 369.593 68.3807 371.268 72.1017 374.065C75.2617 376.441 79.725 377.44 82.8437 375.212C87.9261 371.582 90.1044 365.65 96.4243 366.466C107.15 367.869 117.026 375.715 134.905 373.034C148.452 371.004 153.518 380.864 167.107 378.603C174.557 377.365 180.968 373.158 188.377 370.08C194.614 367.498 198.137 371.268 203.863 373.727C208.648 375.781 212.006 363.084 216.923 362.737C221.783 362.399 227.253 365.93 232.096 366.153C236.981 366.376 245.941 355.724 250.495 353.381C255.949 350.576 260.643 356.558 266.79 356.393C278.06 356.087 281.707 352.358 287.854 342.515C294.603 331.707 307.209 355.757 316.59 361.079C319.742 362.869 324.742 364.132 327.456 363.587C330.294 363.01 335.723 359.899 340.863 361.013C342.217 361.31 359.138 371.706 365.953 372.605C371.927 373.389 380.029 367.019 385.829 368.851C391.827 370.749 393.708 375.064 399.624 374.305C402.008 373.999 404.038 374.808 406.265 374.932C409.945 375.13 413.328 372.984 416.991 371.846C421.405 370.468 424.936 366.079 429.441 366.458C433.426 366.788 435.662 374.106 439.87 372.72C441.652 372.135 446.206 370.707 450.596 372.498C464.49 379.007 488.449 386.383 500 387.844Z" fill="#39994F"/>
<path d="M271.22 365.716C280.424 365.716 287.886 364.556 287.886 363.125C287.886 361.694 280.424 360.534 271.22 360.534C262.016 360.534 254.554 361.694 254.554 363.125C254.554 364.556 262.016 365.716 271.22 365.716Z" fill="#9B8565"/>
<path d="M274.306 333.085C274.95 336.756 279.397 332.779 280.527 331.847L283.002 335.609C283.002 335.609 275.173 339.058 276.295 343.909C277.425 348.753 281.204 362.366 281.204 362.366C281.204 362.366 280.469 362.58 279.281 362.844C278.852 362.943 278.365 363.042 277.821 363.133C277.351 363.216 276.847 363.298 276.319 363.381C275.865 363.447 275.395 363.504 274.9 363.554C274.281 363.62 273.638 363.669 272.986 363.694C272.293 363.727 271.584 363.736 270.874 363.711C270.14 363.686 269.405 363.628 268.679 363.521C267.796 363.397 266.938 363.207 266.13 362.935C264.983 362.547 263.944 362.003 263.069 361.236C263.069 361.236 272.252 345.848 262.805 333.621C253.779 321.938 248.465 310.297 245.809 297.294L246.906 297.154C246.906 297.154 250.503 315.131 260.594 321.856C269.348 327.689 266.039 321.204 264.133 313.844C261.015 301.766 261.683 290.743 265.066 286.964L266.13 287.558C266.13 287.558 261.089 294.687 265.734 308.581C268.712 317.483 272.021 316.542 272.021 313.094C272.021 309.645 270.338 296.989 277.334 291.502L278.044 292.121C278.044 292.121 268.564 298.837 275.437 316.947C275.923 318.234 277.252 321.509 282.911 318.275C286.005 316.509 288.316 310.693 288.505 307.5C288.835 302.054 286.121 297.211 286.121 297.211L286.979 296.683C286.979 296.683 291.426 302.723 288.967 312.211C286.517 321.691 273.514 328.555 274.306 333.085Z" fill="#7C4F2D"/>
<path d="M273.415 332.994C274.059 336.666 279.388 332.771 280.519 331.847L282.507 334.793C282.507 334.793 274.273 338.976 275.403 343.819C276.534 348.662 280.312 362.275 280.312 362.275C280.312 362.275 279.578 362.49 278.39 362.754C277.961 362.853 277.474 362.952 276.93 363.043C276.459 363.125 275.956 363.208 275.428 363.29C274.974 363.356 274.504 363.414 274.009 363.463C273.39 363.529 272.747 363.579 272.095 363.604C271.402 363.637 270.692 363.645 269.983 363.62C269.248 363.595 268.514 363.538 267.788 363.43C266.905 363.307 266.047 363.117 265.239 362.845C264.092 362.457 263.052 361.912 262.178 361.145C262.178 361.145 271.36 345.758 261.914 333.53C252.887 321.848 247.574 310.206 244.918 297.203L246.015 297.063C246.015 297.063 249.612 315.041 259.702 321.765C268.456 327.598 265.148 321.113 263.242 313.754C260.123 301.675 260.791 290.652 264.174 286.874L265.239 287.468C265.239 287.468 260.197 294.596 264.843 308.49C267.821 317.392 271.13 316.452 271.13 313.003C271.13 309.554 269.446 296.898 276.443 291.411L277.152 292.03C277.152 292.03 267.673 298.746 274.545 316.856C275.032 318.143 276.36 321.419 282.02 318.184C285.114 316.419 287.424 310.602 287.614 307.409C287.944 301.964 285.23 297.121 285.23 297.121L286.088 296.593C286.088 296.593 290.535 302.632 288.076 312.12C285.634 321.6 272.623 328.473 273.415 332.994Z" fill="#8B5E35"/>
<path d="M296.31 299.225C296.31 299.225 290.626 311.724 278.811 306.419C278.811 306.419 265.775 317.632 254.719 307.401C254.719 307.401 252.591 307.723 249.489 307.813C242.888 308.011 231.865 307.153 227.443 299.893C226.882 298.969 226.428 298.053 226.09 297.145C224.861 293.895 224.976 290.809 225.9 288.086C227.402 283.664 231.016 280.215 234.382 278.648C235.314 278.21 236.222 277.922 237.063 277.798C237.789 277.691 238.449 277.699 239.035 277.839C239.035 277.839 235.264 269.646 239.398 265.958C243.779 262.039 249.266 264.878 249.266 264.878C249.266 264.878 246.691 255.068 254.86 250.357C257.376 248.904 261.625 247.89 265.602 249.003C268.902 249.928 272.021 252.32 273.811 257.147C273.811 257.147 274.108 256.94 274.645 256.635C276.6 255.554 281.69 253.351 286.847 256.198C293.885 260.076 290.56 269.407 290.56 269.407C290.56 269.407 295.667 268.318 300.51 271.008C301.475 271.544 302.424 272.229 303.323 273.103C303.406 273.186 303.488 273.268 303.571 273.351C304.883 274.687 306.071 276.445 306.995 278.738C311.772 290.586 296.31 299.225 296.31 299.225Z" fill="#92C30E"/>
<path d="M273.902 291.246C278.349 291.246 281.954 287.641 281.954 283.194C281.954 278.746 278.349 275.141 273.902 275.141C269.455 275.141 265.849 278.746 265.849 283.194C265.849 287.641 269.455 291.246 273.902 291.246Z" fill="#78A702"/>
<path d="M288.068 290.43C291.918 290.43 295.039 287.308 295.039 283.458C295.039 279.607 291.918 276.486 288.068 276.486C284.217 276.486 281.096 279.607 281.096 283.458C281.096 287.308 284.217 290.43 288.068 290.43Z" fill="#78A702"/>
<path d="M296.673 282.855C300.264 282.855 303.174 279.945 303.174 276.354C303.174 272.763 300.264 269.853 296.673 269.853C293.082 269.853 290.172 272.763 290.172 276.354C290.172 279.945 293.082 282.855 296.673 282.855Z" fill="#78A702"/>
<path d="M239.769 295.957C243.36 295.957 246.271 293.047 246.271 289.456C246.271 285.865 243.36 282.955 239.769 282.955C236.179 282.955 233.268 285.865 233.268 289.456C233.268 293.047 236.179 295.957 239.769 295.957Z" fill="#78A702"/>
<path d="M240.916 283.482C240.916 286.246 238.68 288.482 235.916 288.482C233.152 288.482 230.917 286.246 230.917 283.482C230.917 280.718 233.152 278.482 235.916 278.482C238.68 278.482 240.916 280.718 240.916 283.482Z" fill="#78A702"/>
<path d="M257.177 290.974C259.889 288.261 259.889 283.863 257.176 281.15C254.464 278.437 250.065 278.437 247.352 281.15C244.639 283.863 244.639 288.261 247.352 290.974C250.065 293.687 254.464 293.687 257.177 290.974Z" fill="#78A702"/>
<path d="M267.267 296.261C269.979 293.548 269.979 289.15 267.266 286.437C264.554 283.724 260.155 283.724 257.442 286.437C254.729 289.15 254.729 293.548 257.442 296.261C260.155 298.974 264.554 298.974 267.267 296.261Z" fill="#78A702"/>
<path d="M296.31 299.224C296.31 299.224 290.626 311.724 278.811 306.419C278.811 306.419 265.775 317.631 254.719 307.401C254.719 307.401 233.952 310.577 227.443 299.901C226.882 298.977 226.428 298.061 226.09 297.162C224.86 293.911 224.976 290.825 225.9 288.103C227.402 283.68 231.015 280.232 234.382 278.664C233.953 282.038 233.754 285.834 238.796 286.881C245.165 288.21 249.678 284.093 253.267 283.028C256.848 281.964 254.727 291.659 262.557 290.726C270.387 289.794 272.78 280.702 275.568 281.964C285.238 286.337 289.644 278.177 289.644 278.177C292.961 281.692 301.327 278.639 300.518 271.016C301.483 271.552 302.432 272.237 303.331 273.111C303.414 273.194 303.496 273.276 303.579 273.359C304.891 274.695 306.071 276.453 307.003 278.746C311.772 290.586 296.31 299.224 296.31 299.224Z" fill="#5B7D01"/>
<path d="M296.31 299.225C296.31 299.225 290.626 311.724 278.811 306.419C278.811 306.419 265.775 317.632 254.719 307.401C254.719 307.401 233.952 310.577 227.443 299.901C226.882 298.977 226.428 298.061 226.09 297.162C224.86 293.911 224.976 290.825 225.9 288.103C226.032 291.296 228.111 294.877 230.875 296.048C238.4 299.233 243.977 294.456 243.977 294.456C243.977 294.456 244.637 300.297 250.082 300.825C255.528 301.353 257.78 296.84 257.78 296.84C257.78 296.84 262.912 302.327 270.527 300.561C276.657 299.134 278.489 294.81 277.606 290.652C277.606 290.652 283.002 293.796 287.383 290.875C291.764 287.954 291.368 282.509 291.368 282.509C291.368 282.509 304.016 283.936 303.579 273.384C304.891 274.72 306.071 276.478 307.003 278.771C311.772 290.586 296.31 299.225 296.31 299.225Z" fill="#4A6B00"/>
<path d="M296.31 299.224C296.31 299.224 290.625 311.724 278.81 306.419C278.81 306.419 265.775 317.631 254.719 307.401C254.719 307.401 233.952 310.577 227.443 299.901C226.881 298.977 226.428 298.061 226.09 297.162C237.129 307.723 257.244 305.074 257.244 305.074C268.266 311.848 278.885 300.429 278.885 300.429C291.896 303.746 294.28 293.928 294.28 293.928C303.826 290.966 305.831 279.852 303.323 273.136C304.734 274.506 306.004 276.329 306.994 278.771C311.772 290.586 296.31 299.224 296.31 299.224Z" fill="#3F5901"/>
<path d="M280.964 265.339C282.017 265.339 282.87 264.508 282.87 263.483C282.87 262.458 282.017 261.627 280.964 261.627C279.912 261.627 279.058 262.458 279.058 263.483C279.058 264.508 279.912 265.339 280.964 265.339Z" fill="#B0D14C"/>
<path d="M276.971 260.752C276.971 261.445 276.401 262.006 275.692 262.006C274.982 262.006 274.413 261.445 274.413 260.752C274.413 260.059 274.982 259.498 275.692 259.498C276.401 259.498 276.971 260.059 276.971 260.752Z" fill="#B0D14C"/>
<path d="M249.67 269.564C249.67 270.356 249.01 270.999 248.193 270.999C247.376 270.999 246.716 270.356 246.716 269.564C246.716 268.771 247.376 268.128 248.193 268.128C249.01 268.128 249.67 268.771 249.67 269.564Z" fill="#B0D14C"/>
<path d="M245.223 268.211C245.223 268.747 244.777 269.176 244.232 269.176C243.688 269.176 243.242 268.739 243.242 268.211C243.242 267.674 243.688 267.245 244.232 267.245C244.777 267.245 245.223 267.674 245.223 268.211Z" fill="#B0D14C"/>
<path d="M243.812 272.212C243.812 272.517 243.556 272.765 243.243 272.765C242.929 272.765 242.674 272.517 242.674 272.212C242.674 271.907 242.929 271.659 243.243 271.659C243.556 271.659 243.812 271.907 243.812 272.212Z" fill="#B0D14C"/>
<path d="M263.259 250.819C263.836 251.363 263.861 252.279 263.308 252.881C262.755 253.475 261.831 253.516 261.254 252.972C260.676 252.427 260.652 251.512 261.204 250.909C261.757 250.315 262.681 250.274 263.259 250.819Z" fill="#B0D14C"/>
<path d="M258.877 252.543C259.265 252.906 259.282 253.525 258.91 253.929C258.539 254.325 257.92 254.358 257.524 253.995C257.137 253.632 257.12 253.013 257.491 252.609C257.871 252.205 258.49 252.18 258.877 252.543Z" fill="#B0D14C"/>
<path d="M287.994 263.343C288.382 263.706 288.398 264.325 288.027 264.729C287.656 265.125 287.037 265.158 286.641 264.795C286.245 264.432 286.237 263.813 286.608 263.409C286.987 263.004 287.606 262.971 287.994 263.343Z" fill="#B0D14C"/>
<path d="M282.672 257.972C282.961 258.244 282.969 258.698 282.697 258.995C282.425 259.292 281.963 259.308 281.682 259.044C281.393 258.772 281.385 258.318 281.658 258.021C281.93 257.724 282.384 257.699 282.672 257.972Z" fill="#B0D14C"/>
<path d="M266.154 255.439C266.451 255.719 266.468 256.198 266.179 256.503C265.89 256.808 265.412 256.833 265.115 256.553C264.818 256.272 264.801 255.793 265.09 255.488C265.379 255.183 265.857 255.158 266.154 255.439Z" fill="#B0D14C"/>
<path d="M255.14 256.536C255.338 256.718 255.346 257.031 255.156 257.237C254.967 257.444 254.653 257.452 254.455 257.27C254.257 257.089 254.249 256.775 254.439 256.569C254.629 256.371 254.942 256.355 255.14 256.536Z" fill="#B0D14C"/>
<path d="M268.687 363.521C267.804 363.397 266.946 363.208 266.138 362.935C268.992 356.879 268.786 346.674 268.786 346.674C269.793 352.201 269.174 359.47 268.687 363.521Z" fill="#A57349"/>
<path d="M276.327 363.373C275.873 363.439 275.403 363.496 274.908 363.546C274.331 359.709 273.679 351.83 273.679 351.83C274.124 356.294 275.642 361.285 276.327 363.373Z" fill="#A57349"/>
<path d="M272.994 363.694C272.301 363.727 271.592 363.736 270.882 363.711C271.179 358.67 271.658 344.834 268.836 334.034C268.836 334.034 270.321 336.979 271.559 346.888C272.458 354.041 272.846 360.6 272.994 363.694Z" fill="#A57349"/>
<path d="M279.289 362.836C278.86 362.935 278.373 363.034 277.829 363.125L274.19 342.82L279.289 362.836Z" fill="#7C4F2D"/>
<path d="M121.465 373.578C136.793 373.578 149.22 371.646 149.22 369.263C149.22 366.88 136.793 364.948 121.465 364.948C106.136 364.948 93.7098 366.88 93.7098 369.263C93.7098 371.646 106.136 373.578 121.465 373.578Z" fill="#9B8565"/>
<path d="M126.596 319.232C127.669 325.346 135.078 318.721 136.951 317.169L141.076 323.432C141.076 323.432 128.032 329.182 129.905 337.251C131.786 345.329 138.09 367.993 138.09 367.993C138.09 367.993 136.868 368.348 134.888 368.785C134.17 368.942 133.354 369.107 132.463 369.272C131.679 369.412 130.846 369.552 129.963 369.676C129.204 369.783 128.42 369.882 127.603 369.973C126.572 370.08 125.499 370.163 124.41 370.212C123.255 370.27 122.067 370.278 120.887 370.237C119.666 370.196 118.437 370.097 117.24 369.924C115.772 369.717 114.344 369.395 113 368.942C111.094 368.298 109.353 367.382 107.901 366.104C107.901 366.104 123.197 340.469 107.463 320.107C92.4227 300.644 83.578 281.255 79.1557 259.589L80.9791 259.35C80.9791 259.35 86.9691 289.299 103.775 300.503C118.354 310.223 112.843 299.414 109.675 287.162C104.477 267.039 105.582 248.682 111.226 242.386L112.991 243.385C112.991 243.385 104.584 255.249 112.331 278.4C117.29 293.235 122.801 291.667 122.801 285.916C122.801 280.166 120.004 259.086 131.646 249.944L132.826 250.975C132.826 250.975 117.034 262.171 128.478 292.327C129.286 294.464 131.506 299.926 140.936 294.538C146.093 291.593 149.937 281.907 150.259 276.593C150.812 267.526 146.282 259.457 146.282 259.457L147.718 258.574C147.718 258.574 155.127 268.632 151.035 284.448C146.942 300.248 125.276 311.691 126.596 319.232Z" fill="#7C4F2D"/>
<path d="M125.12 319.083C126.192 325.197 135.07 318.712 136.951 317.169L140.268 322.07C140.268 322.07 126.555 329.034 128.436 337.103C130.317 345.18 136.621 367.844 136.621 367.844C136.621 367.844 135.4 368.199 133.42 368.636C132.702 368.793 131.885 368.958 130.994 369.123C130.21 369.263 129.377 369.404 128.494 369.527C127.735 369.635 126.951 369.734 126.135 369.824C125.103 369.932 124.031 370.014 122.941 370.064C121.786 370.121 120.598 370.13 119.418 370.088C118.197 370.047 116.968 369.948 115.772 369.775C114.303 369.569 112.876 369.247 111.531 368.793C109.625 368.149 107.884 367.234 106.44 365.955C106.44 365.955 121.737 340.32 106.003 319.958C90.9623 300.495 82.1177 281.106 77.6954 259.44L79.5189 259.201C79.5189 259.201 85.5087 289.15 102.315 300.355C116.894 310.074 111.382 299.266 108.214 287.014C103.016 266.89 104.122 248.533 109.765 242.238L111.531 243.236C111.531 243.236 103.124 255.1 110.871 278.251C115.83 293.086 121.341 291.518 121.341 285.768C121.341 280.017 118.544 258.937 130.185 249.795L131.365 250.827C131.365 250.827 115.574 262.023 127.017 292.178C127.826 294.315 130.045 299.777 139.476 294.39C144.632 291.444 148.477 281.758 148.799 276.445C149.352 267.377 144.822 259.308 144.822 259.308L146.258 258.425C146.258 258.425 153.667 268.483 149.574 284.299C145.482 300.115 123.808 311.542 125.12 319.083Z" fill="#8B5E35"/>
<path d="M163.262 262.823C163.262 262.823 153.799 283.647 134.104 274.811C134.104 274.811 112.397 293.49 93.9656 276.453C93.9656 276.453 90.426 276.989 85.2529 277.146C74.2632 277.476 55.8975 276.049 48.5215 263.953C47.5809 262.419 46.8384 260.892 46.2691 259.383C44.2147 253.97 44.4209 248.822 45.9555 244.292C48.4554 236.924 54.4784 231.182 60.0805 228.575C61.6316 227.849 63.1414 227.37 64.544 227.156C65.7486 226.974 66.8624 226.983 67.8359 227.222C67.8359 227.222 61.5573 213.584 68.4382 207.437C75.7317 200.911 84.8817 205.638 84.8817 205.638C84.8817 205.638 80.5995 189.294 94.2047 181.448C98.396 179.03 105.475 177.339 112.1 179.195C117.595 180.738 122.793 184.723 125.78 192.759C125.78 192.759 126.275 192.413 127.174 191.909C130.425 190.111 138.906 186.439 147.495 191.175C159.219 197.635 153.683 213.179 153.683 213.179C153.683 213.179 162.198 211.364 170.258 215.853C171.867 216.752 173.451 217.89 174.953 219.351C175.093 219.483 175.225 219.623 175.365 219.763C177.552 221.991 179.524 224.92 181.067 228.74C189.012 248.442 163.262 262.823 163.262 262.823Z" fill="#92C30E"/>
<path d="M131.129 248.488C137.974 245.652 141.225 237.804 138.389 230.959C135.554 224.114 127.706 220.863 120.861 223.699C114.015 226.534 110.765 234.382 113.6 241.227C116.436 248.073 124.284 251.323 131.129 248.488Z" fill="#78A702"/>
<path d="M154.027 247.262C159.951 244.808 162.764 238.017 160.31 232.094C157.856 226.171 151.066 223.358 145.142 225.811C139.219 228.265 136.406 235.056 138.86 240.979C141.313 246.902 148.104 249.715 154.027 247.262Z" fill="#78A702"/>
<path d="M171.496 232.404C175.727 228.174 175.726 221.315 171.496 217.084C167.265 212.854 160.407 212.854 156.176 217.084C151.946 221.315 151.945 228.174 156.176 232.404C160.406 236.635 167.266 236.635 171.496 232.404Z" fill="#78A702"/>
<path d="M79.6764 249.184C81.0513 243.361 77.4458 237.526 71.6232 236.151C65.8007 234.777 59.966 238.382 58.5911 244.205C57.2163 250.027 60.8218 255.862 66.6444 257.237C72.4669 258.612 78.3015 255.006 79.6764 249.184Z" fill="#78A702"/>
<path d="M68.5164 242.501C71.7707 239.247 71.7707 233.97 68.5165 230.716C65.2623 227.462 59.986 227.462 56.7318 230.716C53.4776 233.97 53.4777 239.246 56.7319 242.501C59.9861 245.755 65.2622 245.755 68.5164 242.501Z" fill="#78A702"/>
<path d="M89.9227 252.452C96.3157 252.452 101.498 247.27 101.498 240.877C101.498 234.484 96.3157 229.301 89.9227 229.301C83.5298 229.301 78.3472 234.484 78.3472 240.877C78.3472 247.27 83.5298 252.452 89.9227 252.452Z" fill="#78A702"/>
<path d="M106.729 261.256C113.122 261.256 118.305 256.073 118.305 249.68C118.305 243.287 113.122 238.104 106.729 238.104C100.336 238.104 95.1537 243.287 95.1537 249.68C95.1537 256.073 100.336 261.256 106.729 261.256Z" fill="#78A702"/>
<path d="M163.262 262.823C163.262 262.823 153.798 283.647 134.104 274.811C134.104 274.811 112.397 293.49 93.9654 276.453C93.9654 276.453 59.3707 281.742 48.5295 263.962C47.5889 262.427 46.8464 260.901 46.2771 259.391C44.2227 253.978 44.4289 248.83 45.9635 244.301C48.4634 236.933 54.4864 231.199 60.0885 228.583C59.3707 234.21 59.0489 240.522 67.448 242.271C78.0664 244.482 85.5827 237.626 91.5478 235.86C97.5212 234.095 93.9817 250.233 107.026 248.69C120.07 247.139 124.055 231.991 128.7 234.095C144.813 241.38 152.14 227.791 152.14 227.791C157.668 233.649 171.603 228.567 170.258 215.869C171.867 216.768 173.451 217.907 174.953 219.367C175.093 219.499 175.225 219.64 175.365 219.78C177.543 222.008 179.523 224.936 181.066 228.756C189.012 248.434 163.262 262.823 163.262 262.823Z" fill="#5B7D01"/>
<path d="M163.262 262.823C163.262 262.823 153.798 283.648 134.104 274.811C134.104 274.811 112.397 293.49 93.9654 276.453C93.9654 276.453 59.3707 281.742 48.5295 263.962C47.5889 262.427 46.8464 260.901 46.2771 259.391C44.2227 253.979 44.4289 248.83 45.9635 244.301C46.178 249.622 49.6433 255.579 54.2471 257.526C66.7797 262.831 76.0698 254.878 76.0698 254.878C76.0698 254.878 77.1754 264.605 86.2428 265.488C95.3101 266.371 99.0724 258.855 99.0724 258.855C99.0724 258.855 107.62 267.996 120.301 265.051C130.507 262.675 133.568 255.472 132.099 248.541C132.099 248.541 141.092 253.772 148.386 248.913C155.688 244.045 155.019 234.977 155.019 234.977C155.019 234.977 176.091 237.362 175.365 219.772C177.543 221.999 179.523 224.928 181.066 228.748C189.012 248.434 163.262 262.823 163.262 262.823Z" fill="#4A6B00"/>
<path d="M163.262 262.823C163.262 262.823 153.799 283.647 134.105 274.811C134.105 274.811 112.398 293.49 93.9658 276.453C93.9658 276.453 59.3712 281.742 48.53 263.962C47.5894 262.427 46.8469 260.901 46.2776 259.391C64.6763 276.981 98.1818 272.567 98.1818 272.567C116.539 283.845 134.228 264.828 134.228 264.828C155.903 270.356 159.879 253.995 159.879 253.995C175.786 249.061 179.12 230.555 174.945 219.359C177.288 221.636 179.417 224.681 181.059 228.74C189.012 248.434 163.262 262.823 163.262 262.823Z" fill="#3F5901"/>
<path d="M137.694 206.373C139.444 206.373 140.862 204.988 140.862 203.279C140.862 201.57 139.444 200.185 137.694 200.185C135.944 200.185 134.525 201.57 134.525 203.279C134.525 204.988 135.944 206.373 137.694 206.373Z" fill="#B0D14C"/>
<path d="M131.044 198.724C131.044 199.871 130.086 200.804 128.915 200.804C127.735 200.804 126.786 199.871 126.786 198.724C126.786 197.578 127.743 196.645 128.915 196.645C130.095 196.645 131.044 197.578 131.044 198.724Z" fill="#B0D14C"/>
<path d="M85.5584 213.41C85.5584 214.73 84.4611 215.811 83.108 215.811C81.7549 215.811 80.6576 214.739 80.6576 213.41C80.6576 212.09 81.7549 211.01 83.108 211.01C84.4611 211.01 85.5584 212.09 85.5584 213.41Z" fill="#B0D14C"/>
<path d="M78.1494 211.158C78.1494 212.049 77.4069 212.767 76.4993 212.767C75.5917 212.767 74.8492 212.049 74.8492 211.158C74.8492 210.267 75.5917 209.549 76.4993 209.549C77.4069 209.549 78.1494 210.267 78.1494 211.158Z" fill="#B0D14C"/>
<path d="M75.7981 217.824C75.7981 218.336 75.3772 218.749 74.8574 218.749C74.3377 218.749 73.917 218.336 73.917 217.824C73.917 217.313 74.3377 216.9 74.8574 216.9C75.3772 216.9 75.7981 217.313 75.7981 217.824Z" fill="#B0D14C"/>
<path d="M108.206 182.182C109.171 183.09 109.204 184.624 108.28 185.614C107.356 186.605 105.822 186.679 104.856 185.771C103.891 184.864 103.858 183.329 104.782 182.339C105.698 181.349 107.232 181.275 108.206 182.182Z" fill="#B0D14C"/>
<path d="M101.02 187.338C101.642 186.671 101.619 185.64 100.969 185.034C100.319 184.428 99.2886 184.477 98.667 185.143C98.0453 185.81 98.0682 186.841 98.718 187.447C99.3678 188.053 100.398 188.004 101.02 187.338Z" fill="#B0D14C"/>
<path d="M149.526 205.323C150.148 204.657 150.125 203.625 149.475 203.019C148.825 202.413 147.794 202.462 147.173 203.128C146.551 203.795 146.574 204.826 147.224 205.432C147.874 206.038 148.904 205.99 149.526 205.323Z" fill="#B0D14C"/>
<path d="M140.54 194.104C141.018 194.55 141.035 195.309 140.581 195.804C140.119 196.291 139.36 196.332 138.882 195.878C138.403 195.432 138.386 194.673 138.84 194.178C139.302 193.692 140.061 193.659 140.54 194.104Z" fill="#B0D14C"/>
<path d="M113.024 189.888C113.528 190.358 113.544 191.15 113.066 191.662C112.587 192.173 111.795 192.215 111.292 191.744C110.789 191.274 110.772 190.482 111.251 189.97C111.729 189.459 112.521 189.418 113.024 189.888Z" fill="#B0D14C"/>
<path d="M94.6751 191.712C95.0052 192.017 95.0134 192.545 94.6999 192.875C94.3864 193.205 93.8667 193.238 93.5367 192.924C93.2066 192.611 93.1984 192.091 93.5119 191.761C93.8254 191.431 94.3451 191.406 94.6751 191.712Z" fill="#B0D14C"/>
<path d="M117.249 369.932C115.78 369.725 114.353 369.404 113.008 368.95C117.769 358.859 117.422 341.863 117.422 341.863C119.08 351.079 118.057 363.183 117.249 369.932Z" fill="#A57349"/>
<path d="M129.971 369.676C129.212 369.783 128.428 369.882 127.611 369.973C126.646 363.587 125.557 350.452 125.557 350.452C126.3 357.894 128.833 366.211 129.971 369.676Z" fill="#A57349"/>
<path d="M124.418 370.212C123.263 370.27 122.075 370.278 120.895 370.237C121.39 361.846 122.182 338.794 117.488 320.792C117.488 320.792 119.955 325.692 122.026 342.202C123.527 354.132 124.171 365.064 124.418 370.212Z" fill="#A57349"/>
<path d="M134.897 368.785C134.179 368.942 133.362 369.107 132.471 369.272L126.415 335.444L134.897 368.785Z" fill="#7C4F2D"/>
<path d="M164.434 379.766C185.399 379.766 202.394 378.433 202.394 376.788C202.394 375.143 185.399 373.81 164.434 373.81C143.468 373.81 126.473 375.143 126.473 376.788C126.473 378.433 143.468 379.766 164.434 379.766Z" fill="#656970"/>
<path d="M197.972 376.483L136.06 377.464C136.06 377.464 128.106 374.725 129.303 366.227C130.532 357.506 139.434 357.812 139.434 357.812C139.434 357.812 139.426 357.746 139.41 357.622C139.269 356.541 138.783 351.137 142.693 348.629C143.172 348.323 143.642 348.076 144.096 347.886C144.17 347.853 144.253 347.82 144.327 347.795C148.667 346.129 151.81 349.281 151.81 349.281C151.81 349.281 153.65 342.037 160.746 340.807C167.66 339.611 174.285 343.843 172.816 352.878C172.816 352.878 178.105 347.779 184.606 351.681C189.738 354.759 187.807 361.252 187.502 362.168C187.477 362.242 187.461 362.275 187.461 362.275L187.469 362.267C187.477 362.259 187.51 362.242 187.56 362.217C188.286 361.83 192.931 359.503 195.942 362.613C199.449 366.235 195.761 370.286 195.761 370.286C195.761 370.286 199.564 371.813 197.972 376.483Z" fill="#92C30E"/>
<path d="M197.972 376.483L136.06 377.465C136.06 377.465 128.106 374.725 129.303 366.227C130.532 357.507 139.434 357.812 139.434 357.812C139.434 357.812 139.426 357.746 139.41 357.622C141.406 360.972 150.952 363.183 157.495 360.328C157.495 360.328 159.458 366.409 164.434 365.765C169.409 365.122 170.886 361.615 170.886 361.615C170.886 361.615 171.62 364.701 175.168 364.882C178.715 365.064 179.359 362.168 179.359 362.168C179.359 362.168 182.849 364.008 187.502 362.152C187.477 362.226 187.461 362.259 187.461 362.259L187.469 362.251C187.477 362.242 187.51 362.226 187.56 362.201C188.286 361.813 192.931 359.487 195.942 362.597C199.449 366.219 195.761 370.27 195.761 370.27C195.761 370.27 199.564 371.813 197.972 376.483Z" fill="#78A702"/>
<path d="M197.972 376.483L136.06 377.464C136.06 377.464 128.106 374.725 129.303 366.227C130.466 357.976 138.494 357.803 139.36 357.812C141.447 360.905 146.274 364.775 153.064 364.016C155.176 363.859 156.711 363.174 156.967 363.059C156.992 363.051 157.008 363.042 157.008 363.042C157.008 363.042 157.008 363.042 157.008 363.051C157.066 363.216 158.18 367.844 162.412 368.331C166.711 368.818 169.351 365.262 169.351 365.262C169.351 365.262 175.679 370.171 179.243 364.28C179.243 364.28 184.524 367.291 187.568 362.234C188.294 361.846 192.939 359.519 195.951 362.63C199.457 366.252 195.769 370.303 195.769 370.303C195.769 370.303 199.564 371.813 197.972 376.483Z" fill="#5B7D01"/>
<path d="M197.972 376.483L136.06 377.464C136.06 377.464 128.106 374.725 129.303 366.227C130.466 357.96 138.527 357.803 139.368 357.812C139.723 358.455 140.243 359.099 140.986 359.701C139.509 360.46 136.992 364.131 138.857 367.357C141.068 371.194 144.566 371.78 148.749 369.94C148.749 369.94 149.946 374.61 154.648 374.148C158.881 373.735 159.59 370.649 159.59 370.649C159.59 370.649 162.247 374.016 166.422 374.197C172.197 374.445 172.981 370.402 172.981 370.402C172.981 370.402 175.225 374.931 181.669 373.455C185.794 372.514 185.629 369.106 185.629 369.106C185.629 369.106 190.076 368.842 190.629 366.334C191.042 364.47 189.961 362.118 187.477 362.259L187.486 362.25C187.684 362.135 192.749 359.28 195.951 362.597C199.457 366.219 195.769 370.27 195.769 370.27C195.769 370.27 199.564 371.813 197.972 376.483Z" fill="#3F5901"/>
<path d="M151.06 351.64C151.06 352.606 150.276 353.389 149.31 353.389C148.345 353.389 147.561 352.606 147.561 351.64C147.561 350.675 148.345 349.891 149.31 349.891C150.276 349.891 151.06 350.675 151.06 351.64Z" fill="#B0D14C"/>
<path d="M146.051 350.733C146.502 350.733 146.868 350.367 146.868 349.916C146.868 349.465 146.502 349.099 146.051 349.099C145.6 349.099 145.234 349.465 145.234 349.916C145.234 350.367 145.6 350.733 146.051 350.733Z" fill="#B0D14C"/>
<path d="M170.638 347.399C170.638 348.365 169.854 349.148 168.889 349.148C167.924 349.148 167.14 348.365 167.14 347.399C167.14 346.434 167.924 345.65 168.889 345.65C169.854 345.65 170.638 346.434 170.638 347.399Z" fill="#B0D14C"/>
<path d="M164.689 347.325C165.141 347.325 165.506 346.959 165.506 346.508C165.506 346.057 165.141 345.691 164.689 345.691C164.238 345.691 163.873 346.057 163.873 346.508C163.873 346.959 164.238 347.325 164.689 347.325Z" fill="#B0D14C"/>
<path d="M160.407 348.06C161.255 348.06 161.942 347.372 161.942 346.525C161.942 345.677 161.255 344.99 160.407 344.99C159.56 344.99 158.873 345.677 158.873 346.525C158.873 347.372 159.56 348.06 160.407 348.06Z" fill="#B0D14C"/>
<path d="M165.877 343.208C165.877 343.81 165.391 344.305 164.78 344.305C164.178 344.305 163.683 343.819 163.683 343.208C163.683 342.597 164.17 342.111 164.78 342.111C165.382 342.111 165.877 342.597 165.877 343.208Z" fill="#B0D14C"/>
<path d="M185.778 359.123C185.489 359.726 184.763 359.973 184.161 359.676C183.558 359.387 183.311 358.661 183.608 358.059C183.905 357.457 184.623 357.209 185.225 357.506C185.819 357.795 186.066 358.521 185.778 359.123Z" fill="#B0D14C"/>
<path d="M182.139 356.302C181.983 356.623 181.595 356.755 181.265 356.599C180.943 356.442 180.811 356.054 180.968 355.724C181.125 355.402 181.512 355.27 181.842 355.427C182.164 355.592 182.296 355.98 182.139 356.302Z" fill="#B0D14C"/>
<path d="M185.341 355.501C185.085 356.021 184.466 356.236 183.946 355.98C183.426 355.724 183.212 355.105 183.468 354.586C183.723 354.066 184.342 353.851 184.862 354.107C185.382 354.363 185.596 354.99 185.341 355.501Z" fill="#B0D14C"/>
<path d="M342.439 364.8C342.439 366.12 328.801 367.193 311.978 367.193C295.155 367.193 281.517 366.12 281.517 364.8C281.517 363.48 295.155 362.407 311.978 362.407C328.801 362.415 342.439 363.48 342.439 364.8Z" fill="#656970"/>
<path d="M338.891 364.561L289.215 365.353C289.215 365.353 282.829 363.15 283.794 356.335C284.776 349.338 291.929 349.586 291.929 349.586C291.929 349.586 291.921 349.536 291.905 349.429C291.789 348.563 291.401 344.223 294.536 342.218C294.924 341.971 295.296 341.773 295.667 341.624C295.733 341.599 295.791 341.575 295.848 341.55C299.33 340.213 301.855 342.738 301.855 342.738C301.855 342.738 303.332 336.921 309.025 335.94C314.569 334.974 319.89 338.382 318.711 345.626C318.711 345.626 322.951 341.533 328.174 344.66C332.291 347.136 330.74 352.342 330.492 353.076C330.476 353.134 330.459 353.167 330.459 353.167H330.468C330.476 353.159 330.501 353.15 330.534 353.125C331.111 352.812 334.84 350.947 337.258 353.439C340.071 356.343 337.109 359.594 337.109 359.594C337.109 359.594 340.17 360.815 338.891 364.561Z" fill="#92C30E"/>
<path d="M338.891 364.561L289.215 365.353C289.215 365.353 282.829 363.15 283.794 356.335C284.776 349.338 291.929 349.586 291.929 349.586C291.929 349.586 291.921 349.536 291.905 349.429C293.505 352.119 301.162 353.893 306.417 351.599C306.417 351.599 307.993 356.475 311.987 355.963C315.98 355.444 317.159 352.638 317.159 352.638C317.159 352.638 317.754 355.114 320.6 355.262C323.447 355.411 323.966 353.084 323.966 353.084C323.966 353.084 326.771 354.561 330.501 353.067C330.484 353.125 330.468 353.158 330.468 353.158H330.476C330.484 353.15 330.509 353.142 330.542 353.117C331.12 352.803 334.849 350.939 337.266 353.43C340.08 356.335 337.118 359.585 337.118 359.585C337.118 359.585 340.17 360.815 338.891 364.561Z" fill="#78A702"/>
<path d="M338.891 364.561L289.215 365.353C289.215 365.353 282.829 363.15 283.794 356.335C284.727 349.71 291.17 349.578 291.863 349.578C293.538 352.061 297.416 355.163 302.861 354.553C304.553 354.429 305.79 353.876 305.988 353.785C306.013 353.777 306.021 353.769 306.021 353.769C306.062 353.901 306.962 357.614 310.353 358.001C313.801 358.397 315.922 355.535 315.922 355.535C315.922 355.535 320.996 359.478 323.859 354.742C323.859 354.742 328.1 357.16 330.542 353.101C331.12 352.787 334.849 350.922 337.266 353.414C340.08 356.318 337.118 359.569 337.118 359.569C337.118 359.569 340.17 360.815 338.891 364.561Z" fill="#5B7D01"/>
<path d="M338.891 364.561L289.215 365.353C289.215 365.353 282.829 363.15 283.794 356.335C284.727 349.701 291.195 349.578 291.872 349.578C292.16 350.089 292.573 350.609 293.167 351.096C291.979 351.706 289.966 354.652 291.459 357.242C293.233 360.32 296.046 360.79 299.396 359.313C299.396 359.313 300.353 363.059 304.124 362.688C307.523 362.358 308.092 359.883 308.092 359.883C308.092 359.883 310.221 362.589 313.579 362.729C318.207 362.927 318.843 359.685 318.843 359.685C318.843 359.685 320.641 363.323 325.814 362.135C329.123 361.376 328.991 358.645 328.991 358.645C328.991 358.645 332.555 358.439 333.001 356.417C333.331 354.916 332.464 353.035 330.468 353.142H330.476C330.633 353.051 334.7 350.757 337.274 353.414C340.088 356.318 337.126 359.569 337.126 359.569C337.126 359.569 340.17 360.815 338.891 364.561Z" fill="#3F5901"/>
<path d="M301.252 344.619C301.252 345.395 300.625 346.022 299.85 346.022C299.074 346.022 298.447 345.395 298.447 344.619C298.447 343.844 299.074 343.217 299.85 343.217C300.617 343.217 301.252 343.844 301.252 344.619Z" fill="#B0D14C"/>
<path d="M297.886 343.241C297.886 343.604 297.598 343.893 297.235 343.893C296.872 343.893 296.583 343.604 296.583 343.241C296.583 342.878 296.872 342.59 297.235 342.59C297.598 342.59 297.886 342.878 297.886 343.241Z" fill="#B0D14C"/>
<path d="M316.961 341.22C316.961 341.995 316.334 342.622 315.559 342.622C314.783 342.622 314.156 341.995 314.156 341.22C314.156 340.444 314.783 339.817 315.559 339.817C316.334 339.817 316.961 340.444 316.961 341.22Z" fill="#B0D14C"/>
<path d="M312.185 341.162C312.545 341.162 312.836 340.87 312.836 340.51C312.836 340.15 312.545 339.858 312.185 339.858C311.825 339.858 311.533 340.15 311.533 340.51C311.533 340.87 311.825 341.162 312.185 341.162Z" fill="#B0D14C"/>
<path d="M309.981 340.519C309.981 341.195 309.429 341.748 308.752 341.748C308.076 341.748 307.523 341.195 307.523 340.519C307.523 339.842 308.076 339.289 308.752 339.289C309.429 339.289 309.981 339.842 309.981 340.519Z" fill="#B0D14C"/>
<path d="M313.141 337.854C313.141 338.34 312.745 338.728 312.267 338.728C311.788 338.728 311.392 338.332 311.392 337.854C311.392 337.367 311.788 336.979 312.267 336.979C312.745 336.979 313.141 337.367 313.141 337.854Z" fill="#B0D14C"/>
<path d="M329.106 350.625C328.875 351.104 328.289 351.302 327.811 351.071C327.332 350.84 327.134 350.254 327.365 349.776C327.596 349.297 328.182 349.099 328.661 349.33C329.139 349.561 329.346 350.147 329.106 350.625Z" fill="#B0D14C"/>
<path d="M326.186 348.365C326.062 348.621 325.748 348.728 325.484 348.604C325.22 348.48 325.121 348.167 325.245 347.903C325.369 347.647 325.682 347.54 325.946 347.663C326.21 347.795 326.318 348.109 326.186 348.365Z" fill="#B0D14C"/>
<path d="M328.759 347.721C328.553 348.134 328.058 348.307 327.637 348.109C327.225 347.903 327.052 347.408 327.25 346.987C327.456 346.574 327.951 346.401 328.372 346.599C328.784 346.806 328.957 347.309 328.759 347.721Z" fill="#B0D14C"/>
<path d="M427.964 374.527C427.964 375.097 422.057 375.567 414.764 375.567C407.478 375.567 401.563 375.105 401.563 374.527C401.563 373.958 407.47 373.488 414.764 373.488C422.057 373.488 427.964 373.958 427.964 374.527Z" fill="#656970"/>
<path d="M426.43 374.42L404.904 374.758C404.904 374.758 402.14 373.801 402.553 370.848C402.982 367.811 406.076 367.919 406.076 367.919C406.076 367.919 406.076 367.894 406.067 367.853C406.018 367.481 405.845 365.6 407.206 364.726C407.371 364.618 407.536 364.536 407.693 364.47C407.718 364.462 407.751 364.445 407.775 364.437C409.285 363.859 410.374 364.948 410.374 364.948C410.374 364.948 411.009 362.432 413.485 362.003C415.886 361.582 418.196 363.059 417.684 366.203C417.684 366.203 419.524 364.429 421.785 365.782C423.567 366.854 422.899 369.107 422.791 369.428C422.783 369.453 422.775 369.47 422.775 369.47C422.775 369.47 422.791 369.461 422.808 369.453C423.055 369.321 424.672 368.513 425.72 369.593C426.941 370.848 425.654 372.258 425.654 372.258C425.654 372.258 426.983 372.795 426.43 374.42Z" fill="#92C30E"/>
<path d="M426.43 374.42L404.904 374.758C404.904 374.758 402.14 373.801 402.553 370.847C402.982 367.811 406.076 367.919 406.076 367.919C406.076 367.919 406.076 367.894 406.067 367.853C406.76 369.016 410.077 369.783 412.354 368.793C412.354 368.793 413.039 370.905 414.763 370.682C416.496 370.46 417.008 369.239 417.008 369.239C417.008 369.239 417.263 370.311 418.501 370.377C419.73 370.443 419.961 369.428 419.961 369.428C419.961 369.428 421.174 370.064 422.791 369.42C422.783 369.445 422.775 369.461 422.775 369.461C422.775 369.461 422.791 369.453 422.808 369.445C423.055 369.313 424.672 368.504 425.72 369.585C426.941 370.839 425.654 372.25 425.654 372.25C425.654 372.25 426.983 372.795 426.43 374.42Z" fill="#78A702"/>
<path d="M426.43 374.42L404.904 374.758C404.904 374.758 402.14 373.801 402.553 370.848C402.957 367.976 405.746 367.919 406.051 367.919C406.777 368.991 408.452 370.336 410.811 370.072C411.546 370.014 412.082 369.775 412.165 369.742C412.173 369.734 412.181 369.734 412.181 369.734C412.198 369.792 412.585 371.4 414.062 371.565C415.556 371.739 416.471 370.501 416.471 370.501C416.471 370.501 418.674 372.209 419.912 370.163C419.912 370.163 421.752 371.211 422.808 369.453C423.055 369.321 424.672 368.513 425.72 369.594C426.941 370.848 425.654 372.258 425.654 372.258C425.654 372.258 426.983 372.795 426.43 374.42Z" fill="#5B7D01"/>
<path d="M426.43 374.42L404.904 374.758C404.904 374.758 402.14 373.801 402.553 370.848C402.957 367.976 405.762 367.919 406.051 367.919C406.175 368.141 406.356 368.364 406.612 368.579C406.101 368.843 405.226 370.122 405.869 371.244C406.637 372.58 407.858 372.778 409.31 372.143C409.31 372.143 409.723 373.768 411.356 373.603C412.825 373.463 413.072 372.382 413.072 372.382C413.072 372.382 413.996 373.554 415.448 373.612C417.453 373.694 417.726 372.292 417.726 372.292C417.726 372.292 418.501 373.867 420.745 373.356C422.181 373.026 422.123 371.846 422.123 371.846C422.123 371.846 423.666 371.755 423.864 370.881C424.004 370.229 423.633 369.412 422.766 369.462C422.832 369.42 424.598 368.43 425.712 369.577C426.933 370.831 425.646 372.242 425.646 372.242C425.646 372.242 426.983 372.795 426.43 374.42Z" fill="#3F5901"/>
<path d="M409.508 366.392C409.845 366.392 410.119 366.119 410.119 365.782C410.119 365.444 409.845 365.171 409.508 365.171C409.171 365.171 408.898 365.444 408.898 365.782C408.898 366.119 409.171 366.392 409.508 366.392Z" fill="#B0D14C"/>
<path d="M408.658 365.187C408.658 365.344 408.535 365.468 408.378 365.468C408.221 365.468 408.098 365.344 408.098 365.187C408.098 365.031 408.221 364.907 408.378 364.907C408.535 364.907 408.658 365.031 408.658 365.187Z" fill="#B0D14C"/>
<path d="M416.315 364.915C416.652 364.915 416.925 364.642 416.925 364.305C416.925 363.968 416.652 363.694 416.315 363.694C415.978 363.694 415.704 363.968 415.704 364.305C415.704 364.642 415.978 364.915 416.315 364.915Z" fill="#B0D14C"/>
<path d="M415.143 363.999C415.143 364.156 415.019 364.28 414.863 364.28C414.706 364.28 414.582 364.156 414.582 363.999C414.582 363.843 414.706 363.719 414.863 363.719C415.019 363.719 415.143 363.843 415.143 363.999Z" fill="#B0D14C"/>
<path d="M413.369 364.544C413.666 364.544 413.906 364.304 413.906 364.008C413.906 363.712 413.666 363.471 413.369 363.471C413.073 363.471 412.833 363.712 412.833 364.008C412.833 364.304 413.073 364.544 413.369 364.544Z" fill="#B0D14C"/>
<path d="M415.275 362.853C415.275 363.059 415.102 363.232 414.896 363.232C414.689 363.232 414.516 363.059 414.516 362.853C414.516 362.646 414.689 362.473 414.896 362.473C415.102 362.465 415.275 362.638 415.275 362.853Z" fill="#B0D14C"/>
<path d="M422.189 368.38C422.09 368.587 421.834 368.677 421.628 368.57C421.422 368.471 421.331 368.215 421.438 368.009C421.537 367.803 421.793 367.712 421.999 367.819C422.206 367.927 422.296 368.174 422.189 368.38Z" fill="#B0D14C"/>
<path d="M420.927 367.407C420.869 367.522 420.737 367.564 420.621 367.514C420.506 367.456 420.465 367.324 420.514 367.209C420.564 367.093 420.704 367.052 420.819 367.102C420.935 367.159 420.976 367.291 420.927 367.407Z" fill="#B0D14C"/>
<path d="M422.041 367.126C421.95 367.308 421.735 367.382 421.554 367.291C421.372 367.201 421.298 366.986 421.389 366.805C421.479 366.623 421.694 366.549 421.876 366.64C422.057 366.73 422.123 366.945 422.041 367.126Z" fill="#B0D14C"/>
</g>
<defs>
<linearGradient id="paint0_linear_5_985" x1="209.784" y1="102.059" x2="202.156" y2="102.059" gradientUnits="userSpaceOnUse">
<stop stop-color="#B4B9C1"/>
<stop offset="0.2262" stop-color="#BCC0C7"/>
<stop offset="0.5697" stop-color="#D1D3D8"/>
<stop offset="0.9858" stop-color="#F3F3F3"/>
<stop offset="1" stop-color="#F4F4F4"/>
</linearGradient>
<linearGradient id="paint1_linear_5_985" x1="336.263" y1="199.528" x2="331.419" y2="199.528" gradientUnits="userSpaceOnUse">
<stop stop-color="#B4B9C1"/>
<stop offset="0.2262" stop-color="#BCC0C7"/>
<stop offset="0.5697" stop-color="#D1D3D8"/>
<stop offset="0.9858" stop-color="#F3F3F3"/>
<stop offset="1" stop-color="#F4F4F4"/>
</linearGradient>
<linearGradient id="paint2_linear_5_985" x1="430.639" y1="268.11" x2="427.426" y2="268.11" gradientUnits="userSpaceOnUse">
<stop stop-color="#B4B9C1"/>
<stop offset="0.2262" stop-color="#BCC0C7"/>
<stop offset="0.5697" stop-color="#D1D3D8"/>
<stop offset="0.9858" stop-color="#F3F3F3"/>
<stop offset="1" stop-color="#F4F4F4"/>
</linearGradient>
</defs>
</svg>
