<svg width="538" height="374" viewBox="0 0 538 374" fill="none" xmlns="http://www.w3.org/2000/svg">
<path d="M256.759 319.54C243.987 319.573 231.216 319.837 218.468 321.057C213.661 321.516 208.954 322.528 204.137 322.936C194.513 323.751 185.062 325.271 175.404 325.972C167.627 326.537 159.818 326.87 152.063 327.587C144.792 328.258 136.744 328.103 129.529 326.994C124.188 326.172 118.823 325.71 113.572 324.39C107.698 322.914 101.316 321.859 95.1961 321.897C86.4683 321.95 77.9688 321.957 69.6166 324.563C66.6845 325.478 63.0951 326.983 60.8687 328.903C55.7719 333.298 55.0823 344.266 60.1708 348.825C68.7426 356.498 87.0366 359.508 99.0516 359.651C112.217 359.806 125.007 358.966 138.192 358.471C150.443 358.012 162.664 357.358 174.936 357.382C200 357.429 225.068 357.382 250.087 355.941C273.592 354.589 297.949 358.371 321.507 358.371C345.664 358.371 368.865 355.216 392.848 357.977C403.297 359.181 413.943 359.602 424.445 360.445C433.851 361.2 442.889 360.43 452.257 359.732C460.123 359.147 467.938 357.409 475.084 354.471C480.742 352.147 490.827 344.923 492.558 339.373C497.425 323.813 424.021 324.188 412.751 324.222C400.143 324.262 387.435 324.618 374.837 324.205C369.537 324.031 364.316 323.141 359.144 322.165C353.993 321.192 348.802 321.439 343.578 321.031C321.792 319.327 299.958 319.576 278.102 319.576C270.991 319.576 263.875 319.522 256.759 319.54" fill="#F1F2F2"/>
<path d="M133.165 129.747L131.628 123.378L128.775 123.928L128.824 128.527L127.357 128.184L129.36 133.471L132.402 133.285L133.165 129.747" fill="#AA6755"/>
<path d="M103.482 185.085C103.311 184.59 103.209 184.038 103.189 183.432C103.107 180.915 104.282 178.465 105.928 176.491C108.534 173.366 112.186 171.003 115.143 168.18C118.526 164.95 121.909 161.721 125.292 158.492L128.058 131.908L134.109 131.837L137.178 164.528C132.47 168.606 127.852 172.574 123.445 176.904C119.493 180.785 116.071 185.742 110.572 187.688C107.467 188.786 104.423 187.801 103.482 185.085" fill="#CCD2D9"/>
<path d="M424.007 32.5109C424.007 32.5109 392.592 65.0643 392.282 92.487C391.973 119.91 413.375 126.646 422.945 126.744C432.515 126.843 454.063 120.55 454.372 93.127C454.681 65.7043 424.007 32.5109 424.007 32.5109Z" fill="#8EC3CB"/>
<path d="M400.814 107.932C400.714 107.932 400.613 107.928 400.511 107.921C399.265 107.835 398.085 107.124 397.466 106.087C397.092 105.461 397.201 104.775 397.053 104.089C396.88 103.292 396.731 102.49 396.606 101.684C396.345 100.004 396.185 98.3111 396.111 96.6145C394.958 70.356 423.304 37.6843 423.304 37.6843C423.304 37.6843 423.333 37.7128 423.385 37.7637C423.522 37.9003 420.986 41.8352 420.754 42.2419C419.859 43.8141 418.988 45.3985 418.14 46.9945C416.344 50.375 414.654 53.8074 413.086 57.2903C409.601 65.0363 406.686 73.0535 404.792 81.2969C403.867 85.3207 403.19 89.401 402.866 93.5108C402.708 95.5047 402.634 97.5051 402.659 99.5051C402.677 100.88 403.094 102.022 403.374 103.353L403.385 103.411C403.604 104.512 403.463 105.658 403.015 106.691C402.625 107.588 401.787 107.932 400.814 107.932" fill="#BBDBE0"/>
<path d="M405.113 115.698C403.798 115.698 402.501 114.923 402.2 113.582C401.913 112.303 402.486 111.112 403.613 110.505C404.094 110.183 404.722 109.995 405.274 109.995C405.283 109.995 405.291 109.995 405.3 109.995C406.039 110.003 406.79 110.317 407.311 110.816C408.712 112.158 408.299 114.41 406.615 115.325C406.151 115.578 405.631 115.698 405.113 115.698Z" fill="#BBDBE0"/>
<path d="M419.11 128.65L420.063 122.765L422.695 123.084L422.97 127.266L424.278 126.861L422.825 131.793L420.048 131.817L419.11 128.65Z" fill="#EFBFA5"/>
<path d="M449.927 177.056C450.049 176.596 450.102 176.089 450.078 175.535C449.978 173.243 448.74 171.091 447.107 169.402C444.522 166.727 441.04 164.812 438.156 162.433C434.857 159.713 431.559 156.993 428.26 154.273L423.9 130.29L418.396 130.609L417.877 160.513C422.439 163.92 426.911 167.233 431.218 170.889C435.078 174.165 438.532 178.453 443.665 179.872C446.563 180.673 449.261 179.585 449.927 177.056" fill="#D34E4E"/>
<path d="M472.609 240.964L474.745 255.014L470.457 334.263L463.266 332.821L451.335 242.728L472.609 240.964" fill="#474EBB"/>
<path d="M437.282 238.324L435.892 290.862L449.852 336.212L457.989 333.32L451.136 292.877L457.429 237.876L437.282 238.324Z" fill="#474EBB"/>
<path d="M458.018 329.073L448.277 333.341L451.546 339.852L446.438 342.928C446.438 342.928 445.956 345.639 447.672 346.783C449.388 347.928 460.502 339.004 460.502 339.004L458.018 329.073" fill="#3B455A"/>
<path d="M472.609 330.613L462.043 332.319L463.433 339.417L457.664 341.122C457.664 341.122 456.463 343.62 457.81 345.151C459.156 346.682 472.312 340.82 472.312 340.82L472.609 330.613Z" fill="#3B455A"/>
<path d="M452.069 152.648C452.823 154.986 453.903 157.227 455.272 159.293C455.305 155.001 455.958 150.712 457.207 146.589C457.302 146.274 457.396 145.918 457.224 145.635C457.063 145.371 456.724 145.265 456.413 145.194C450.858 143.911 450.756 148.572 452.069 152.648" fill="#3B455A"/>
<path d="M455.118 159.376C455.698 161.142 456.658 163.14 458.574 164.217C460.832 165.485 463.244 164.838 464.929 163.863C470.492 160.647 480.134 142.906 465.633 138.551C452.466 134.596 452.715 152.046 455.118 159.376Z" fill="#EFBFA5"/>
<path d="M466.576 159.453C467.442 160.678 469.413 160.399 470.811 159.767C476.555 157.171 480.062 150.684 478.953 144.703C478.026 139.699 471.553 135.813 470.069 141.952C469.543 144.129 470.86 147.192 470.48 149.612C469.936 153.069 468.161 156.347 466.576 159.453" fill="#3B455A"/>
<path d="M452.416 132.162C445.812 135.653 442.86 143.341 436.822 147.666C442.248 150.044 448.695 150.197 454.239 148.078C459.675 146 472.566 144.741 470.88 137.541C469.165 130.213 458.201 129.103 452.416 132.162" fill="#3B455A"/>
<path d="M478.031 177.512C481.811 183.786 481.794 190.891 481.272 197.687C480.09 213.071 481.623 230.909 476.074 245.617C465.599 245.608 445.517 241.016 435.084 239.991C433.051 226.616 434.236 218.796 435.383 203.65C435.948 196.182 437.16 186.163 439.926 179.049C442.19 173.225 448.225 165.704 457.335 165.943C465.873 166.167 474.593 171.807 478.031 177.512Z" fill="#D34E4E"/>
<path d="M460.969 169.048C460.014 169.434 458.845 169.272 457.714 168.225C456.739 167.324 457.04 167.029 457.247 165.702C457.551 163.744 458.096 161.797 458.517 159.858L464.157 160.979C464.153 160.978 463.024 166.229 462.938 166.586C462.663 167.729 461.923 168.662 460.969 169.048" fill="#EFBFA5"/>
<path d="M80.3953 335.027L80.3757 342.942L85.1811 342.953L85.2026 334.178L80.3953 335.027" fill="#AA6755"/>
<path d="M102.235 333.862L103.185 342.413L108.377 341.887L107.324 332.406L102.235 333.862Z" fill="#DEC099"/>
<path d="M108.303 341.6L103.636 342.6L102.152 343.877L102.059 347.248L114.207 349.404C115.381 348.044 114.899 345.99 113.229 345.24L112.678 344.993L108.303 341.6" fill="#4C4646"/>
<path d="M85.1809 342.953L80.3756 342.942L78.6921 345.058L79.0281 348.415L91.3601 349.146L91.7137 348.38C92.4087 346.876 91.3992 345.154 89.6933 344.937L89.4204 344.902L85.1809 342.953" fill="#3B455A"/>
<path d="M69.5095 258.849L74.0644 297.87L75.875 341.558L91.3259 341.61L97.5075 231.597L72.6045 231.97L69.5095 258.849Z" fill="#8EC3CB"/>
<path d="M115.61 253.656L118.961 291.722L114.718 341.49L99.7152 341.062L97.55 292.702L95.0102 257.981L92.4155 232.103L110.379 231.61L115.61 253.656" fill="#8EC3CB"/>
<path d="M106.221 168.558L74.3457 172.633L70.8438 181.074L70.2867 210.277L67.1243 235.305L107.845 235.481L118.002 233.024L114.809 206.788L113.275 177.849L106.221 168.558Z" fill="#CCD2D9"/>
<path d="M89.1866 170.047C89.3143 169.483 89.4419 168.92 89.5696 168.357L89.5138 168.33C86.2462 166.682 84.2874 163.225 83.8487 159.735C83.5626 157.458 83.8462 155.166 84.4351 152.933C84.955 151.627 85.6564 150.393 86.5279 149.295C88.1057 147.307 90.404 145.563 92.8895 145.256C93.9 145.132 93.6105 145.946 94.7241 145.163C94.8738 145.057 95.0386 144.863 95.1976 144.628C95.4069 144.787 95.5531 144.899 95.5927 144.927C96.9593 145.903 98.3439 146.255 99.8884 146.875C102.233 147.817 103.844 150.35 103.776 152.989C103.747 154.081 103.47 155.244 103.911 156.216C104.297 157.065 105.144 157.559 105.748 158.253C106.1 158.659 106.361 159.144 106.531 159.663C104.902 164.068 101.049 168.012 96.5778 169.125L96.5743 169.175C96.5577 169.441 96.5396 169.707 96.5078 169.969C96.367 171.134 95.7776 172.434 94.5793 172.709C94.0316 172.833 93.4583 172.716 92.9091 172.598C91.7998 172.36 90.6911 172.121 89.5818 171.883C89.3549 171.835 89.102 171.769 88.9866 171.577C88.8853 171.407 88.9255 171.198 88.9685 171.008C89.0414 170.687 89.1142 170.367 89.1866 170.047" fill="#AA6755"/>
<path d="M61.9492 145.432C64.3839 144.904 66.7937 145.937 69.0215 146.949C68.9789 144.581 71.0302 142.622 73.1553 141.646C75.2804 140.671 77.6309 140.305 79.6729 139.144C82.1276 137.75 84.3452 135.173 87.0723 135.469C89.5276 135.736 91.461 138.231 93.3361 140.422C93.3679 140.376 93.3997 140.331 93.4315 140.287C94.3618 138.995 95.4011 137.732 96.749 136.933C101.109 134.348 101.534 140.014 105.078 139.152C105.933 138.944 106.554 138.172 107.313 137.698C108.746 136.805 110.557 137.049 112.079 137.635C113.601 138.221 115.008 139.117 116.6 139.483C118.013 139.808 119.531 139.704 120.885 140.217C122.918 140.988 122.871 142.968 123.501 144.667C124.199 146.547 125.206 149.069 126.58 150.505C127.569 151.54 128.922 152.104 130.11 152.889C131.298 153.673 132.407 154.853 132.437 156.335C132.466 157.74 131.52 159.033 131.427 160.44C131.328 162.536 131.747 163.595 131.149 165.753C130.84 166.867 130.492 168.047 129.649 168.827C128.539 169.855 126.905 169.889 125.462 169.708C124.019 169.526 122.522 169.195 121.124 169.694C118.092 170.774 118.775 173.706 118.049 176.206C117.566 177.871 116.431 179.256 115.008 180.185C113.181 181.378 110.88 181.817 108.878 181.129C105.86 180.091 104.015 176.86 104.029 173.612C104.035 172.431 104.363 171.297 104.539 170.142C104.606 169.706 104.652 169.268 104.649 168.822C104.639 167.253 103.629 165.112 105.077 163.819C105.43 163.504 105.891 163.329 106.205 162.973C106.459 162.685 106.592 162.306 106.67 161.929C106.827 161.171 106.768 160.382 106.531 159.663C106.361 159.144 106.1 158.659 105.748 158.253C105.144 157.559 104.297 157.065 103.911 156.216C103.47 155.244 103.747 154.081 103.776 152.989C103.844 150.35 102.233 147.817 99.8885 146.875C98.3439 146.255 96.9593 145.904 95.5928 144.927C95.5532 144.899 95.4069 144.787 95.1976 144.628C95.0387 144.863 94.8738 145.057 94.7242 145.163C93.6105 145.946 93.9 145.132 92.8896 145.256C90.404 145.563 88.1058 147.307 86.528 149.295C85.6564 150.393 84.9551 151.627 84.4352 152.933C83.5088 155.26 83.164 157.817 83.5025 160.26C83.9872 163.751 86.1348 164.986 85.0079 168.759C84.7575 169.596 84.4112 170.408 83.9862 171.176C82.8231 173.277 81.0565 175.044 78.9407 176.072C78.6874 176.113 78.4325 176.141 78.1782 176.162C76.9017 176.264 75.6252 176.114 74.4122 175.748C73.2027 175.384 72.0568 174.806 71.0404 174.05C69.5154 172.916 68.281 171.382 67.5571 169.575C67.1624 168.591 66.8631 167.48 66.0365 166.854C65.3704 166.35 64.4705 166.255 63.7945 165.767C60.9793 163.734 64.805 158.638 63.2032 155.488C62.1903 153.497 59.3546 153.104 58.4043 151.079C57.3425 148.817 59.515 145.961 61.9492 145.432" fill="#3B455A"/>
<path d="M338.987 342.912L338.296 346.307L330.852 348.587L328.166 344.634L332.233 341.797L339.677 339.516L338.987 342.912Z" fill="#3B455A"/>
<path d="M354.973 258.315L339.562 341.876L332.59 342.117L328.45 284.016L326.492 255.157L354.973 258.315Z" fill="#CCD2D9"/>
<path d="M376.06 257.426L366.154 339.333L359.761 339.872L352.998 277.11L347.633 258.607L376.06 257.426" fill="#CCD2D9"/>
<path d="M359.729 339.094L360.043 342.616L367.271 345.555L370.413 341.742L366.642 338.511L359.729 339.094" fill="#3B455A"/>
<path d="M328.166 259.821L325.013 250.171L328.166 239.224L376.06 240.817V257.427L328.166 259.821" fill="#CCD2D9"/>
<path d="M284.69 174.276L283.751 178.368L276.497 177.672L274.868 173.585L277.265 170.597L279.908 172.751L280.084 171.983L279.443 171.048L280.436 170.449L284.69 174.276Z" fill="#AA6755"/>
<path d="M338.049 163.689L310.742 176.118L283.858 172.415L282.132 178.604L313.209 188.151L353.384 175.358L338.049 163.689" fill="#474EBB"/>
<path d="M343.901 139.855C348.742 142.745 355.585 141.092 360.008 144.578C362.884 146.845 363.95 150.9 363.269 154.523C362.951 156.212 362.268 157.884 361.048 159.109C360.256 159.904 359.268 160.483 358.236 160.92C356.855 161.503 355.377 161.821 353.888 161.888C353.993 163.192 354.22 164.486 354.564 165.75C351.784 165.447 349.003 165.145 346.223 164.843C346.399 163.288 346.576 161.734 346.753 160.18C346.074 159.792 345.43 159.346 344.84 158.831C341.272 155.721 339.721 150.495 341.001 145.897C341.601 143.743 342.749 141.781 343.901 139.855" fill="#AA6755"/>
<path d="M356.61 143.691C356.411 143.62 356.21 143.554 356.008 143.491C353.093 142.584 349.969 142.315 346.922 142.65C344.837 142.879 342.497 143.638 341.778 145.749C341.452 146.702 341.461 147.727 341.474 148.73C341.49 149.987 341.505 151.243 341.52 152.499C341.523 152.725 341.523 152.963 341.41 153.161C341.068 153.765 340.048 153.5 339.617 152.951C338.047 150.949 336.095 147.782 335.591 145.344C335.18 143.356 335.927 141.027 335.057 139.151C334.654 138.284 333.841 137.667 333.215 136.93C331.861 135.338 331.41 133.085 332.053 131.127C332.465 129.872 333.343 128.718 334.584 128.149C336.639 127.207 339.112 128.019 341.337 127.553C342.467 127.316 343.505 126.754 344.645 126.569C347.048 126.179 349.383 127.523 351.213 129.06C353.044 130.598 354.702 132.425 356.938 133.352C358.732 134.094 360.748 134.189 362.594 134.801C365.676 135.822 368.137 138.317 369.205 141.263C370.401 144.564 370.119 148.712 367.554 151.3C366.268 152.598 365.22 154.053 364.155 155.511C363.785 156.017 361.656 157.889 361.815 155.925C361.939 154.4 362.576 152.945 362.69 151.419C362.965 147.701 360.039 144.902 356.61 143.691Z" fill="#3B455A"/>
<path d="M361.514 165.482L338.352 163.636C338.352 163.636 330.716 173.148 322.309 200.509C313.903 227.871 320.134 252.09 320.134 252.09C320.134 252.09 346.266 247.59 383.16 251.64L372.411 183.75L361.514 165.482" fill="#474EBB"/>
<path d="M247.909 137.819L250.596 135.126L250.5 131.834L251.209 131.455L251.719 132.28L252.445 129.52L254.369 128.149L257.372 129.099L259.183 131.729L257.873 134.529L254.813 136.668L251.298 140.507L247.909 137.819" fill="#EFBFA5"/>
<path d="M246.97 135.511L221.271 163.122L206.019 163.779L208.929 186.913L229.106 178.311L234.615 174.657L254.852 139.804L246.97 135.511" fill="#7FC5A3"/>
<path d="M205.836 339.75V342.881L214.233 346.894L218.433 342.881L214.233 338.867H213.692L213.557 339.75H205.836Z" fill="#3B455A"/>
<path d="M185.153 338.867H184.574L180.375 342.881L184.574 346.894L192.972 342.881V339.75H185.25L185.153 338.867" fill="#3B455A"/>
<path d="M185.272 220.951C186.377 215.605 187.242 210.67 187.321 207.994C187.558 199.945 188.618 173.362 188.618 173.362L193.758 163.194L194.707 163.202C194.639 163.195 194.571 163.187 194.503 163.179C194.726 163.205 194.395 161.214 194.315 161.038C189.846 160.893 184.087 163.302 181.269 166.659C179.183 169.143 177.943 172.179 176.735 175.163C173.333 183.563 171.79 191.345 170.093 200.178C169.011 205.81 168.011 211.416 167.224 217.007C166.352 223.2 165.738 229.374 165.561 235.512C165.541 236.19 165.4 238.088 165.321 240.355C165.156 245.103 165.262 251.455 167.319 251.692C167.704 251.737 168.075 251.571 168.414 251.41C171.06 250.161 173.144 248.53 175.477 247.104L175.603 222.335L185.272 220.951" fill="#7FC5A3"/>
<path d="M232.543 246.408C232.017 241.137 231.471 235.867 230.804 230.611C229.473 220.128 227.662 209.669 224.598 199.52C223.427 195.643 222.076 191.82 220.727 187.998C219.082 183.344 217.438 178.691 215.794 174.037C213.751 168.253 210.303 164.179 204.264 162.155C203.186 161.794 202.051 161.515 200.881 161.311C200.852 161.431 200.826 161.552 200.81 161.679C200.74 162.235 200.577 162.851 200.215 163.254L204.179 163.29C204.179 163.29 215.36 201.275 215.771 207.822C215.927 210.311 216.447 215.743 217.024 221.466L223.097 222.335L223.357 244.225C223.697 244.32 224.035 244.412 224.371 244.499C226.297 244.996 227.865 246.361 229.465 247.431C231.829 249.012 232.865 249.638 232.543 246.408" fill="#7FC5A3"/>
<path d="M217.024 221.466C217.939 230.523 219.001 240.308 219.001 240.308C219.001 240.308 214.091 240.42 206.99 240.935C207.515 240.924 208.041 240.91 208.565 240.906C213.505 240.863 218.628 242.903 223.357 244.225L223.097 222.335L217.024 221.466" fill="#7FC5A3"/>
<path d="M183.88 243.69C180.493 243.862 180.073 243.252 180.073 243.252C180.073 243.252 183.127 231.325 185.272 220.951L175.602 222.335L175.477 247.104C176.298 246.603 177.148 246.127 178.065 245.702C179.903 244.852 181.866 244.203 183.88 243.69" fill="#7FC5A3"/>
<path d="M223.357 244.225C218.628 242.903 213.505 240.863 208.565 240.906C208.041 240.91 207.515 240.924 206.99 240.935C206.55 240.967 206.102 241.001 205.647 241.036C202.337 241.29 198.618 241.63 194.735 242.08C194.545 242.103 194.355 242.124 194.164 242.147C189.197 243.18 185.973 243.584 183.88 243.69C181.866 244.203 179.903 244.852 178.065 245.702C177.148 246.127 176.298 246.603 175.477 247.104L175.451 252.262L184.919 339.869H192.682V340.761H192.726L201.261 281.998L201.297 281.667L205.973 340.761H206.018V339.869H213.818L223.712 274.064L223.357 244.225" fill="#7FC5A3"/>
<path d="M217.024 221.466C216.447 215.743 215.927 210.311 215.771 207.822C215.36 201.275 204.179 163.29 204.179 163.29L200.215 163.254C200.172 163.302 200.127 163.349 200.077 163.391C199.955 163.494 199.814 163.575 199.651 163.628C199.328 163.731 198.976 163.693 198.638 163.654C197.328 163.504 196.017 163.353 194.707 163.202L193.758 163.194L188.618 173.362C188.618 173.362 187.559 199.945 187.321 207.994C187.242 210.67 186.377 215.604 185.273 220.951C183.127 231.325 180.073 243.252 180.073 243.252C180.073 243.252 180.494 243.862 183.88 243.69C185.973 243.584 189.197 243.18 194.164 242.147C194.355 242.124 194.545 242.103 194.735 242.08C198.618 241.63 202.337 241.29 205.647 241.036C206.102 241.001 206.55 240.967 206.99 240.935C214.091 240.42 219.001 240.308 219.001 240.308C219.001 240.308 217.939 230.523 217.024 221.466" fill="white"/>
<path d="M207.399 138.98C208.394 140.897 208.807 143.069 208.791 145.216C208.786 145.787 208.791 146.447 209.248 146.807C209.736 147.192 209.248 147.96 209.659 147.497C210.071 147.035 211.47 145.428 211.561 144.823C211.774 143.406 211.848 141.969 211.781 140.539C211.723 139.295 211.531 137.988 210.748 137.003C210.284 136.418 209.645 135.992 209.016 135.578C208.104 134.978 207.163 134.372 206.092 134.122C204.245 133.691 203.067 134.284 204.645 135.63C205.776 136.594 206.718 137.667 207.399 138.98" fill="#3B455A"/>
<path d="M194.527 162.713C197.079 163.074 199.632 163.436 202.184 163.797C202.688 161.663 203.033 159.487 203.214 157.296C205.468 157.036 208.132 156.465 209.015 154.229C209.294 153.525 209.344 152.746 209.39 151.984C209.581 148.834 209.772 145.684 209.962 142.534C210.028 141.445 210.09 140.322 209.76 139.291C209.18 137.483 207.525 136.339 205.881 135.59C201.687 133.676 196.69 133.494 192.609 135.712C191.523 136.303 190.486 137.08 189.82 138.172C188.794 139.856 188.798 141.999 188.838 144.004C188.874 145.854 188.91 147.705 188.946 149.555C188.988 151.683 189.186 154.141 190.821 155.345C191.689 155.985 192.845 156.152 193.58 156.961C194.875 158.386 194.123 160.77 194.527 162.713" fill="#EFBFA5"/>
<path d="M201.923 154.8C200.718 155.502 199.434 155.478 198.157 155.034C197.614 154.845 197.895 153.957 198.439 154.146C199.497 154.515 200.512 154.557 201.515 153.973C202.019 153.678 202.424 154.507 201.923 154.8ZM210.242 150.767C210.238 150.181 210.065 148.456 209.104 149.486C208.853 149.756 208.774 150.151 208.739 150.525C208.705 150.899 208.702 151.285 208.562 151.632C208.241 152.427 207.299 152.75 206.478 152.694C206.152 152.672 205.822 152.604 205.542 152.429C205.269 152.26 205.061 152.003 204.856 151.75C204.36 151.135 203.864 150.521 203.368 149.907C202.515 148.851 200.696 149.198 199.466 149.291C198.05 149.399 196.621 149.742 195.423 150.584C195.303 150.669 195.184 150.759 195.066 150.848C194.776 151.067 194.485 151.283 194.156 151.42C193.042 151.879 191.725 151.275 191.014 150.275C190.688 149.816 190.393 149.233 189.855 149.132C189.434 149.054 189.005 149.328 188.767 149.703C188.529 150.078 188.446 150.535 188.393 150.981C188.2 152.603 188.341 154.293 188.99 155.773C190.399 158.982 193.421 159.519 196.482 159.601C197.693 159.634 198.903 159.667 200.113 159.7C202.326 159.76 204.667 159.788 206.594 158.632C208.295 157.613 209.37 155.789 209.874 153.847C210.135 152.845 210.252 151.803 210.242 150.767" fill="#3B455A"/>
<path d="M211.609 133.715C211.863 132.962 212.062 132.192 212.204 131.411C211.442 131.629 210.624 131.656 209.85 131.49C209.871 131.036 209.894 130.583 209.916 130.13C209.932 129.753 204.701 129.226 204.277 129.171C200.305 128.653 196.672 128.168 192.954 130.069C189.778 131.692 187.662 134.248 187.006 137.681C186.38 140.959 187.262 145.327 189.082 148.165C189.117 147.286 188.706 145.187 188.964 144.362C189.139 143.531 189.479 142.739 189.929 142.014C190.827 140.567 192.164 139.379 193.678 138.559C196.092 137.251 198.85 136.634 201.585 136.403C204.091 136.19 207.139 136.031 209.563 136.795C210.728 137.162 210.909 137.46 211.685 136.337C211.823 136.138 212.949 133.802 212.851 133.796C212.437 133.769 212.023 133.742 211.609 133.715" fill="#3B455A"/>
<path d="M147.13 88.6811C145.95 91.6614 144.309 94.4706 142.352 96.7342C139.626 99.888 136.176 102.441 132.32 104.21C124.436 107.827 115.125 108.031 107.03 104.909C104.962 104.113 102.994 102.945 101.214 101.673C97.7061 99.1638 94.8034 95.9096 92.7218 92.2261C88.6149 84.9584 87.8235 76.1465 90.8794 68.3897C94.012 60.4385 100.801 54.1249 109.197 51.34C113.274 49.9875 117.645 49.4826 121.941 49.8804C133.122 50.9174 142.84 57.8826 147.011 67.8614C148.575 71.6033 149.31 75.6528 149.141 79.6798C149.018 82.605 148.3 85.7269 147.13 88.6811" fill="#EBB044"/>
<path d="M121.541 48.0534C124.104 48.6439 131.052 50.4274 137.114 53.6302C137.524 53.8467 138.024 53.5507 138.011 53.1029L137.383 31.949C137.366 31.4286 136.699 31.1884 136.328 31.5698L121.241 47.0927C120.924 47.4185 121.089 47.9492 121.541 48.0534Z" fill="#EBB044"/>
<path d="M139.71 55.3946C141.505 57.2403 146.267 62.3959 149.468 68.2663C149.685 68.6632 150.273 68.681 150.521 68.3004L162.222 50.3349C162.51 49.8935 162.092 49.34 161.563 49.4625L140.015 54.4353C139.563 54.54 139.394 55.0692 139.71 55.3946Z" fill="#EBB044"/>
<path d="M150.691 71.6612C150.934 74.1703 151.412 81.0323 150.199 87.5501C150.116 87.991 150.571 88.3477 151.01 88.1911L171.752 80.7906C172.263 80.6087 172.285 79.9271 171.787 79.7148L151.545 71.0787C151.12 70.8978 150.648 71.2185 150.691 71.6612" fill="#EBB044"/>
<path d="M148.55 90.6427C147.282 92.8516 143.659 98.7931 138.836 103.544C138.509 103.866 138.677 104.405 139.133 104.51L160.654 109.478C161.183 109.6 161.601 109.048 161.313 108.606L149.599 90.6174C149.353 90.2402 148.774 90.2532 148.55 90.6427" fill="#EBB044"/>
<path d="M134.255 105.56C131.778 106.421 124.955 108.605 118.052 109.136C117.585 109.172 117.339 109.684 117.609 110.05L130.36 127.349C130.674 127.775 131.37 127.622 131.458 127.109L135.061 106.202C135.137 105.763 134.693 105.408 134.255 105.56" fill="#EBB044"/>
<path d="M117.827 47.5962C115.261 48.1773 108.306 49.9351 102.231 53.1155C101.82 53.3306 101.321 53.0323 101.336 52.5849L102.051 31.4334C102.068 30.9135 102.737 30.6755 103.107 31.0579L118.131 46.6369C118.446 46.9637 118.279 47.4938 117.827 47.5962" fill="#EBB044"/>
<path d="M99.1626 54.6723C97.284 56.4399 92.289 61.3898 88.8189 67.119C88.5841 67.5066 87.9957 67.4991 87.7658 67.1087L76.9066 48.6668C76.6395 48.2128 77.0826 47.678 77.6055 47.8225L98.9029 53.7013C99.3495 53.8242 99.4942 54.3604 99.1626 54.6723Z" fill="#EBB044"/>
<path d="M87.4778 70.0801C87.1604 72.5817 86.4786 79.4278 87.4984 85.9761C87.5673 86.4188 87.1022 86.7633 86.6679 86.595L66.1539 78.6349C65.6497 78.439 65.6477 77.7569 66.151 77.5587L86.6415 69.4752C87.0714 69.3055 87.5341 69.6388 87.4778 70.0801" fill="#EBB044"/>
<path d="M88.4379 89.0695C89.7056 91.2789 93.3274 97.2213 98.1498 101.973C98.476 102.295 98.3083 102.834 97.8524 102.939L76.3305 107.903C75.8013 108.025 75.3836 107.472 75.6717 107.03L87.3898 89.0443C87.6358 88.667 88.2144 88.6801 88.4379 89.0695" fill="#EBB044"/>
<path d="M115.75 109.161C113.186 108.577 106.232 106.813 100.161 103.626C99.7504 103.41 99.2515 103.707 99.2657 104.155L99.9563 125.308C99.9734 125.828 100.641 126.067 101.011 125.684L116.054 110.121C116.37 109.794 116.203 109.264 115.75 109.161Z" fill="#EBB044"/>
<path d="M506.674 255.012L405.974 269.598L396.504 209.87L497.205 195.284L506.674 255.012Z" fill="#CCD2D9"/>
<path d="M498.775 205.208L398.078 219.794L396.504 209.87L497.205 195.284L498.775 205.208Z" fill="#7FC5A3"/>
<path d="M419.381 200.582L409.315 202.04C407.625 202.285 406.463 203.793 406.719 205.407L407.143 208.081L423.327 205.737L422.903 203.063C422.647 201.448 421.07 200.338 419.381 200.582" fill="#CCD2D9"/>
<path d="M481.755 191.547L471.689 193.006C470 193.251 468.838 194.758 469.094 196.372L469.517 199.046L485.701 196.701L485.277 194.028C485.022 192.414 483.445 191.303 481.755 191.547" fill="#CCD2D9"/>
<path d="M493.507 233.622L473.504 236.519L472.755 231.793L492.759 228.895L493.507 233.622Z" fill="#7FC5A3"/>
<path d="M431.134 242.657L411.13 245.554L410.38 240.828L430.385 237.929L431.134 242.657Z" fill="#7FC5A3"/>
<path d="M419.801 251.661L416.769 232.539L421.714 231.823L424.746 250.945L419.801 251.661Z" fill="#7FC5A3"/>
<path d="M405.974 269.598C445.186 263.918 468.052 249.281 481.269 235.395L493.507 233.622L492.759 228.895L486.091 229.861C496.691 216.534 498.775 205.208 498.775 205.208L506.674 255.012L454.605 262.554L436.572 265.166L405.974 269.598Z" fill="#BAC0C6"/>
<path d="M481.269 235.395C483.045 233.529 484.647 231.676 486.091 229.861L492.759 228.895L493.507 233.622L481.269 235.395" fill="#75B495"/>
<path d="M215.455 224.685L235.301 229.258L265.505 96.759L255.189 94.3822L215.455 224.685" fill="#CCD2D9"/>
<path d="M290.01 10.8769L290.034 10.8086L290.037 10.847L290.063 10.817L290.04 10.8853C293.233 48.3886 265.173 95.457 265.173 95.457L261.356 94.334L261.327 94.3256L257.511 93.2027C257.511 93.2027 263.989 39.7852 290.01 10.8769" fill="#CCD2D9"/>
<path d="M257.861 90.7109C258.046 89.4861 258.31 87.8442 258.665 85.855C258.31 87.8437 258.046 89.4861 257.861 90.7109ZM258.666 85.8485C258.669 85.8312 258.672 85.8143 258.676 85.797C258.672 85.8143 258.669 85.8312 258.666 85.8485ZM258.68 85.7755C258.68 85.7741 258.68 85.7718 258.68 85.7708C258.68 85.7718 258.68 85.7741 258.68 85.7755ZM258.684 85.7512C258.684 85.7475 258.685 85.7423 258.686 85.7386C258.685 85.7423 258.684 85.7475 258.684 85.7512ZM258.689 85.7213C258.69 85.7161 258.691 85.7129 258.691 85.7077C258.691 85.7115 258.69 85.7175 258.689 85.7213ZM258.693 85.6974C258.695 85.6914 258.696 85.6839 258.697 85.6773C258.696 85.6839 258.695 85.6914 258.693 85.6974ZM258.7 85.6596C258.701 85.6558 258.701 85.654 258.702 85.6502C258.701 85.654 258.701 85.6558 258.7 85.6596ZM258.705 85.6339C258.705 85.6287 258.706 85.6236 258.707 85.6184C258.706 85.6236 258.705 85.6287 258.705 85.6339ZM258.717 85.5642C258.718 85.5628 258.718 85.5623 258.718 85.5614C258.718 85.5623 258.718 85.5628 258.717 85.5642ZM258.728 85.509C258.728 85.5053 258.728 85.5034 258.729 85.4997C258.728 85.5034 258.728 85.5053 258.728 85.509ZM258.734 85.4721L258.734 85.4712L258.734 85.4721ZM258.739 85.4459C258.739 85.4445 258.74 85.4408 258.74 85.4398C258.74 85.4408 258.739 85.4445 258.739 85.4459ZM258.749 85.3884C258.75 85.3847 258.751 85.3814 258.751 85.3777C258.751 85.3814 258.75 85.3847 258.749 85.3884ZM258.755 85.3566C258.755 85.3529 258.756 85.3515 258.756 85.3478C258.756 85.3515 258.755 85.3529 258.755 85.3566ZM258.761 85.3239C258.761 85.3225 258.762 85.3192 258.762 85.3183C258.762 85.3192 258.761 85.3225 258.761 85.3239Z" fill="#E8E8E8"/>
<path d="M261.305 94.3191L261.3 94.2976L261.294 94.27L260.447 90.6197C260.447 90.6197 259.53 90.637 257.861 90.7109C258.046 89.486 258.31 87.8437 258.665 85.855C258.665 85.8536 258.666 85.8494 258.666 85.8484C258.669 85.8311 258.672 85.8143 258.676 85.797C258.677 85.7895 258.678 85.783 258.68 85.7755C258.68 85.7741 258.68 85.7718 258.68 85.7708C258.682 85.7633 258.683 85.7582 258.684 85.7512C258.684 85.7474 258.685 85.7423 258.686 85.7386C258.687 85.7339 258.688 85.7264 258.689 85.7213C258.69 85.7175 258.691 85.7114 258.691 85.7077C258.692 85.704 258.693 85.7012 258.693 85.6974C258.695 85.6914 258.696 85.6839 258.697 85.6773C258.698 85.6712 258.699 85.6656 258.7 85.6596C258.701 85.6558 258.701 85.6539 258.702 85.6502C258.703 85.6451 258.704 85.639 258.705 85.6339C258.705 85.6287 258.706 85.6236 258.707 85.6184C258.711 85.6007 258.714 85.5815 258.717 85.5642C258.718 85.5628 258.718 85.5623 258.718 85.5614C258.721 85.5436 258.724 85.5268 258.728 85.509C258.728 85.5053 258.728 85.5034 258.729 85.4997C258.73 85.4908 258.732 85.481 258.734 85.4721L258.734 85.4711C258.736 85.4623 258.737 85.4543 258.739 85.4459C258.739 85.4445 258.74 85.4408 258.74 85.4398C258.743 85.4221 258.746 85.4062 258.749 85.3884C258.75 85.3847 258.751 85.3814 258.751 85.3776C258.752 85.3711 258.754 85.3627 258.755 85.3566C258.755 85.3529 258.756 85.3515 258.756 85.3477C258.758 85.3398 258.759 85.3314 258.761 85.3239C258.761 85.3225 258.762 85.3192 258.762 85.3183C261.649 69.3915 270.111 33.0214 289.97 10.9222L261.305 94.3191Z" fill="#BAC0C6"/>
<path d="M324.284 158.809L324.336 158.862L324.298 158.845L324.313 158.881L324.261 158.828C287.826 142.845 258.295 96.88 258.295 96.88L261.265 94.3528L261.287 94.3336L264.258 91.8063C264.258 91.8063 310.584 123.48 324.284 158.809" fill="#CCD2D9"/>
<path d="M261.305 94.3191L264.258 91.8062L261.305 94.3191ZM264.307 91.8404C264.306 91.839 264.304 91.8376 264.302 91.8362C264.304 91.8376 264.306 91.839 264.307 91.8404ZM264.276 91.8189C264.276 91.8184 264.275 91.8179 264.274 91.8175C264.275 91.8179 264.276 91.8184 264.276 91.8189ZM264.263 91.8095C264.262 91.809 264.262 91.809 264.261 91.8086C264.262 91.809 264.262 91.809 264.263 91.8095ZM264.26 91.8076C264.259 91.8067 264.258 91.8062 264.258 91.8062C264.258 91.8062 264.259 91.8067 264.26 91.8076Z" fill="#BAC0C6"/>
<path d="M324.262 158.754L261.305 94.3191L264.258 91.8063C264.258 91.8063 264.259 91.8067 264.26 91.8077C264.261 91.8081 264.261 91.8081 264.261 91.8086C264.262 91.8091 264.262 91.8091 264.263 91.8095C264.266 91.8114 264.269 91.8142 264.274 91.8175C264.275 91.818 264.276 91.8184 264.276 91.8189C264.283 91.8236 264.291 91.8292 264.302 91.8362C264.304 91.8376 264.306 91.839 264.307 91.8404C264.308 91.8409 264.309 91.8418 264.31 91.8423C266.053 93.0438 310.802 124.137 324.262 158.754" fill="#BAC0C6"/>
<path d="M169.621 113.272L169.546 113.287L169.58 113.265L169.54 113.259L169.615 113.243C202.855 91.7235 260.447 90.6197 260.447 90.6197L261.294 94.27L261.3 94.2976L262.147 97.9478C262.147 97.9478 209.342 119.691 169.621 113.272" fill="#CCD2D9"/>
<path d="M185.46 114.456C180.077 114.456 174.776 114.099 169.683 113.28L261.305 94.3191L262.147 97.9478C262.147 97.9478 262.139 97.9511 262.125 97.9572C261.053 98.3957 221.554 114.456 185.46 114.456" fill="#BAC0C6"/>
<path d="M270.095 96.9048C271.649 92.3874 268.989 87.5717 264.154 86.1495C259.319 84.7269 254.14 87.2365 252.588 91.7544C251.035 96.2723 253.695 101.088 258.53 102.51C263.365 103.932 268.543 101.423 270.095 96.9048" fill="#A2A2A3"/>
<path d="M338.398 336.961L338.578 345.671C338.637 348.501 336.344 350.839 333.457 350.893L310.106 351.336C307.219 351.39 304.831 349.141 304.773 346.311L304.592 337.601L338.398 336.961" fill="#9B9B9B"/>
<path d="M262.449 221.395C261.814 190.751 286.65 165.429 317.921 164.837C349.191 164.244 375.057 188.606 375.692 219.251C375.917 230.141 372.924 240.357 367.571 249.032L367.573 249.031C352.354 275.201 349.162 296.94 349.162 296.94L320.669 297.479L292.177 298.019C292.177 298.019 288.087 276.419 271.795 250.845H271.798C266.089 242.38 262.675 232.285 262.449 221.395Z" fill="#EBB044"/>
<path d="M349.818 296.927L350.585 333.93C350.617 335.476 349.395 336.752 347.854 336.782L295.135 337.78C293.595 337.809 292.32 336.58 292.288 335.034L291.521 298.031L349.818 296.927" fill="#CCD2D9"/>
<path d="M349.162 296.939C349.163 296.935 349.17 296.884 349.185 296.789C349.172 296.875 349.163 296.934 349.162 296.939Z" fill="#E8E8E8"/>
<path d="M292.177 298.018C292.169 297.974 288.07 276.392 271.795 250.845H271.798C266.089 242.38 262.675 232.285 262.449 221.395C262.376 217.843 262.658 214.367 263.24 210.988C278.192 238.269 307.005 280.306 349.185 296.789C349.17 296.884 349.163 296.935 349.162 296.939L325.355 297.39L320.669 297.479L305.82 297.76L292.438 298.014L292.177 298.018" fill="#D6A140"/>
<path d="M292.438 298.013L305.82 297.76L292.438 298.013ZM325.355 297.39L349.162 296.939C349.162 296.94 349.162 296.94 349.162 296.94L325.355 297.39Z" fill="#BAC0C6"/>
<path d="M360.466 248.258C364.496 241.071 366.716 232.782 366.533 223.99C365.986 197.556 343.932 176.475 317.072 176.475C316.746 176.475 316.424 176.478 316.097 176.485C300.14 176.787 286.105 184.467 277.305 196.139C285.54 181.455 301.336 171.376 319.665 171.029C319.99 171.023 320.315 171.02 320.639 171.02C347.501 171.02 369.554 192.099 370.101 218.534C370.331 229.65 366.721 239.962 360.466 248.258Z" fill="#D8A340"/>
<path d="M331.68 297.271L337.067 226.115L327.671 234.085L319.063 221.296L310.872 233.99L301.321 226.725L309.66 297.688L306.735 297.743L297.637 220.312L310.122 229.809L319.01 216.038L328.273 229.799L340.494 219.434L334.605 297.215L331.68 297.271Z" fill="#F4F5F5"/>
<path d="M335.142 290.119L334.605 297.215L331.68 297.271L332.344 288.505C333.269 289.055 334.201 289.593 335.142 290.119Z" fill="#EBEAEB"/>
<path d="M306.226 268.469L309.66 297.688L306.735 297.743L302.915 265.234C304.002 266.324 305.105 267.402 306.226 268.469" fill="#EBEAEB"/>
<path d="M291.854 314.052L350.15 312.948L350.008 306.115L291.711 307.219L291.854 314.052" fill="#9B9B9B"/>
<path d="M292.156 328.645L350.453 327.541L350.311 320.708L292.015 321.812L292.156 328.645" fill="#9B9B9B"/>
<path d="M292.015 321.812L291.854 314.052L308.099 313.744C311.56 316.626 314.991 319.131 318.35 321.313L292.015 321.812" fill="#BAC0C6"/>
<path d="M291.711 307.219L291.521 298.031L291.712 307.219H291.711ZM291.521 298.031L292.177 298.018L291.521 298.031Z" fill="#E8E8E8"/>
<path d="M291.712 307.219L291.521 298.031L292.177 298.018C292.177 298.019 292.177 298.019 292.177 298.019L292.439 298.013C295.187 301.302 297.959 304.306 300.735 307.048L291.711 307.219" fill="#BAC0C6"/>
<path d="M292.177 298.019C292.177 298.019 292.177 298.019 292.177 298.018L292.439 298.013L292.177 298.019Z" fill="#AAAFB5"/>
<path d="M291.711 307.219L300.735 307.048C300.735 307.048 300.735 307.048 300.735 307.048L291.711 307.219Z" fill="#8E8E8E"/>
<path d="M295.081 337.781C293.566 337.781 292.32 336.562 292.288 335.034L292.156 328.645L292.288 335.034C292.32 336.562 293.566 337.781 295.081 337.781C295.099 337.781 295.117 337.78 295.135 337.78L332.231 337.078L295.135 337.78C295.117 337.78 295.099 337.781 295.081 337.781ZM340.476 336.922L347.854 336.782C347.86 336.781 347.865 336.781 347.871 336.781C347.865 336.781 347.86 336.781 347.854 336.782L340.476 336.922Z" fill="#DBDCDC"/>
<path d="M347.878 336.781C347.881 336.781 347.884 336.781 347.887 336.781C347.884 336.781 347.881 336.781 347.878 336.781ZM347.896 336.78C347.898 336.78 347.901 336.78 347.903 336.78C347.901 336.78 347.898 336.78 347.896 336.78ZM347.913 336.78C347.915 336.78 347.917 336.78 347.919 336.779C347.917 336.78 347.915 336.78 347.913 336.78ZM347.931 336.779H347.931H347.931Z" fill="#DBDCDC"/>
<path d="M295.081 337.781C293.566 337.781 292.32 336.562 292.288 335.034L292.156 328.645L330.221 327.924C338.018 331.578 345.012 333.56 350.502 334.63C350.221 335.818 349.194 336.721 347.93 336.779H347.93C347.926 336.78 347.922 336.78 347.918 336.78C347.916 336.78 347.915 336.78 347.913 336.78C347.91 336.78 347.906 336.78 347.903 336.78C347.901 336.78 347.898 336.78 347.896 336.78C347.893 336.78 347.89 336.781 347.887 336.781C347.884 336.781 347.881 336.781 347.878 336.781C347.876 336.781 347.873 336.781 347.871 336.781C347.865 336.781 347.86 336.781 347.854 336.782L340.476 336.922L332.231 337.078L295.135 337.78C295.117 337.78 295.099 337.781 295.081 337.781" fill="#BAC0C6"/>
<path d="M291.854 314.052L291.711 307.219L300.735 307.048C303.193 309.476 305.653 311.707 308.099 313.744L291.854 314.052" fill="#8E8E8E"/>
<path d="M292.156 328.645L330.221 327.924L292.156 328.645ZM292.015 321.812L318.35 321.313C318.351 321.313 318.351 321.313 318.351 321.313L292.015 321.812Z" fill="#BAC0C6"/>
<path d="M292.156 328.645L292.141 327.912L292.015 321.812L318.351 321.313C322.443 323.971 326.427 326.146 330.221 327.924L292.156 328.645Z" fill="#8E8E8E"/>
<path d="M292.156 328.645L330.221 327.924L292.156 328.645Z" fill="#AAAFB5"/>
<path d="M310.003 351.337C307.163 351.337 304.83 349.107 304.773 346.311L304.701 342.891L304.773 346.311C304.83 349.107 307.163 351.337 310.003 351.337C310.038 351.337 310.072 351.336 310.106 351.336L328.209 350.993C328.209 350.993 328.21 350.993 328.21 350.993L310.106 351.336C310.072 351.336 310.038 351.337 310.003 351.337Z" fill="#DBDCDC"/>
<path d="M310.003 351.337C307.163 351.337 304.83 349.107 304.773 346.311L304.702 342.891C311.404 348.971 324.036 350.609 328.209 350.993L310.106 351.336C310.072 351.336 310.038 351.337 310.003 351.337" fill="#8E8E8E"/>
<path d="M226.747 191.949L230.498 191.043L232.159 188.216L232.973 188.256L232.977 189.212L235.068 187.252L237.458 187.074L239.551 189.405L239.725 192.547L237.109 194.244L233.329 194.492L228.254 195.943L226.747 191.949" fill="#EFBFA5"/>
<path d="M228.374 189.843L207.706 194.021L180.304 174.347L182.34 192.076L197.925 207.151L206.403 209.785L232.943 196.156L228.374 189.843" fill="#7FC5A3"/>
<path d="M487.407 231.108L484.947 237.178L482.072 236.299L482.752 231.791L481.188 231.953L483.983 227.001L487.103 227.545L487.407 231.108" fill="#EFBFA5"/>
<path d="M464.284 173.268C464.039 173.733 463.859 174.262 463.755 174.855C463.326 177.317 464.206 179.86 465.638 181.993C467.905 185.37 471.357 188.122 474.029 191.245C477.085 194.816 480.141 198.387 483.198 201.958L482.423 228.381L488.669 229.169L496.315 197.443C492.001 192.882 487.771 188.439 483.805 183.666C480.251 179.387 477.391 174.115 471.97 171.553C468.91 170.107 465.628 170.713 464.284 173.268" fill="#D34E4E"/>
<path d="M361.283 179.973L354.831 210.841L337.641 230.941L342.297 235.548L366.888 215.029L374.342 195.943L361.283 179.973Z" fill="#474EBB"/>
<path d="M339.738 231.22L342.921 234.101L338.555 239.681L334.051 238.905L332.611 235.402L335.904 234.35L335.307 233.809L334.138 233.851L334.114 232.729L339.738 231.22" fill="#AA6755"/>
<path d="M134.496 350.194H91.9968L96.47 337.366H130.023L134.496 350.194Z" fill="#3B455A"/>
<path d="M108.773 343.779H117.72V301.019H108.773V343.779Z" fill="#3B455A"/>
<path d="M117.72 322.399L108.773 307.432V305.294L117.72 303.156V322.399" fill="#343D4F"/>
<path d="M185.197 305.294H43.5322L50.9886 228.324H177.741L185.197 305.294Z" fill="#474EBB"/>
<path d="M144.196 304.214C142.519 284.263 140.841 264.311 139.163 244.36C138.687 238.698 137.96 233.986 137.484 228.324C137.358 226.82 135.119 226.802 135.247 228.324C136.926 248.29 138.609 267.205 140.288 287.171L141.712 304.112C141.839 305.617 144.324 305.737 144.196 304.214Z" fill="#D1D1D1"/>
<path d="M83.8002 305.294C85.4778 285.343 87.1603 266.444 88.8379 246.493C89.3137 240.83 89.7901 235.168 90.266 229.506C90.3922 228.002 92.8768 227.881 92.7491 229.405C91.0701 249.371 89.3915 269.338 87.7125 289.304L86.0368 305.294C85.9106 306.799 83.6721 306.817 83.8002 305.294" fill="#D1D1D1"/>
<path d="M171.095 303.869C159.807 303.869 148.52 303.869 137.232 303.869C123.581 303.869 109.929 303.869 96.2774 303.869C84.484 303.869 72.691 303.869 60.8981 303.869C57.0352 303.869 53.1729 303.869 49.3105 303.869C47.9744 303.869 46.5485 303.752 45.1701 303.78C45.8117 297.158 46.453 290.536 47.0944 283.914H181.635C182.02 287.893 182.406 291.872 182.791 295.851C183.05 298.524 183.309 301.196 183.568 303.869C179.41 303.869 175.252 303.869 171.095 303.869V303.869ZM49.7874 256.119H178.942C179.771 264.671 180.599 273.223 181.428 281.775H47.3019C47.3835 280.93 47.4656 280.085 47.5472 279.24C48.2938 271.532 49.0406 263.826 49.7874 256.119V256.119ZM63.6189 229.749C73.7264 229.749 83.834 229.749 93.9416 229.749C106.122 229.749 118.304 229.749 130.484 229.749C141.018 229.749 151.553 229.749 162.087 229.749C165.584 229.749 169.08 229.749 172.577 229.749C173.81 229.749 175.127 229.86 176.395 229.825C177.176 237.877 177.956 245.929 178.735 253.981H49.9943C50.5176 248.576 51.0409 243.172 51.5653 237.767C51.8235 235.095 52.0827 232.422 52.3419 229.749C56.1006 229.749 59.8597 229.749 63.6189 229.749ZM186.688 305.294C185.847 296.61 185.006 287.924 184.165 279.24C182.825 265.415 181.486 251.591 180.147 237.767C179.842 234.619 179.537 231.472 179.233 228.324C179.158 227.557 178.61 226.899 177.741 226.899C173.531 226.899 169.321 226.899 165.111 226.899C155.003 226.899 144.896 226.899 134.788 226.899C122.607 226.899 110.426 226.899 98.2451 226.899C87.7105 226.899 77.1765 226.899 66.6425 226.899C61.5109 226.899 56.3368 226.714 51.2072 226.899C51.1349 226.902 51.061 226.899 50.9886 226.899C50.1273 226.899 49.5712 227.555 49.4969 228.324C48.6558 237.009 47.8149 245.694 46.9733 254.379C45.6338 268.203 44.2951 282.027 42.9558 295.851C42.6511 298.999 42.346 302.147 42.0411 305.294C41.9668 306.063 42.7848 306.72 43.5322 306.72C48.2333 306.72 52.9337 306.72 57.6349 306.72C68.9226 306.72 80.2098 306.72 91.4971 306.72C105.149 306.72 118.8 306.72 132.452 306.72C144.246 306.72 156.038 306.72 167.831 306.72C173.526 306.72 179.264 306.918 184.956 306.72C185.037 306.717 185.117 306.72 185.197 306.72C185.459 306.72 185.683 306.666 185.874 306.574C186.379 306.403 186.755 305.978 186.688 305.294" fill="#D1D1D1"/>
<path d="M72.2435 232.749C73.6545 234.478 75.0645 236.207 76.4609 237.946C77.2229 237.447 77.9849 236.948 78.7474 236.449C78.0553 235.076 77.3647 233.701 76.6731 232.328C77.15 232.261 77.6283 232.198 78.1052 232.13C76.6868 230.777 75.2411 229.455 73.8017 228.122C72.9316 228.517 72.0718 228.933 71.1855 229.299C71.5431 230.447 71.9412 231.593 72.2435 232.749Z" fill="#AA6755"/>
<path d="M83.6868 178.752C83.9881 179.23 84.125 179.809 84.1896 180.387C84.4571 182.786 83.7386 185.073 82.3486 186.917C80.1477 189.837 77.0899 191.846 74.7868 194.575C72.1525 197.696 70.0319 201.014 67.8578 204.419C69.6954 212.878 72.1266 220.955 75.7366 229.054C73.9441 229.761 72.1643 230.492 70.3644 231.183C63.8199 221.409 59.264 211.368 54.7737 200.806C58.0628 196.079 61.283 191.47 64.9727 186.972C68.2799 182.939 71.3411 178.482 76.5011 176.368C79.4141 175.174 82.0312 176.125 83.6868 178.752Z" fill="#CCD2D9"/>
</svg>
